<svg width="40" height="20" viewBox="0 0 40 20" fill="none" xmlns="http://www.w3.org/2000/svg">
<path d="M0 19.6154V0.384615H4.34406V19.6154H0Z" fill="#C1C8CD"/>
<path d="M6.25202 0.384615H20.3702V4.61538H15.4832V19.6154H11.1391V4.61538H6.25202V0.384615Z" fill="#C1C8CD"/>
<path d="M30.4702 8.9011H40V10.5494C40 13.4341 39.104 15.7143 37.3392 17.4451C35.5745 19.1484 33.3481 20 30.6331 20C27.6737 20 25.2301 19.0385 23.2753 17.1154C21.3476 15.1923 20.3702 12.8297 20.3702 10.0275C20.3702 7.22527 21.3205 4.86264 23.2482 2.91209C25.1758 0.961539 27.5379 0 30.3344 0C33.8911 0 37.0134 1.75824 38.6424 4.3956L34.95 6.53846C34.1083 5.21978 32.3707 4.28571 30.3073 4.28571C28.7054 4.28571 27.3479 4.83516 26.289 5.90659C25.2301 6.97802 24.7143 8.37912 24.7143 10.0549C24.7143 11.7308 25.2573 13.0769 26.3433 14.1483C27.4293 15.1923 28.8683 15.7143 30.6874 15.7143C33.2124 15.7143 34.8142 14.7253 35.5473 12.7473H30.4702V8.9011Z" fill="#C1C8CD"/>
</svg>
