<svg width="132" height="132" viewBox="0 0 132 132" fill="none" xmlns="http://www.w3.org/2000/svg">
<g clip-path="url(#clip0_4878_10551)">
<rect x="0.5" y="0.5" width="131" height="131" rx="27.5" fill="url(#paint0_linear_4878_10551)" stroke="url(#paint1_linear_4878_10551)"/>
<g filter="url(#filter0_dd_4878_10551)">
<mask id="path-2-outside-1_4878_10551" maskUnits="userSpaceOnUse" x="20" y="29" width="92" height="74" fill="black">
<rect fill="white" x="20" y="29" width="92" height="74"/>
<path fill-rule="evenodd" clip-rule="evenodd" d="M21 39.6C21 36.2397 21 34.5595 21.654 33.2761C22.2292 32.1471 23.1471 31.2292 24.2761 30.654C25.5595 30 27.2397 30 30.6 30H101.4C104.76 30 106.44 30 107.724 30.654C108.853 31.2292 109.771 32.1471 110.346 33.2761C111 34.5595 111 36.2397 111 39.6V41.4C111 44.7603 111 46.4405 110.346 47.7239C109.771 48.8529 108.853 49.7708 107.724 50.346C106.44 51 104.76 51 101.4 51H30.6C27.2397 51 25.5595 51 24.2761 50.346C23.1471 49.7708 22.2292 48.8529 21.654 47.7239C21 46.4405 21 44.7603 21 41.4V39.6ZM21 62.5C21 61.106 21 60.4091 21.1153 59.8295C21.5887 57.4493 23.4493 55.5887 25.8295 55.1153C26.4091 55 27.106 55 28.5 55H103.5C104.894 55 105.591 55 106.171 55.1153C108.551 55.5887 110.411 57.4493 110.885 59.8295C111 60.4091 111 61.106 111 62.5C111 63.894 111 64.591 110.885 65.1705C110.411 67.5507 108.551 69.4113 106.171 69.8847C105.591 70 104.894 70 103.5 70H28.5C27.106 70 26.4091 70 25.8295 69.8847C23.4493 69.4113 21.5887 67.5507 21.1153 65.1705C21 64.591 21 63.894 21 62.5ZM21.654 77.2761C21 78.5595 21 80.2397 21 83.6V92.4C21 95.7603 21 97.4405 21.654 98.7239C22.2292 99.8529 23.1471 100.771 24.2761 101.346C25.5595 102 27.2397 102 30.6 102H101.4C104.76 102 106.44 102 107.724 101.346C108.853 100.771 109.771 99.8529 110.346 98.7239C111 97.4405 111 95.7603 111 92.4V83.6C111 80.2397 111 78.5595 110.346 77.2761C109.771 76.1471 108.853 75.2292 107.724 74.654C106.44 74 104.76 74 101.4 74H30.6C27.2397 74 25.5595 74 24.2761 74.654C23.1471 75.2292 22.2292 76.1471 21.654 77.2761Z"/>
</mask>
<path fill-rule="evenodd" clip-rule="evenodd" d="M21 39.6C21 36.2397 21 34.5595 21.654 33.2761C22.2292 32.1471 23.1471 31.2292 24.2761 30.654C25.5595 30 27.2397 30 30.6 30H101.4C104.76 30 106.44 30 107.724 30.654C108.853 31.2292 109.771 32.1471 110.346 33.2761C111 34.5595 111 36.2397 111 39.6V41.4C111 44.7603 111 46.4405 110.346 47.7239C109.771 48.8529 108.853 49.7708 107.724 50.346C106.44 51 104.76 51 101.4 51H30.6C27.2397 51 25.5595 51 24.2761 50.346C23.1471 49.7708 22.2292 48.8529 21.654 47.7239C21 46.4405 21 44.7603 21 41.4V39.6ZM21 62.5C21 61.106 21 60.4091 21.1153 59.8295C21.5887 57.4493 23.4493 55.5887 25.8295 55.1153C26.4091 55 27.106 55 28.5 55H103.5C104.894 55 105.591 55 106.171 55.1153C108.551 55.5887 110.411 57.4493 110.885 59.8295C111 60.4091 111 61.106 111 62.5C111 63.894 111 64.591 110.885 65.1705C110.411 67.5507 108.551 69.4113 106.171 69.8847C105.591 70 104.894 70 103.5 70H28.5C27.106 70 26.4091 70 25.8295 69.8847C23.4493 69.4113 21.5887 67.5507 21.1153 65.1705C21 64.591 21 63.894 21 62.5ZM21.654 77.2761C21 78.5595 21 80.2397 21 83.6V92.4C21 95.7603 21 97.4405 21.654 98.7239C22.2292 99.8529 23.1471 100.771 24.2761 101.346C25.5595 102 27.2397 102 30.6 102H101.4C104.76 102 106.44 102 107.724 101.346C108.853 100.771 109.771 99.8529 110.346 98.7239C111 97.4405 111 95.7603 111 92.4V83.6C111 80.2397 111 78.5595 110.346 77.2761C109.771 76.1471 108.853 75.2292 107.724 74.654C106.44 74 104.76 74 101.4 74H30.6C27.2397 74 25.5595 74 24.2761 74.654C23.1471 75.2292 22.2292 76.1471 21.654 77.2761Z" fill="url(#paint2_radial_4878_10551)" shape-rendering="crispEdges"/>
<path d="M21.654 33.2761L22.0995 33.5031L21.654 33.2761ZM24.2761 30.654L24.5031 31.0995L24.2761 30.654ZM107.724 30.654L107.951 30.2085V30.2085L107.724 30.654ZM110.346 33.2761L110.792 33.0491V33.0491L110.346 33.2761ZM110.346 47.7239L110.792 47.9509L110.346 47.7239ZM107.724 50.346L107.951 50.7915L107.724 50.346ZM24.2761 50.346L24.5031 49.9005H24.5031L24.2761 50.346ZM21.654 47.7239L21.2085 47.9509H21.2085L21.654 47.7239ZM21.1153 59.8295L20.6249 59.7319L21.1153 59.8295ZM25.8295 55.1153L25.7319 54.6249H25.7319L25.8295 55.1153ZM106.171 55.1153L106.073 55.6057L106.171 55.1153ZM110.885 59.8295L111.375 59.7319L110.885 59.8295ZM110.885 65.1705L111.375 65.2681L110.885 65.1705ZM106.171 69.8847L106.268 70.3751H106.268L106.171 69.8847ZM25.8295 69.8847L25.7319 70.3751L25.7319 70.3751L25.8295 69.8847ZM21.1153 65.1705L21.6057 65.073H21.6057L21.1153 65.1705ZM21.654 77.2761L22.0995 77.5031H22.0995L21.654 77.2761ZM21.654 98.7239L21.2085 98.9509H21.2085L21.654 98.7239ZM24.2761 101.346L24.0491 101.792H24.0491L24.2761 101.346ZM107.724 101.346L107.951 101.792L107.724 101.346ZM110.346 98.7239L110.792 98.9509L110.346 98.7239ZM110.346 77.2761L109.901 77.5031L110.346 77.2761ZM107.724 74.654L107.951 74.2085L107.724 74.654ZM24.2761 74.654L24.0491 74.2085H24.0491L24.2761 74.654ZM21.2085 33.0491C20.8396 33.773 20.6677 34.5871 20.5834 35.6185C20.4996 36.6441 20.5 37.9281 20.5 39.6H21.5C21.5 37.9116 21.5004 36.6754 21.5801 35.6999C21.6593 34.7303 21.8144 34.0626 22.0995 33.5031L21.2085 33.0491ZM24.0491 30.2085C22.826 30.8316 21.8316 31.826 21.2085 33.0491L22.0995 33.5031C22.6268 32.4682 23.4682 31.6268 24.5031 31.0995L24.0491 30.2085ZM30.6 29.5C28.9281 29.5 27.6441 29.4996 26.6185 29.5834C25.5871 29.6677 24.773 29.8396 24.0491 30.2085L24.5031 31.0995C25.0626 30.8144 25.7303 30.6593 26.6999 30.5801C27.6754 30.5004 28.9116 30.5 30.6 30.5V29.5ZM101.4 29.5H30.6V30.5H101.4V29.5ZM107.951 30.2085C107.227 29.8396 106.413 29.6677 105.382 29.5834C104.356 29.4996 103.072 29.5 101.4 29.5V30.5C103.088 30.5 104.325 30.5004 105.3 30.5801C106.27 30.6593 106.937 30.8144 107.497 31.0995L107.951 30.2085ZM110.792 33.0491C110.168 31.826 109.174 30.8316 107.951 30.2085L107.497 31.0995C108.532 31.6268 109.373 32.4682 109.901 33.5031L110.792 33.0491ZM111.5 39.6C111.5 37.9281 111.5 36.6441 111.417 35.6185C111.332 34.5871 111.16 33.773 110.792 33.0491L109.901 33.5031C110.186 34.0626 110.341 34.7303 110.42 35.6999C110.5 36.6754 110.5 37.9116 110.5 39.6H111.5ZM111.5 41.4V39.6H110.5V41.4H111.5ZM110.792 47.9509C111.16 47.227 111.332 46.4129 111.417 45.3815C111.5 44.3559 111.5 43.0719 111.5 41.4H110.5C110.5 43.0884 110.5 44.3246 110.42 45.3001C110.341 46.2697 110.186 46.9374 109.901 47.4969L110.792 47.9509ZM107.951 50.7915C109.174 50.1684 110.168 49.174 110.792 47.9509L109.901 47.4969C109.373 48.5318 108.532 49.3732 107.497 49.9005L107.951 50.7915ZM101.4 51.5C103.072 51.5 104.356 51.5004 105.382 51.4166C106.413 51.3323 107.227 51.1604 107.951 50.7915L107.497 49.9005C106.937 50.1856 106.27 50.3407 105.3 50.4199C104.325 50.4996 103.088 50.5 101.4 50.5V51.5ZM30.6 51.5H101.4V50.5H30.6V51.5ZM24.0491 50.7915C24.773 51.1604 25.5871 51.3323 26.6185 51.4166C27.6441 51.5004 28.9281 51.5 30.6 51.5V50.5C28.9116 50.5 27.6754 50.4996 26.6999 50.4199C25.7303 50.3407 25.0626 50.1856 24.5031 49.9005L24.0491 50.7915ZM21.2085 47.9509C21.8316 49.174 22.826 50.1684 24.0491 50.7915L24.5031 49.9005C23.4682 49.3732 22.6268 48.5318 22.0995 47.4969L21.2085 47.9509ZM20.5 41.4C20.5 43.0719 20.4996 44.3559 20.5834 45.3815C20.6677 46.4129 20.8396 47.227 21.2085 47.9509L22.0995 47.4969C21.8144 46.9374 21.6593 46.2697 21.5801 45.3001C21.5004 44.3246 21.5 43.0884 21.5 41.4H20.5ZM20.5 39.6V41.4H21.5V39.6H20.5ZM20.6249 59.7319C20.4976 60.372 20.5 61.13 20.5 62.5H21.5C21.5 61.0821 21.5024 60.4461 21.6057 59.927L20.6249 59.7319ZM25.7319 54.6249C23.1534 55.1378 21.1378 57.1534 20.6249 59.7319L21.6057 59.927C22.0397 57.7452 23.7452 56.0397 25.927 55.6057L25.7319 54.6249ZM28.5 54.5C27.13 54.5 26.372 54.4976 25.7319 54.6249L25.927 55.6057C26.4461 55.5024 27.0821 55.5 28.5 55.5V54.5ZM103.5 54.5H28.5V55.5H103.5V54.5ZM106.268 54.6249C105.628 54.4976 104.87 54.5 103.5 54.5V55.5C104.918 55.5 105.554 55.5024 106.073 55.6057L106.268 54.6249ZM111.375 59.7319C110.862 57.1534 108.847 55.1378 106.268 54.6249L106.073 55.6057C108.255 56.0397 109.96 57.7452 110.394 59.927L111.375 59.7319ZM111.5 62.5C111.5 61.13 111.502 60.372 111.375 59.7319L110.394 59.927C110.498 60.4461 110.5 61.0821 110.5 62.5H111.5ZM111.375 65.2681C111.502 64.628 111.5 63.87 111.5 62.5H110.5C110.5 63.9179 110.498 64.5539 110.394 65.073L111.375 65.2681ZM106.268 70.3751C108.847 69.8622 110.862 67.8466 111.375 65.2681L110.394 65.073C109.96 67.2548 108.255 68.9603 106.073 69.3943L106.268 70.3751ZM103.5 70.5C104.87 70.5 105.628 70.5024 106.268 70.3751L106.073 69.3943C105.554 69.4976 104.918 69.5 103.5 69.5V70.5ZM28.5 70.5H103.5V69.5H28.5V70.5ZM25.7319 70.3751C26.372 70.5024 27.13 70.5 28.5 70.5V69.5C27.0821 69.5 26.4461 69.4976 25.927 69.3943L25.7319 70.3751ZM20.6249 65.2681C21.1378 67.8466 23.1534 69.8622 25.7319 70.3751L25.927 69.3943C23.7452 68.9603 22.0397 67.2548 21.6057 65.073L20.6249 65.2681ZM20.5 62.5C20.5 63.87 20.4976 64.628 20.6249 65.2681L21.6057 65.073C21.5024 64.5539 21.5 63.9179 21.5 62.5H20.5ZM21.5 83.6C21.5 81.9116 21.5004 80.6754 21.5801 79.6999C21.6593 78.7303 21.8144 78.0626 22.0995 77.5031L21.2085 77.0491C20.8396 77.773 20.6677 78.5871 20.5834 79.6185C20.4996 80.6441 20.5 81.9281 20.5 83.6H21.5ZM21.5 92.4V83.6H20.5V92.4H21.5ZM22.0995 98.4969C21.8144 97.9374 21.6593 97.2697 21.5801 96.3001C21.5004 95.3246 21.5 94.0884 21.5 92.4H20.5C20.5 94.0719 20.4996 95.3559 20.5834 96.3815C20.6677 97.4129 20.8396 98.227 21.2085 98.9509L22.0995 98.4969ZM24.5031 100.901C23.4682 100.373 22.6268 99.5318 22.0995 98.4969L21.2085 98.9509C21.8316 100.174 22.826 101.168 24.0491 101.792L24.5031 100.901ZM30.6 101.5C28.9116 101.5 27.6754 101.5 26.6999 101.42C25.7303 101.341 25.0626 101.186 24.5031 100.901L24.0491 101.792C24.773 102.16 25.5871 102.332 26.6185 102.417C27.6441 102.5 28.9281 102.5 30.6 102.5V101.5ZM101.4 101.5H30.6V102.5H101.4V101.5ZM107.497 100.901C106.937 101.186 106.27 101.341 105.3 101.42C104.325 101.5 103.088 101.5 101.4 101.5V102.5C103.072 102.5 104.356 102.5 105.382 102.417C106.413 102.332 107.227 102.16 107.951 101.792L107.497 100.901ZM109.901 98.4969C109.373 99.5318 108.532 100.373 107.497 100.901L107.951 101.792C109.174 101.168 110.168 100.174 110.792 98.9509L109.901 98.4969ZM110.5 92.4C110.5 94.0884 110.5 95.3246 110.42 96.3001C110.341 97.2697 110.186 97.9374 109.901 98.4969L110.792 98.9509C111.16 98.227 111.332 97.4129 111.417 96.3815C111.5 95.3559 111.5 94.0719 111.5 92.4H110.5ZM110.5 83.6V92.4H111.5V83.6H110.5ZM109.901 77.5031C110.186 78.0626 110.341 78.7303 110.42 79.6999C110.5 80.6754 110.5 81.9116 110.5 83.6H111.5C111.5 81.9281 111.5 80.6441 111.417 79.6185C111.332 78.5871 111.16 77.773 110.792 77.0491L109.901 77.5031ZM107.497 75.0995C108.532 75.6268 109.373 76.4682 109.901 77.5031L110.792 77.0491C110.168 75.826 109.174 74.8316 107.951 74.2085L107.497 75.0995ZM101.4 74.5C103.088 74.5 104.325 74.5004 105.3 74.5801C106.27 74.6593 106.937 74.8144 107.497 75.0995L107.951 74.2085C107.227 73.8396 106.413 73.6677 105.382 73.5834C104.356 73.4996 103.072 73.5 101.4 73.5V74.5ZM30.6 74.5H101.4V73.5H30.6V74.5ZM24.5031 75.0995C25.0626 74.8144 25.7303 74.6593 26.6999 74.5801C27.6754 74.5004 28.9116 74.5 30.6 74.5V73.5C28.9281 73.5 27.6441 73.4996 26.6185 73.5834C25.5871 73.6677 24.773 73.8396 24.0491 74.2085L24.5031 75.0995ZM22.0995 77.5031C22.6268 76.4682 23.4682 75.6268 24.5031 75.0995L24.0491 74.2085C22.826 74.8316 21.8316 75.826 21.2085 77.0491L22.0995 77.5031Z" fill="url(#paint3_linear_4878_10551)" mask="url(#path-2-outside-1_4878_10551)"/>
<path d="M21.654 33.2761L22.0995 33.5031L21.654 33.2761ZM24.2761 30.654L24.5031 31.0995L24.2761 30.654ZM107.724 30.654L107.951 30.2085V30.2085L107.724 30.654ZM110.346 33.2761L110.792 33.0491V33.0491L110.346 33.2761ZM110.346 47.7239L110.792 47.9509L110.346 47.7239ZM107.724 50.346L107.951 50.7915L107.724 50.346ZM24.2761 50.346L24.5031 49.9005H24.5031L24.2761 50.346ZM21.654 47.7239L21.2085 47.9509H21.2085L21.654 47.7239ZM21.1153 59.8295L20.6249 59.7319L21.1153 59.8295ZM25.8295 55.1153L25.7319 54.6249H25.7319L25.8295 55.1153ZM106.171 55.1153L106.073 55.6057L106.171 55.1153ZM110.885 59.8295L111.375 59.7319L110.885 59.8295ZM110.885 65.1705L111.375 65.2681L110.885 65.1705ZM106.171 69.8847L106.268 70.3751H106.268L106.171 69.8847ZM25.8295 69.8847L25.7319 70.3751L25.7319 70.3751L25.8295 69.8847ZM21.1153 65.1705L21.6057 65.073H21.6057L21.1153 65.1705ZM21.654 77.2761L22.0995 77.5031H22.0995L21.654 77.2761ZM21.654 98.7239L21.2085 98.9509H21.2085L21.654 98.7239ZM24.2761 101.346L24.0491 101.792H24.0491L24.2761 101.346ZM107.724 101.346L107.951 101.792L107.724 101.346ZM110.346 98.7239L110.792 98.9509L110.346 98.7239ZM110.346 77.2761L109.901 77.5031L110.346 77.2761ZM107.724 74.654L107.951 74.2085L107.724 74.654ZM24.2761 74.654L24.0491 74.2085H24.0491L24.2761 74.654ZM21.2085 33.0491C20.8396 33.773 20.6677 34.5871 20.5834 35.6185C20.4996 36.6441 20.5 37.9281 20.5 39.6H21.5C21.5 37.9116 21.5004 36.6754 21.5801 35.6999C21.6593 34.7303 21.8144 34.0626 22.0995 33.5031L21.2085 33.0491ZM24.0491 30.2085C22.826 30.8316 21.8316 31.826 21.2085 33.0491L22.0995 33.5031C22.6268 32.4682 23.4682 31.6268 24.5031 31.0995L24.0491 30.2085ZM30.6 29.5C28.9281 29.5 27.6441 29.4996 26.6185 29.5834C25.5871 29.6677 24.773 29.8396 24.0491 30.2085L24.5031 31.0995C25.0626 30.8144 25.7303 30.6593 26.6999 30.5801C27.6754 30.5004 28.9116 30.5 30.6 30.5V29.5ZM101.4 29.5H30.6V30.5H101.4V29.5ZM107.951 30.2085C107.227 29.8396 106.413 29.6677 105.382 29.5834C104.356 29.4996 103.072 29.5 101.4 29.5V30.5C103.088 30.5 104.325 30.5004 105.3 30.5801C106.27 30.6593 106.937 30.8144 107.497 31.0995L107.951 30.2085ZM110.792 33.0491C110.168 31.826 109.174 30.8316 107.951 30.2085L107.497 31.0995C108.532 31.6268 109.373 32.4682 109.901 33.5031L110.792 33.0491ZM111.5 39.6C111.5 37.9281 111.5 36.6441 111.417 35.6185C111.332 34.5871 111.16 33.773 110.792 33.0491L109.901 33.5031C110.186 34.0626 110.341 34.7303 110.42 35.6999C110.5 36.6754 110.5 37.9116 110.5 39.6H111.5ZM111.5 41.4V39.6H110.5V41.4H111.5ZM110.792 47.9509C111.16 47.227 111.332 46.4129 111.417 45.3815C111.5 44.3559 111.5 43.0719 111.5 41.4H110.5C110.5 43.0884 110.5 44.3246 110.42 45.3001C110.341 46.2697 110.186 46.9374 109.901 47.4969L110.792 47.9509ZM107.951 50.7915C109.174 50.1684 110.168 49.174 110.792 47.9509L109.901 47.4969C109.373 48.5318 108.532 49.3732 107.497 49.9005L107.951 50.7915ZM101.4 51.5C103.072 51.5 104.356 51.5004 105.382 51.4166C106.413 51.3323 107.227 51.1604 107.951 50.7915L107.497 49.9005C106.937 50.1856 106.27 50.3407 105.3 50.4199C104.325 50.4996 103.088 50.5 101.4 50.5V51.5ZM30.6 51.5H101.4V50.5H30.6V51.5ZM24.0491 50.7915C24.773 51.1604 25.5871 51.3323 26.6185 51.4166C27.6441 51.5004 28.9281 51.5 30.6 51.5V50.5C28.9116 50.5 27.6754 50.4996 26.6999 50.4199C25.7303 50.3407 25.0626 50.1856 24.5031 49.9005L24.0491 50.7915ZM21.2085 47.9509C21.8316 49.174 22.826 50.1684 24.0491 50.7915L24.5031 49.9005C23.4682 49.3732 22.6268 48.5318 22.0995 47.4969L21.2085 47.9509ZM20.5 41.4C20.5 43.0719 20.4996 44.3559 20.5834 45.3815C20.6677 46.4129 20.8396 47.227 21.2085 47.9509L22.0995 47.4969C21.8144 46.9374 21.6593 46.2697 21.5801 45.3001C21.5004 44.3246 21.5 43.0884 21.5 41.4H20.5ZM20.5 39.6V41.4H21.5V39.6H20.5ZM20.6249 59.7319C20.4976 60.372 20.5 61.13 20.5 62.5H21.5C21.5 61.0821 21.5024 60.4461 21.6057 59.927L20.6249 59.7319ZM25.7319 54.6249C23.1534 55.1378 21.1378 57.1534 20.6249 59.7319L21.6057 59.927C22.0397 57.7452 23.7452 56.0397 25.927 55.6057L25.7319 54.6249ZM28.5 54.5C27.13 54.5 26.372 54.4976 25.7319 54.6249L25.927 55.6057C26.4461 55.5024 27.0821 55.5 28.5 55.5V54.5ZM103.5 54.5H28.5V55.5H103.5V54.5ZM106.268 54.6249C105.628 54.4976 104.87 54.5 103.5 54.5V55.5C104.918 55.5 105.554 55.5024 106.073 55.6057L106.268 54.6249ZM111.375 59.7319C110.862 57.1534 108.847 55.1378 106.268 54.6249L106.073 55.6057C108.255 56.0397 109.96 57.7452 110.394 59.927L111.375 59.7319ZM111.5 62.5C111.5 61.13 111.502 60.372 111.375 59.7319L110.394 59.927C110.498 60.4461 110.5 61.0821 110.5 62.5H111.5ZM111.375 65.2681C111.502 64.628 111.5 63.87 111.5 62.5H110.5C110.5 63.9179 110.498 64.5539 110.394 65.073L111.375 65.2681ZM106.268 70.3751C108.847 69.8622 110.862 67.8466 111.375 65.2681L110.394 65.073C109.96 67.2548 108.255 68.9603 106.073 69.3943L106.268 70.3751ZM103.5 70.5C104.87 70.5 105.628 70.5024 106.268 70.3751L106.073 69.3943C105.554 69.4976 104.918 69.5 103.5 69.5V70.5ZM28.5 70.5H103.5V69.5H28.5V70.5ZM25.7319 70.3751C26.372 70.5024 27.13 70.5 28.5 70.5V69.5C27.0821 69.5 26.4461 69.4976 25.927 69.3943L25.7319 70.3751ZM20.6249 65.2681C21.1378 67.8466 23.1534 69.8622 25.7319 70.3751L25.927 69.3943C23.7452 68.9603 22.0397 67.2548 21.6057 65.073L20.6249 65.2681ZM20.5 62.5C20.5 63.87 20.4976 64.628 20.6249 65.2681L21.6057 65.073C21.5024 64.5539 21.5 63.9179 21.5 62.5H20.5ZM21.5 83.6C21.5 81.9116 21.5004 80.6754 21.5801 79.6999C21.6593 78.7303 21.8144 78.0626 22.0995 77.5031L21.2085 77.0491C20.8396 77.773 20.6677 78.5871 20.5834 79.6185C20.4996 80.6441 20.5 81.9281 20.5 83.6H21.5ZM21.5 92.4V83.6H20.5V92.4H21.5ZM22.0995 98.4969C21.8144 97.9374 21.6593 97.2697 21.5801 96.3001C21.5004 95.3246 21.5 94.0884 21.5 92.4H20.5C20.5 94.0719 20.4996 95.3559 20.5834 96.3815C20.6677 97.4129 20.8396 98.227 21.2085 98.9509L22.0995 98.4969ZM24.5031 100.901C23.4682 100.373 22.6268 99.5318 22.0995 98.4969L21.2085 98.9509C21.8316 100.174 22.826 101.168 24.0491 101.792L24.5031 100.901ZM30.6 101.5C28.9116 101.5 27.6754 101.5 26.6999 101.42C25.7303 101.341 25.0626 101.186 24.5031 100.901L24.0491 101.792C24.773 102.16 25.5871 102.332 26.6185 102.417C27.6441 102.5 28.9281 102.5 30.6 102.5V101.5ZM101.4 101.5H30.6V102.5H101.4V101.5ZM107.497 100.901C106.937 101.186 106.27 101.341 105.3 101.42C104.325 101.5 103.088 101.5 101.4 101.5V102.5C103.072 102.5 104.356 102.5 105.382 102.417C106.413 102.332 107.227 102.16 107.951 101.792L107.497 100.901ZM109.901 98.4969C109.373 99.5318 108.532 100.373 107.497 100.901L107.951 101.792C109.174 101.168 110.168 100.174 110.792 98.9509L109.901 98.4969ZM110.5 92.4C110.5 94.0884 110.5 95.3246 110.42 96.3001C110.341 97.2697 110.186 97.9374 109.901 98.4969L110.792 98.9509C111.16 98.227 111.332 97.4129 111.417 96.3815C111.5 95.3559 111.5 94.0719 111.5 92.4H110.5ZM110.5 83.6V92.4H111.5V83.6H110.5ZM109.901 77.5031C110.186 78.0626 110.341 78.7303 110.42 79.6999C110.5 80.6754 110.5 81.9116 110.5 83.6H111.5C111.5 81.9281 111.5 80.6441 111.417 79.6185C111.332 78.5871 111.16 77.773 110.792 77.0491L109.901 77.5031ZM107.497 75.0995C108.532 75.6268 109.373 76.4682 109.901 77.5031L110.792 77.0491C110.168 75.826 109.174 74.8316 107.951 74.2085L107.497 75.0995ZM101.4 74.5C103.088 74.5 104.325 74.5004 105.3 74.5801C106.27 74.6593 106.937 74.8144 107.497 75.0995L107.951 74.2085C107.227 73.8396 106.413 73.6677 105.382 73.5834C104.356 73.4996 103.072 73.5 101.4 73.5V74.5ZM30.6 74.5H101.4V73.5H30.6V74.5ZM24.5031 75.0995C25.0626 74.8144 25.7303 74.6593 26.6999 74.5801C27.6754 74.5004 28.9116 74.5 30.6 74.5V73.5C28.9281 73.5 27.6441 73.4996 26.6185 73.5834C25.5871 73.6677 24.773 73.8396 24.0491 74.2085L24.5031 75.0995ZM22.0995 77.5031C22.6268 76.4682 23.4682 75.6268 24.5031 75.0995L24.0491 74.2085C22.826 74.8316 21.8316 75.826 21.2085 77.0491L22.0995 77.5031Z" fill="url(#paint4_linear_4878_10551)" mask="url(#path-2-outside-1_4878_10551)"/>
</g>
<g filter="url(#filter1_d_4878_10551)">
<circle cx="19" cy="113" r="3" fill="url(#paint5_linear_4878_10551)" shape-rendering="crispEdges"/>
<circle cx="19" cy="113" r="3.25" stroke="url(#paint6_linear_4878_10551)" stroke-width="0.5" shape-rendering="crispEdges"/>
</g>
<g filter="url(#filter2_d_4878_10551)">
<circle cx="19" cy="19" r="3" fill="url(#paint7_linear_4878_10551)" shape-rendering="crispEdges"/>
<circle cx="19" cy="19" r="3.25" stroke="url(#paint8_linear_4878_10551)" stroke-width="0.5" shape-rendering="crispEdges"/>
</g>
<g filter="url(#filter3_d_4878_10551)">
<circle cx="113" cy="113" r="3" fill="url(#paint9_linear_4878_10551)" shape-rendering="crispEdges"/>
<circle cx="113" cy="113" r="3.25" stroke="url(#paint10_linear_4878_10551)" stroke-width="0.5" shape-rendering="crispEdges"/>
</g>
<g filter="url(#filter4_d_4878_10551)">
<circle cx="113" cy="19" r="3" fill="url(#paint11_linear_4878_10551)" shape-rendering="crispEdges"/>
<circle cx="113" cy="19" r="3.25" stroke="url(#paint12_linear_4878_10551)" stroke-width="0.5" shape-rendering="crispEdges"/>
</g>
</g>
<defs>
<filter id="filter0_dd_4878_10551" x="-19.5" y="-18.5" width="171" height="153" filterUnits="userSpaceOnUse" color-interpolation-filters="sRGB">
<feFlood flood-opacity="0" result="BackgroundImageFix"/>
<feColorMatrix in="SourceAlpha" type="matrix" values="0 0 0 0 0 0 0 0 0 0 0 0 0 0 0 0 0 0 127 0" result="hardAlpha"/>
<feOffset dy="12"/>
<feGaussianBlur stdDeviation="8"/>
<feComposite in2="hardAlpha" operator="out"/>
<feColorMatrix type="matrix" values="0 0 0 0 0.535937 0 0 0 0 0.57861 0 0 0 0 0.639063 0 0 0 0.16 0"/>
<feBlend mode="color-burn" in2="BackgroundImageFix" result="effect1_dropShadow_4878_10551"/>
<feColorMatrix in="SourceAlpha" type="matrix" values="0 0 0 0 0 0 0 0 0 0 0 0 0 0 0 0 0 0 127 0" result="hardAlpha"/>
<feOffset dy="-8"/>
<feGaussianBlur stdDeviation="20"/>
<feComposite in2="hardAlpha" operator="out"/>
<feColorMatrix type="matrix" values="0 0 0 0 0.691667 0 0 0 0 0.739333 0 0 0 0 0.908333 0 0 0 0.42 0"/>
<feBlend mode="normal" in2="effect1_dropShadow_4878_10551" result="effect2_dropShadow_4878_10551"/>
<feBlend mode="normal" in="SourceGraphic" in2="effect2_dropShadow_4878_10551" result="shape"/>
</filter>
<filter id="filter1_d_4878_10551" x="-0.5" y="105.5" width="39" height="39" filterUnits="userSpaceOnUse" color-interpolation-filters="sRGB">
<feFlood flood-opacity="0" result="BackgroundImageFix"/>
<feColorMatrix in="SourceAlpha" type="matrix" values="0 0 0 0 0 0 0 0 0 0 0 0 0 0 0 0 0 0 127 0" result="hardAlpha"/>
<feOffset dy="12"/>
<feGaussianBlur stdDeviation="8"/>
<feComposite in2="hardAlpha" operator="out"/>
<feColorMatrix type="matrix" values="0 0 0 0 0.535937 0 0 0 0 0.57861 0 0 0 0 0.639063 0 0 0 0.1 0"/>
<feBlend mode="color-burn" in2="BackgroundImageFix" result="effect1_dropShadow_4878_10551"/>
<feBlend mode="normal" in="SourceGraphic" in2="effect1_dropShadow_4878_10551" result="shape"/>
</filter>
<filter id="filter2_d_4878_10551" x="-0.5" y="11.5" width="39" height="39" filterUnits="userSpaceOnUse" color-interpolation-filters="sRGB">
<feFlood flood-opacity="0" result="BackgroundImageFix"/>
<feColorMatrix in="SourceAlpha" type="matrix" values="0 0 0 0 0 0 0 0 0 0 0 0 0 0 0 0 0 0 127 0" result="hardAlpha"/>
<feOffset dy="12"/>
<feGaussianBlur stdDeviation="8"/>
<feComposite in2="hardAlpha" operator="out"/>
<feColorMatrix type="matrix" values="0 0 0 0 0.535937 0 0 0 0 0.57861 0 0 0 0 0.639063 0 0 0 0.1 0"/>
<feBlend mode="color-burn" in2="BackgroundImageFix" result="effect1_dropShadow_4878_10551"/>
<feBlend mode="normal" in="SourceGraphic" in2="effect1_dropShadow_4878_10551" result="shape"/>
</filter>
<filter id="filter3_d_4878_10551" x="93.5" y="105.5" width="39" height="39" filterUnits="userSpaceOnUse" color-interpolation-filters="sRGB">
<feFlood flood-opacity="0" result="BackgroundImageFix"/>
<feColorMatrix in="SourceAlpha" type="matrix" values="0 0 0 0 0 0 0 0 0 0 0 0 0 0 0 0 0 0 127 0" result="hardAlpha"/>
<feOffset dy="12"/>
<feGaussianBlur stdDeviation="8"/>
<feComposite in2="hardAlpha" operator="out"/>
<feColorMatrix type="matrix" values="0 0 0 0 0.535937 0 0 0 0 0.57861 0 0 0 0 0.639063 0 0 0 0.1 0"/>
<feBlend mode="color-burn" in2="BackgroundImageFix" result="effect1_dropShadow_4878_10551"/>
<feBlend mode="normal" in="SourceGraphic" in2="effect1_dropShadow_4878_10551" result="shape"/>
</filter>
<filter id="filter4_d_4878_10551" x="93.5" y="11.5" width="39" height="39" filterUnits="userSpaceOnUse" color-interpolation-filters="sRGB">
<feFlood flood-opacity="0" result="BackgroundImageFix"/>
<feColorMatrix in="SourceAlpha" type="matrix" values="0 0 0 0 0 0 0 0 0 0 0 0 0 0 0 0 0 0 127 0" result="hardAlpha"/>
<feOffset dy="12"/>
<feGaussianBlur stdDeviation="8"/>
<feComposite in2="hardAlpha" operator="out"/>
<feColorMatrix type="matrix" values="0 0 0 0 0.535937 0 0 0 0 0.57861 0 0 0 0 0.639063 0 0 0 0.1 0"/>
<feBlend mode="color-burn" in2="BackgroundImageFix" result="effect1_dropShadow_4878_10551"/>
<feBlend mode="normal" in="SourceGraphic" in2="effect1_dropShadow_4878_10551" result="shape"/>
</filter>
<linearGradient id="paint0_linear_4878_10551" x1="68.7123" y1="-3.34177" x2="68.7123" y2="133.671" gradientUnits="userSpaceOnUse">
<stop stop-color="#DBE3EA"/>
<stop offset="1" stop-color="#AFBBCD"/>
</linearGradient>
<linearGradient id="paint1_linear_4878_10551" x1="66" y1="0" x2="66" y2="132" gradientUnits="userSpaceOnUse">
<stop stop-color="#F5F7F8"/>
<stop offset="1" stop-color="white" stop-opacity="0"/>
</linearGradient>
<radialGradient id="paint2_radial_4878_10551" cx="0" cy="0" r="1" gradientUnits="userSpaceOnUse" gradientTransform="translate(66.9724 79.0126) rotate(-90) scale(26.9256 112.235)">
<stop stop-color="white"/>
<stop offset="0.297177" stop-color="white"/>
<stop offset="0.615948" stop-color="white" stop-opacity="0.71"/>
<stop offset="1" stop-color="white" stop-opacity="0.52"/>
</radialGradient>
<linearGradient id="paint3_linear_4878_10551" x1="66.2295" y1="52.913" x2="66.2295" y2="79.0126" gradientUnits="userSpaceOnUse">
<stop stop-color="white"/>
<stop offset="1" stop-color="white"/>
</linearGradient>
<linearGradient id="paint4_linear_4878_10551" x1="66.2295" y1="52.913" x2="66.2295" y2="79.0126" gradientUnits="userSpaceOnUse">
<stop stop-color="white"/>
<stop offset="1" stop-color="white" stop-opacity="0"/>
</linearGradient>
<linearGradient id="paint5_linear_4878_10551" x1="19.1233" y1="109.848" x2="19.1233" y2="116.076" gradientUnits="userSpaceOnUse">
<stop stop-color="#B4BFD0"/>
<stop offset="1" stop-color="#8297B7"/>
</linearGradient>
<linearGradient id="paint6_linear_4878_10551" x1="19" y1="110" x2="19" y2="116" gradientUnits="userSpaceOnUse">
<stop stop-color="white"/>
<stop offset="1" stop-color="white" stop-opacity="0"/>
</linearGradient>
<linearGradient id="paint7_linear_4878_10551" x1="19.1233" y1="15.8481" x2="19.1233" y2="22.0759" gradientUnits="userSpaceOnUse">
<stop stop-color="#B4BFD0"/>
<stop offset="1" stop-color="#8297B7"/>
</linearGradient>
<linearGradient id="paint8_linear_4878_10551" x1="19" y1="16" x2="19" y2="22" gradientUnits="userSpaceOnUse">
<stop stop-color="white"/>
<stop offset="1" stop-color="white" stop-opacity="0"/>
</linearGradient>
<linearGradient id="paint9_linear_4878_10551" x1="113.123" y1="109.848" x2="113.123" y2="116.076" gradientUnits="userSpaceOnUse">
<stop stop-color="#B4BFD0"/>
<stop offset="1" stop-color="#8297B7"/>
</linearGradient>
<linearGradient id="paint10_linear_4878_10551" x1="113" y1="110" x2="113" y2="116" gradientUnits="userSpaceOnUse">
<stop stop-color="white"/>
<stop offset="1" stop-color="white" stop-opacity="0"/>
</linearGradient>
<linearGradient id="paint11_linear_4878_10551" x1="113.123" y1="15.8481" x2="113.123" y2="22.0759" gradientUnits="userSpaceOnUse">
<stop stop-color="#B4BFD0"/>
<stop offset="1" stop-color="#8297B7"/>
</linearGradient>
<linearGradient id="paint12_linear_4878_10551" x1="113" y1="16" x2="113" y2="22" gradientUnits="userSpaceOnUse">
<stop stop-color="white"/>
<stop offset="1" stop-color="white" stop-opacity="0"/>
</linearGradient>
<clipPath id="clip0_4878_10551">
<rect width="132" height="132" fill="white"/>
</clipPath>
</defs>
</svg>
