<svg width="132" height="132" viewBox="0 0 132 132" fill="none" xmlns="http://www.w3.org/2000/svg">
<g clip-path="url(#clip0_1465_7128)">
<rect x="0.5" y="0.5" width="131" height="131" rx="27.5" fill="url(#paint0_linear_1465_7128)" stroke="url(#paint1_linear_1465_7128)"/>
<g filter="url(#filter0_dd_1465_7128)">
<mask id="path-2-outside-1_1465_7128" maskUnits="userSpaceOnUse" x="29" y="29" width="75" height="75" fill="black">
<rect fill="white" x="29" y="29" width="75" height="75"/>
<path d="M66.4629 102.611C61.4655 102.611 56.765 101.659 52.3613 99.7539C47.9824 97.8737 44.123 95.2637 40.7832 91.9238C37.4434 88.584 34.821 84.7246 32.916 80.3457C31.0358 75.9421 30.0957 71.2415 30.0957 66.2441C30.0957 61.2467 31.0358 56.5586 32.916 52.1797C34.821 47.776 37.4434 43.9043 40.7832 40.5645C44.123 37.2246 47.9824 34.6146 52.3613 32.7344C56.765 30.8294 61.4655 29.877 66.4629 29.877C71.4603 29.877 76.1484 30.8294 80.5273 32.7344C84.931 34.6146 88.8027 37.2246 92.1426 40.5645C95.4824 43.9043 98.1048 47.776 100.01 52.1797C101.915 56.5586 102.867 61.2467 102.867 66.2441C102.867 71.2415 101.915 75.9421 100.01 80.3457C98.1048 84.7246 95.4824 88.584 92.1426 91.9238C88.8027 95.2637 84.9434 97.8737 80.5645 99.7539C76.1855 101.659 71.485 102.611 66.4629 102.611ZM48.7988 79.7891H84.127C84.5723 79.7891 84.9186 79.6654 85.166 79.418C85.4134 79.1706 85.5371 78.849 85.5371 78.4531C85.5371 77.3893 85.1536 76.3997 84.3867 75.4844C83.6445 74.569 82.8405 73.6413 81.9746 72.7012C81.2572 71.9095 80.75 70.8828 80.4531 69.6211C80.181 68.3594 79.9831 66.9863 79.8594 65.502C79.7357 63.9928 79.5749 62.4961 79.377 61.0117C79.0801 58.1419 78.3379 55.6803 77.1504 53.627C75.9876 51.5736 74.1569 50.2129 71.6582 49.5449C71.4108 48.11 70.8171 46.9473 69.877 46.0566C68.9368 45.166 67.7988 44.7207 66.4629 44.7207C65.127 44.7207 63.9889 45.166 63.0488 46.0566C62.1087 46.9473 61.5273 48.11 61.3047 49.5449C58.806 50.2129 56.9629 51.5736 55.7754 53.627C54.6126 55.6803 53.8704 58.1419 53.5488 61.0117C53.3509 62.4961 53.1901 63.9928 53.0664 65.502C52.9427 66.9863 52.7324 68.3594 52.4355 69.6211C52.1634 70.8828 51.6686 71.9095 50.9512 72.7012C50.1348 73.6413 49.3307 74.569 48.5391 75.4844C47.7721 76.3997 47.3887 77.3893 47.3887 78.4531C47.3887 78.849 47.5124 79.1706 47.7598 79.418C48.0072 79.6654 48.3535 79.7891 48.7988 79.7891ZM66.4629 87.5449C68.0462 87.5449 69.3451 87.0749 70.3594 86.1348C71.3737 85.1947 71.9798 83.9329 72.1777 82.3496H60.748C60.946 83.9329 61.5521 85.1947 62.5664 86.1348C63.5807 87.0749 64.8796 87.5449 66.4629 87.5449Z"/>
</mask>
<path d="M66.4629 102.611C61.4655 102.611 56.765 101.659 52.3613 99.7539C47.9824 97.8737 44.123 95.2637 40.7832 91.9238C37.4434 88.584 34.821 84.7246 32.916 80.3457C31.0358 75.9421 30.0957 71.2415 30.0957 66.2441C30.0957 61.2467 31.0358 56.5586 32.916 52.1797C34.821 47.776 37.4434 43.9043 40.7832 40.5645C44.123 37.2246 47.9824 34.6146 52.3613 32.7344C56.765 30.8294 61.4655 29.877 66.4629 29.877C71.4603 29.877 76.1484 30.8294 80.5273 32.7344C84.931 34.6146 88.8027 37.2246 92.1426 40.5645C95.4824 43.9043 98.1048 47.776 100.01 52.1797C101.915 56.5586 102.867 61.2467 102.867 66.2441C102.867 71.2415 101.915 75.9421 100.01 80.3457C98.1048 84.7246 95.4824 88.584 92.1426 91.9238C88.8027 95.2637 84.9434 97.8737 80.5645 99.7539C76.1855 101.659 71.485 102.611 66.4629 102.611ZM48.7988 79.7891H84.127C84.5723 79.7891 84.9186 79.6654 85.166 79.418C85.4134 79.1706 85.5371 78.849 85.5371 78.4531C85.5371 77.3893 85.1536 76.3997 84.3867 75.4844C83.6445 74.569 82.8405 73.6413 81.9746 72.7012C81.2572 71.9095 80.75 70.8828 80.4531 69.6211C80.181 68.3594 79.9831 66.9863 79.8594 65.502C79.7357 63.9928 79.5749 62.4961 79.377 61.0117C79.0801 58.1419 78.3379 55.6803 77.1504 53.627C75.9876 51.5736 74.1569 50.2129 71.6582 49.5449C71.4108 48.11 70.8171 46.9473 69.877 46.0566C68.9368 45.166 67.7988 44.7207 66.4629 44.7207C65.127 44.7207 63.9889 45.166 63.0488 46.0566C62.1087 46.9473 61.5273 48.11 61.3047 49.5449C58.806 50.2129 56.9629 51.5736 55.7754 53.627C54.6126 55.6803 53.8704 58.1419 53.5488 61.0117C53.3509 62.4961 53.1901 63.9928 53.0664 65.502C52.9427 66.9863 52.7324 68.3594 52.4355 69.6211C52.1634 70.8828 51.6686 71.9095 50.9512 72.7012C50.1348 73.6413 49.3307 74.569 48.5391 75.4844C47.7721 76.3997 47.3887 77.3893 47.3887 78.4531C47.3887 78.849 47.5124 79.1706 47.7598 79.418C48.0072 79.6654 48.3535 79.7891 48.7988 79.7891ZM66.4629 87.5449C68.0462 87.5449 69.3451 87.0749 70.3594 86.1348C71.3737 85.1947 71.9798 83.9329 72.1777 82.3496H60.748C60.946 83.9329 61.5521 85.1947 62.5664 86.1348C63.5807 87.0749 64.8796 87.5449 66.4629 87.5449Z" fill="url(#paint2_radial_1465_7128)" shape-rendering="crispEdges"/>
<path d="M52.3613 99.7539L52.5598 99.295L52.5586 99.2945L52.3613 99.7539ZM32.916 80.3457L32.4562 80.542L32.4575 80.5452L32.916 80.3457ZM32.916 52.1797L32.4571 51.9812L32.4566 51.9824L32.916 52.1797ZM52.3613 32.7344L52.5586 33.1938L52.5598 33.1933L52.3613 32.7344ZM80.5273 32.7344L80.3279 33.1929L80.331 33.1942L80.5273 32.7344ZM100.01 52.1797L99.5509 52.3782L99.5513 52.3791L100.01 52.1797ZM100.01 80.3457L100.468 80.5452L100.469 80.5442L100.01 80.3457ZM80.5645 99.7539L80.3672 99.2945L80.365 99.2954L80.5645 99.7539ZM84.3867 75.4844L83.9983 75.7993L84.0035 75.8055L84.3867 75.4844ZM81.9746 72.7012L81.6041 73.0369L81.6068 73.0399L81.9746 72.7012ZM80.4531 69.6211L79.9643 69.7265L79.9664 69.7356L80.4531 69.6211ZM79.8594 65.502L79.361 65.5428L79.3611 65.5435L79.8594 65.502ZM79.377 61.0117L78.8796 61.0632L78.8804 61.0705L78.8813 61.0778L79.377 61.0117ZM77.1504 53.627L76.7153 53.8733L76.7176 53.8773L77.1504 53.627ZM71.6582 49.5449L71.1655 49.6299L71.2199 49.9453L71.5291 50.028L71.6582 49.5449ZM61.3047 49.5449L61.4338 50.028L61.7488 49.9438L61.7988 49.6216L61.3047 49.5449ZM55.7754 53.627L55.3425 53.3766L55.3403 53.3806L55.7754 53.627ZM53.5488 61.0117L54.0445 61.0778L54.0457 61.0674L53.5488 61.0117ZM53.0664 65.502L53.5647 65.5435L53.5647 65.5428L53.0664 65.502ZM52.4355 69.6211L51.9488 69.5066L51.9468 69.5157L52.4355 69.6211ZM50.9512 72.7012L50.5806 72.3653L50.5737 72.3733L50.9512 72.7012ZM48.5391 75.4844L48.1608 75.1573L48.1558 75.1633L48.5391 75.4844ZM72.1777 82.3496L72.6739 82.4116L72.7441 81.8496H72.1777V82.3496ZM60.748 82.3496V81.8496H60.1817L60.2519 82.4116L60.748 82.3496ZM66.4629 102.111C61.5309 102.111 56.8982 101.172 52.5598 99.295L52.1628 100.213C56.6317 102.146 61.4001 103.111 66.4629 103.111V102.111ZM52.5586 99.2945C48.2375 97.4391 44.4313 94.8648 41.1368 91.5703L40.4296 92.2774C43.8148 95.6625 47.7273 98.3083 52.1641 100.213L52.5586 99.2945ZM41.1368 91.5703C37.8417 88.2753 35.2547 84.4683 33.3745 80.1462L32.4575 80.5452C34.3872 84.9809 37.045 88.8927 40.4296 92.2774L41.1368 91.5703ZM33.3759 80.1494C31.5233 75.8105 30.5957 71.1771 30.5957 66.2441H29.5957C29.5957 71.306 30.5483 76.0736 32.4562 80.542L33.3759 80.1494ZM30.5957 66.2441C30.5957 61.3112 31.5233 56.6905 33.3755 52.377L32.4566 51.9824C30.5483 56.4267 29.5957 61.1823 29.5957 66.2441H30.5957ZM33.3749 52.3782C35.2552 48.0315 37.8422 44.2126 41.1368 40.918L40.4296 40.2109C37.0445 43.596 34.3867 47.5206 32.4571 51.9812L33.3749 52.3782ZM41.1368 40.918C44.4313 37.6235 48.2375 35.0492 52.5586 33.1938L52.1641 32.2749C47.7273 34.18 43.8148 36.8257 40.4296 40.2109L41.1368 40.918ZM52.5598 33.1933C56.8982 31.3166 61.5309 30.377 66.4629 30.377V29.377C61.4001 29.377 56.6317 30.3423 52.1628 32.2755L52.5598 33.1933ZM66.4629 30.377C71.3949 30.377 76.0148 31.3166 80.3279 33.1929L80.7268 32.2759C76.282 30.3423 71.5257 29.377 66.4629 29.377V30.377ZM80.331 33.1942C84.6768 35.0497 88.495 37.6239 91.789 40.918L92.4961 40.2109C89.1105 36.8253 85.1852 34.1795 80.7237 32.2745L80.331 33.1942ZM91.789 40.918C95.0836 44.2126 97.6705 48.0315 99.5509 52.3782L100.469 51.9812C98.5391 47.5206 95.8813 43.596 92.4961 40.2109L91.789 40.918ZM99.5513 52.3791C101.428 56.6922 102.367 61.3121 102.367 66.2441H103.367C103.367 61.1814 102.402 56.425 100.468 51.9802L99.5513 52.3791ZM102.367 66.2441C102.367 71.1762 101.428 75.8088 99.5509 80.1472L100.469 80.5442C102.402 76.0753 103.367 71.3069 103.367 66.2441H102.367ZM99.5513 80.1462C97.6711 84.4683 95.084 88.2753 91.789 91.5703L92.4961 92.2774C95.8808 88.8927 98.5386 84.9809 100.468 80.5452L99.5513 80.1462ZM91.789 91.5703C88.4945 94.8648 84.6883 97.4391 80.3672 99.2945L80.7617 100.213C85.1984 98.3083 89.111 95.6625 92.4961 92.2774L91.789 91.5703ZM80.365 99.2954C76.0523 101.172 71.42 102.111 66.4629 102.111V103.111C71.55 103.111 76.3188 102.146 80.7639 100.212L80.365 99.2954ZM48.7988 80.2891H84.127V79.2891H48.7988V80.2891ZM84.127 80.2891C84.6669 80.2891 85.1546 80.1365 85.5196 79.7715L84.8125 79.0644C84.6827 79.1942 84.4776 79.2891 84.127 79.2891V80.2891ZM85.5196 79.7715C85.8734 79.4177 86.0371 78.9626 86.0371 78.4531H85.0371C85.0371 78.7353 84.9535 78.9234 84.8125 79.0644L85.5196 79.7715ZM86.0371 78.4531C86.0371 77.2574 85.6025 76.1569 84.77 75.1633L84.0035 75.8055C84.7048 76.6426 85.0371 77.5212 85.0371 78.4531H86.0371ZM84.7751 75.1695C84.0258 74.2453 83.2148 73.3096 82.3424 72.3624L81.6068 73.0399C82.4662 73.9729 83.2633 74.8927 83.9983 75.7993L84.7751 75.1695ZM82.3451 72.3654C81.6954 71.6485 81.2214 70.7034 80.9398 69.5066L79.9664 69.7356C80.2786 71.0623 80.8189 72.1705 81.6041 73.0369L82.3451 72.3654ZM80.9419 69.5157C80.6749 68.2779 80.4798 66.9265 80.3576 65.4604L79.3611 65.5435C79.4863 67.0461 79.6871 68.4408 79.9644 69.7265L80.9419 69.5157ZM80.3577 65.4611C80.2333 63.9437 80.0716 62.4385 79.8726 60.9456L78.8813 61.0778C79.0781 62.5537 79.238 64.042 79.361 65.5428L80.3577 65.4611ZM79.8743 60.9603C79.5717 58.0352 78.8128 55.5027 77.5832 53.3766L76.7176 53.8773C77.863 55.8579 78.5884 58.2486 78.8796 61.0632L79.8743 60.9603ZM77.5855 53.3806C76.3499 51.1986 74.4019 49.7608 71.7873 49.0619L71.5291 50.028C73.9119 50.665 75.6253 51.9485 76.7153 53.8733L77.5855 53.3806ZM72.1509 49.46C71.8876 47.9326 71.2489 46.6676 70.2208 45.6937L69.5331 46.4196C70.3852 47.2269 70.934 48.2874 71.1655 49.6299L72.1509 49.46ZM70.2208 45.6937C69.1846 44.712 67.9223 44.2207 66.4629 44.2207V45.2207C67.6754 45.2207 68.6891 45.62 69.5331 46.4196L70.2208 45.6937ZM66.4629 44.2207C65.0035 44.2207 63.7411 44.712 62.705 45.6937L63.3927 46.4196C64.2367 45.62 65.2504 45.2207 66.4629 45.2207V44.2207ZM62.705 45.6937C61.6748 46.6696 61.0481 47.9379 60.8106 49.4683L61.7988 49.6216C62.0066 48.2821 62.5427 47.2249 63.3927 46.4196L62.705 45.6937ZM61.1756 49.0619C58.5615 49.7607 56.6028 51.1975 55.3426 53.3766L56.2082 53.8773C57.323 51.9496 59.0505 50.6651 61.4338 50.028L61.1756 49.0619ZM55.3403 53.3806C54.1377 55.5043 53.3794 58.0338 53.0519 60.956L54.0457 61.0674C54.3615 58.2501 55.0875 55.8564 56.2105 53.8733L55.3403 53.3806ZM53.0532 60.9456C52.8542 62.4385 52.6925 63.9437 52.5681 65.4611L53.5647 65.5428C53.6877 64.042 53.8477 62.5537 54.0444 61.0778L53.0532 60.9456ZM52.5681 65.4604C52.4462 66.9238 52.2393 68.2721 51.9488 69.5066L52.9223 69.7356C53.2255 68.4466 53.4392 67.0489 53.5647 65.5435L52.5681 65.4604ZM51.9468 69.5157C51.6893 70.7094 51.228 71.6511 50.5807 72.3654L51.3217 73.0369C52.1092 72.1679 52.6375 71.0562 52.9243 69.7265L51.9468 69.5157ZM50.5737 72.3733C49.757 73.3137 48.9528 74.2417 48.1609 75.1573L48.9172 75.8115C49.7087 74.8964 50.5125 73.9689 51.3287 73.029L50.5737 72.3733ZM48.1558 75.1633C47.3233 76.1569 46.8887 77.2574 46.8887 78.4531H47.8887C47.8887 77.5212 48.221 76.6426 48.9223 75.8055L48.1558 75.1633ZM46.8887 78.4531C46.8887 78.9626 47.0524 79.4177 47.4062 79.7715L48.1133 79.0644C47.9723 78.9234 47.8887 78.7353 47.8887 78.4531H46.8887ZM47.4062 79.7715C47.7712 80.1365 48.2589 80.2891 48.7988 80.2891V79.2891C48.4481 79.2891 48.2431 79.1942 48.1133 79.0644L47.4062 79.7715ZM66.4629 88.0449C68.1527 88.0449 69.5791 87.5397 70.6993 86.5015L70.0195 85.7681C69.111 86.61 67.9398 87.0449 66.4629 87.0449V88.0449ZM70.6993 86.5015C71.813 85.4693 72.4637 84.0928 72.6739 82.4116L71.6816 82.2876C71.4959 83.7731 70.9344 84.9201 70.0195 85.7681L70.6993 86.5015ZM72.1777 81.8496H60.748V82.8496H72.1777V81.8496ZM60.2519 82.4116C60.4621 84.0928 61.1128 85.4693 62.2265 86.5015L62.9063 85.7681C61.9913 84.9201 61.4299 83.7731 61.2442 82.2876L60.2519 82.4116ZM62.2265 86.5015C63.3467 87.5397 64.7731 88.0449 66.4629 88.0449V87.0449C64.986 87.0449 63.8147 86.61 62.9063 85.7681L62.2265 86.5015Z" fill="url(#paint3_linear_1465_7128)" mask="url(#path-2-outside-1_1465_7128)"/>
<path d="M52.3613 99.7539L52.5598 99.295L52.5586 99.2945L52.3613 99.7539ZM32.916 80.3457L32.4562 80.542L32.4575 80.5452L32.916 80.3457ZM32.916 52.1797L32.4571 51.9812L32.4566 51.9824L32.916 52.1797ZM52.3613 32.7344L52.5586 33.1938L52.5598 33.1933L52.3613 32.7344ZM80.5273 32.7344L80.3279 33.1929L80.331 33.1942L80.5273 32.7344ZM100.01 52.1797L99.5509 52.3782L99.5513 52.3791L100.01 52.1797ZM100.01 80.3457L100.468 80.5452L100.469 80.5442L100.01 80.3457ZM80.5645 99.7539L80.3672 99.2945L80.365 99.2954L80.5645 99.7539ZM84.3867 75.4844L83.9983 75.7993L84.0035 75.8055L84.3867 75.4844ZM81.9746 72.7012L81.6041 73.0369L81.6068 73.0399L81.9746 72.7012ZM80.4531 69.6211L79.9643 69.7265L79.9664 69.7356L80.4531 69.6211ZM79.8594 65.502L79.361 65.5428L79.3611 65.5435L79.8594 65.502ZM79.377 61.0117L78.8796 61.0632L78.8804 61.0705L78.8813 61.0778L79.377 61.0117ZM77.1504 53.627L76.7153 53.8733L76.7176 53.8773L77.1504 53.627ZM71.6582 49.5449L71.1655 49.6299L71.2199 49.9453L71.5291 50.028L71.6582 49.5449ZM61.3047 49.5449L61.4338 50.028L61.7488 49.9438L61.7988 49.6216L61.3047 49.5449ZM55.7754 53.627L55.3425 53.3766L55.3403 53.3806L55.7754 53.627ZM53.5488 61.0117L54.0445 61.0778L54.0457 61.0674L53.5488 61.0117ZM53.0664 65.502L53.5647 65.5435L53.5647 65.5428L53.0664 65.502ZM52.4355 69.6211L51.9488 69.5066L51.9468 69.5157L52.4355 69.6211ZM50.9512 72.7012L50.5806 72.3653L50.5737 72.3733L50.9512 72.7012ZM48.5391 75.4844L48.1608 75.1573L48.1558 75.1633L48.5391 75.4844ZM72.1777 82.3496L72.6739 82.4116L72.7441 81.8496H72.1777V82.3496ZM60.748 82.3496V81.8496H60.1817L60.2519 82.4116L60.748 82.3496ZM66.4629 102.111C61.5309 102.111 56.8982 101.172 52.5598 99.295L52.1628 100.213C56.6317 102.146 61.4001 103.111 66.4629 103.111V102.111ZM52.5586 99.2945C48.2375 97.4391 44.4313 94.8648 41.1368 91.5703L40.4296 92.2774C43.8148 95.6625 47.7273 98.3083 52.1641 100.213L52.5586 99.2945ZM41.1368 91.5703C37.8417 88.2753 35.2547 84.4683 33.3745 80.1462L32.4575 80.5452C34.3872 84.9809 37.045 88.8927 40.4296 92.2774L41.1368 91.5703ZM33.3759 80.1494C31.5233 75.8105 30.5957 71.1771 30.5957 66.2441H29.5957C29.5957 71.306 30.5483 76.0736 32.4562 80.542L33.3759 80.1494ZM30.5957 66.2441C30.5957 61.3112 31.5233 56.6905 33.3755 52.377L32.4566 51.9824C30.5483 56.4267 29.5957 61.1823 29.5957 66.2441H30.5957ZM33.3749 52.3782C35.2552 48.0315 37.8422 44.2126 41.1368 40.918L40.4296 40.2109C37.0445 43.596 34.3867 47.5206 32.4571 51.9812L33.3749 52.3782ZM41.1368 40.918C44.4313 37.6235 48.2375 35.0492 52.5586 33.1938L52.1641 32.2749C47.7273 34.18 43.8148 36.8257 40.4296 40.2109L41.1368 40.918ZM52.5598 33.1933C56.8982 31.3166 61.5309 30.377 66.4629 30.377V29.377C61.4001 29.377 56.6317 30.3423 52.1628 32.2755L52.5598 33.1933ZM66.4629 30.377C71.3949 30.377 76.0148 31.3166 80.3279 33.1929L80.7268 32.2759C76.282 30.3423 71.5257 29.377 66.4629 29.377V30.377ZM80.331 33.1942C84.6768 35.0497 88.495 37.6239 91.789 40.918L92.4961 40.2109C89.1105 36.8253 85.1852 34.1795 80.7237 32.2745L80.331 33.1942ZM91.789 40.918C95.0836 44.2126 97.6705 48.0315 99.5509 52.3782L100.469 51.9812C98.5391 47.5206 95.8813 43.596 92.4961 40.2109L91.789 40.918ZM99.5513 52.3791C101.428 56.6922 102.367 61.3121 102.367 66.2441H103.367C103.367 61.1814 102.402 56.425 100.468 51.9802L99.5513 52.3791ZM102.367 66.2441C102.367 71.1762 101.428 75.8088 99.5509 80.1472L100.469 80.5442C102.402 76.0753 103.367 71.3069 103.367 66.2441H102.367ZM99.5513 80.1462C97.6711 84.4683 95.084 88.2753 91.789 91.5703L92.4961 92.2774C95.8808 88.8927 98.5386 84.9809 100.468 80.5452L99.5513 80.1462ZM91.789 91.5703C88.4945 94.8648 84.6883 97.4391 80.3672 99.2945L80.7617 100.213C85.1984 98.3083 89.111 95.6625 92.4961 92.2774L91.789 91.5703ZM80.365 99.2954C76.0523 101.172 71.42 102.111 66.4629 102.111V103.111C71.55 103.111 76.3188 102.146 80.7639 100.212L80.365 99.2954ZM48.7988 80.2891H84.127V79.2891H48.7988V80.2891ZM84.127 80.2891C84.6669 80.2891 85.1546 80.1365 85.5196 79.7715L84.8125 79.0644C84.6827 79.1942 84.4776 79.2891 84.127 79.2891V80.2891ZM85.5196 79.7715C85.8734 79.4177 86.0371 78.9626 86.0371 78.4531H85.0371C85.0371 78.7353 84.9535 78.9234 84.8125 79.0644L85.5196 79.7715ZM86.0371 78.4531C86.0371 77.2574 85.6025 76.1569 84.77 75.1633L84.0035 75.8055C84.7048 76.6426 85.0371 77.5212 85.0371 78.4531H86.0371ZM84.7751 75.1695C84.0258 74.2453 83.2148 73.3096 82.3424 72.3624L81.6068 73.0399C82.4662 73.9729 83.2633 74.8927 83.9983 75.7993L84.7751 75.1695ZM82.3451 72.3654C81.6954 71.6485 81.2214 70.7034 80.9398 69.5066L79.9664 69.7356C80.2786 71.0623 80.8189 72.1705 81.6041 73.0369L82.3451 72.3654ZM80.9419 69.5157C80.6749 68.2779 80.4798 66.9265 80.3576 65.4604L79.3611 65.5435C79.4863 67.0461 79.6871 68.4408 79.9644 69.7265L80.9419 69.5157ZM80.3577 65.4611C80.2333 63.9437 80.0716 62.4385 79.8726 60.9456L78.8813 61.0778C79.0781 62.5537 79.238 64.042 79.361 65.5428L80.3577 65.4611ZM79.8743 60.9603C79.5717 58.0352 78.8128 55.5027 77.5832 53.3766L76.7176 53.8773C77.863 55.8579 78.5884 58.2486 78.8796 61.0632L79.8743 60.9603ZM77.5855 53.3806C76.3499 51.1986 74.4019 49.7608 71.7873 49.0619L71.5291 50.028C73.9119 50.665 75.6253 51.9485 76.7153 53.8733L77.5855 53.3806ZM72.1509 49.46C71.8876 47.9326 71.2489 46.6676 70.2208 45.6937L69.5331 46.4196C70.3852 47.2269 70.934 48.2874 71.1655 49.6299L72.1509 49.46ZM70.2208 45.6937C69.1846 44.712 67.9223 44.2207 66.4629 44.2207V45.2207C67.6754 45.2207 68.6891 45.62 69.5331 46.4196L70.2208 45.6937ZM66.4629 44.2207C65.0035 44.2207 63.7411 44.712 62.705 45.6937L63.3927 46.4196C64.2367 45.62 65.2504 45.2207 66.4629 45.2207V44.2207ZM62.705 45.6937C61.6748 46.6696 61.0481 47.9379 60.8106 49.4683L61.7988 49.6216C62.0066 48.2821 62.5427 47.2249 63.3927 46.4196L62.705 45.6937ZM61.1756 49.0619C58.5615 49.7607 56.6028 51.1975 55.3426 53.3766L56.2082 53.8773C57.323 51.9496 59.0505 50.6651 61.4338 50.028L61.1756 49.0619ZM55.3403 53.3806C54.1377 55.5043 53.3794 58.0338 53.0519 60.956L54.0457 61.0674C54.3615 58.2501 55.0875 55.8564 56.2105 53.8733L55.3403 53.3806ZM53.0532 60.9456C52.8542 62.4385 52.6925 63.9437 52.5681 65.4611L53.5647 65.5428C53.6877 64.042 53.8477 62.5537 54.0444 61.0778L53.0532 60.9456ZM52.5681 65.4604C52.4462 66.9238 52.2393 68.2721 51.9488 69.5066L52.9223 69.7356C53.2255 68.4466 53.4392 67.0489 53.5647 65.5435L52.5681 65.4604ZM51.9468 69.5157C51.6893 70.7094 51.228 71.6511 50.5807 72.3654L51.3217 73.0369C52.1092 72.1679 52.6375 71.0562 52.9243 69.7265L51.9468 69.5157ZM50.5737 72.3733C49.757 73.3137 48.9528 74.2417 48.1609 75.1573L48.9172 75.8115C49.7087 74.8964 50.5125 73.9689 51.3287 73.029L50.5737 72.3733ZM48.1558 75.1633C47.3233 76.1569 46.8887 77.2574 46.8887 78.4531H47.8887C47.8887 77.5212 48.221 76.6426 48.9223 75.8055L48.1558 75.1633ZM46.8887 78.4531C46.8887 78.9626 47.0524 79.4177 47.4062 79.7715L48.1133 79.0644C47.9723 78.9234 47.8887 78.7353 47.8887 78.4531H46.8887ZM47.4062 79.7715C47.7712 80.1365 48.2589 80.2891 48.7988 80.2891V79.2891C48.4481 79.2891 48.2431 79.1942 48.1133 79.0644L47.4062 79.7715ZM66.4629 88.0449C68.1527 88.0449 69.5791 87.5397 70.6993 86.5015L70.0195 85.7681C69.111 86.61 67.9398 87.0449 66.4629 87.0449V88.0449ZM70.6993 86.5015C71.813 85.4693 72.4637 84.0928 72.6739 82.4116L71.6816 82.2876C71.4959 83.7731 70.9344 84.9201 70.0195 85.7681L70.6993 86.5015ZM72.1777 81.8496H60.748V82.8496H72.1777V81.8496ZM60.2519 82.4116C60.4621 84.0928 61.1128 85.4693 62.2265 86.5015L62.9063 85.7681C61.9913 84.9201 61.4299 83.7731 61.2442 82.2876L60.2519 82.4116ZM62.2265 86.5015C63.3467 87.5397 64.7731 88.0449 66.4629 88.0449V87.0449C64.986 87.0449 63.8147 86.61 62.9063 85.7681L62.2265 86.5015Z" fill="url(#paint4_linear_1465_7128)" mask="url(#path-2-outside-1_1465_7128)"/>
</g>
<g filter="url(#filter1_d_1465_7128)">
<circle cx="19" cy="113" r="3" fill="url(#paint5_linear_1465_7128)" shape-rendering="crispEdges"/>
<circle cx="19" cy="113" r="3.25" stroke="url(#paint6_linear_1465_7128)" stroke-width="0.5" shape-rendering="crispEdges"/>
</g>
<g filter="url(#filter2_d_1465_7128)">
<circle cx="19" cy="19" r="3" fill="url(#paint7_linear_1465_7128)" shape-rendering="crispEdges"/>
<circle cx="19" cy="19" r="3.25" stroke="url(#paint8_linear_1465_7128)" stroke-width="0.5" shape-rendering="crispEdges"/>
</g>
<g filter="url(#filter3_d_1465_7128)">
<circle cx="113" cy="113" r="3" fill="url(#paint9_linear_1465_7128)" shape-rendering="crispEdges"/>
<circle cx="113" cy="113" r="3.25" stroke="url(#paint10_linear_1465_7128)" stroke-width="0.5" shape-rendering="crispEdges"/>
</g>
<g filter="url(#filter4_d_1465_7128)">
<circle cx="113" cy="19" r="3" fill="url(#paint11_linear_1465_7128)" shape-rendering="crispEdges"/>
<circle cx="113" cy="19" r="3.25" stroke="url(#paint12_linear_1465_7128)" stroke-width="0.5" shape-rendering="crispEdges"/>
</g>
</g>
<defs>
<filter id="filter0_dd_1465_7128" x="-9.9043" y="-18.123" width="152.771" height="152.734" filterUnits="userSpaceOnUse" color-interpolation-filters="sRGB">
<feFlood flood-opacity="0" result="BackgroundImageFix"/>
<feColorMatrix in="SourceAlpha" type="matrix" values="0 0 0 0 0 0 0 0 0 0 0 0 0 0 0 0 0 0 127 0" result="hardAlpha"/>
<feOffset dy="12"/>
<feGaussianBlur stdDeviation="8"/>
<feComposite in2="hardAlpha" operator="out"/>
<feColorMatrix type="matrix" values="0 0 0 0 0.535937 0 0 0 0 0.57861 0 0 0 0 0.639063 0 0 0 0.16 0"/>
<feBlend mode="color-burn" in2="BackgroundImageFix" result="effect1_dropShadow_1465_7128"/>
<feColorMatrix in="SourceAlpha" type="matrix" values="0 0 0 0 0 0 0 0 0 0 0 0 0 0 0 0 0 0 127 0" result="hardAlpha"/>
<feOffset dy="-8"/>
<feGaussianBlur stdDeviation="20"/>
<feComposite in2="hardAlpha" operator="out"/>
<feColorMatrix type="matrix" values="0 0 0 0 0.691667 0 0 0 0 0.739333 0 0 0 0 0.908333 0 0 0 0.42 0"/>
<feBlend mode="normal" in2="effect1_dropShadow_1465_7128" result="effect2_dropShadow_1465_7128"/>
<feBlend mode="normal" in="SourceGraphic" in2="effect2_dropShadow_1465_7128" result="shape"/>
</filter>
<filter id="filter1_d_1465_7128" x="-0.5" y="105.5" width="39" height="39" filterUnits="userSpaceOnUse" color-interpolation-filters="sRGB">
<feFlood flood-opacity="0" result="BackgroundImageFix"/>
<feColorMatrix in="SourceAlpha" type="matrix" values="0 0 0 0 0 0 0 0 0 0 0 0 0 0 0 0 0 0 127 0" result="hardAlpha"/>
<feOffset dy="12"/>
<feGaussianBlur stdDeviation="8"/>
<feComposite in2="hardAlpha" operator="out"/>
<feColorMatrix type="matrix" values="0 0 0 0 0.535937 0 0 0 0 0.57861 0 0 0 0 0.639063 0 0 0 0.1 0"/>
<feBlend mode="color-burn" in2="BackgroundImageFix" result="effect1_dropShadow_1465_7128"/>
<feBlend mode="normal" in="SourceGraphic" in2="effect1_dropShadow_1465_7128" result="shape"/>
</filter>
<filter id="filter2_d_1465_7128" x="-0.5" y="11.5" width="39" height="39" filterUnits="userSpaceOnUse" color-interpolation-filters="sRGB">
<feFlood flood-opacity="0" result="BackgroundImageFix"/>
<feColorMatrix in="SourceAlpha" type="matrix" values="0 0 0 0 0 0 0 0 0 0 0 0 0 0 0 0 0 0 127 0" result="hardAlpha"/>
<feOffset dy="12"/>
<feGaussianBlur stdDeviation="8"/>
<feComposite in2="hardAlpha" operator="out"/>
<feColorMatrix type="matrix" values="0 0 0 0 0.535937 0 0 0 0 0.57861 0 0 0 0 0.639063 0 0 0 0.1 0"/>
<feBlend mode="color-burn" in2="BackgroundImageFix" result="effect1_dropShadow_1465_7128"/>
<feBlend mode="normal" in="SourceGraphic" in2="effect1_dropShadow_1465_7128" result="shape"/>
</filter>
<filter id="filter3_d_1465_7128" x="93.5" y="105.5" width="39" height="39" filterUnits="userSpaceOnUse" color-interpolation-filters="sRGB">
<feFlood flood-opacity="0" result="BackgroundImageFix"/>
<feColorMatrix in="SourceAlpha" type="matrix" values="0 0 0 0 0 0 0 0 0 0 0 0 0 0 0 0 0 0 127 0" result="hardAlpha"/>
<feOffset dy="12"/>
<feGaussianBlur stdDeviation="8"/>
<feComposite in2="hardAlpha" operator="out"/>
<feColorMatrix type="matrix" values="0 0 0 0 0.535937 0 0 0 0 0.57861 0 0 0 0 0.639063 0 0 0 0.1 0"/>
<feBlend mode="color-burn" in2="BackgroundImageFix" result="effect1_dropShadow_1465_7128"/>
<feBlend mode="normal" in="SourceGraphic" in2="effect1_dropShadow_1465_7128" result="shape"/>
</filter>
<filter id="filter4_d_1465_7128" x="93.5" y="11.5" width="39" height="39" filterUnits="userSpaceOnUse" color-interpolation-filters="sRGB">
<feFlood flood-opacity="0" result="BackgroundImageFix"/>
<feColorMatrix in="SourceAlpha" type="matrix" values="0 0 0 0 0 0 0 0 0 0 0 0 0 0 0 0 0 0 127 0" result="hardAlpha"/>
<feOffset dy="12"/>
<feGaussianBlur stdDeviation="8"/>
<feComposite in2="hardAlpha" operator="out"/>
<feColorMatrix type="matrix" values="0 0 0 0 0.535937 0 0 0 0 0.57861 0 0 0 0 0.639063 0 0 0 0.1 0"/>
<feBlend mode="color-burn" in2="BackgroundImageFix" result="effect1_dropShadow_1465_7128"/>
<feBlend mode="normal" in="SourceGraphic" in2="effect1_dropShadow_1465_7128" result="shape"/>
</filter>
<linearGradient id="paint0_linear_1465_7128" x1="68.7123" y1="-3.34177" x2="68.7123" y2="133.671" gradientUnits="userSpaceOnUse">
<stop stop-color="#DBE3EA"/>
<stop offset="1" stop-color="#AFBBCD"/>
</linearGradient>
<linearGradient id="paint1_linear_1465_7128" x1="66" y1="0" x2="66" y2="132" gradientUnits="userSpaceOnUse">
<stop stop-color="#F5F7F8"/>
<stop offset="1" stop-color="white" stop-opacity="0"/>
</linearGradient>
<radialGradient id="paint2_radial_1465_7128" cx="0" cy="0" r="1" gradientUnits="userSpaceOnUse" gradientTransform="translate(67.0959 93.6923) rotate(-90) scale(56.4231 90.0231)">
<stop stop-color="white"/>
<stop offset="0.297177" stop-color="white"/>
<stop offset="0.615948" stop-color="white" stop-opacity="0.71"/>
<stop offset="1" stop-color="white" stop-opacity="0.52"/>
</radialGradient>
<linearGradient id="paint3_linear_1465_7128" x1="66.5" y1="39" x2="66.5" y2="93.6923" gradientUnits="userSpaceOnUse">
<stop stop-color="white"/>
<stop offset="1" stop-color="white"/>
</linearGradient>
<linearGradient id="paint4_linear_1465_7128" x1="66.5" y1="39" x2="66.5" y2="93.6923" gradientUnits="userSpaceOnUse">
<stop stop-color="white"/>
<stop offset="1" stop-color="white" stop-opacity="0"/>
</linearGradient>
<linearGradient id="paint5_linear_1465_7128" x1="19.1233" y1="109.848" x2="19.1233" y2="116.076" gradientUnits="userSpaceOnUse">
<stop stop-color="#B4BFD0"/>
<stop offset="1" stop-color="#8297B7"/>
</linearGradient>
<linearGradient id="paint6_linear_1465_7128" x1="19" y1="110" x2="19" y2="116" gradientUnits="userSpaceOnUse">
<stop stop-color="white"/>
<stop offset="1" stop-color="white" stop-opacity="0"/>
</linearGradient>
<linearGradient id="paint7_linear_1465_7128" x1="19.1233" y1="15.8481" x2="19.1233" y2="22.0759" gradientUnits="userSpaceOnUse">
<stop stop-color="#B4BFD0"/>
<stop offset="1" stop-color="#8297B7"/>
</linearGradient>
<linearGradient id="paint8_linear_1465_7128" x1="19" y1="16" x2="19" y2="22" gradientUnits="userSpaceOnUse">
<stop stop-color="white"/>
<stop offset="1" stop-color="white" stop-opacity="0"/>
</linearGradient>
<linearGradient id="paint9_linear_1465_7128" x1="113.123" y1="109.848" x2="113.123" y2="116.076" gradientUnits="userSpaceOnUse">
<stop stop-color="#B4BFD0"/>
<stop offset="1" stop-color="#8297B7"/>
</linearGradient>
<linearGradient id="paint10_linear_1465_7128" x1="113" y1="110" x2="113" y2="116" gradientUnits="userSpaceOnUse">
<stop stop-color="white"/>
<stop offset="1" stop-color="white" stop-opacity="0"/>
</linearGradient>
<linearGradient id="paint11_linear_1465_7128" x1="113.123" y1="15.8481" x2="113.123" y2="22.0759" gradientUnits="userSpaceOnUse">
<stop stop-color="#B4BFD0"/>
<stop offset="1" stop-color="#8297B7"/>
</linearGradient>
<linearGradient id="paint12_linear_1465_7128" x1="113" y1="16" x2="113" y2="22" gradientUnits="userSpaceOnUse">
<stop stop-color="white"/>
<stop offset="1" stop-color="white" stop-opacity="0"/>
</linearGradient>
<clipPath id="clip0_1465_7128">
<rect width="132" height="132" fill="white"/>
</clipPath>
</defs>
</svg>
