<svg width="24" height="24" viewBox="0 0 24 24" fill="none" xmlns="http://www.w3.org/2000/svg">
<path d="M7.51543 10.1498C9.08717 7.74881 9.87304 6.54831 10.9028 6.18667C11.6115 5.93778 12.3885 5.93778 13.0972 6.18667C14.127 6.54831 14.9128 7.74881 16.4846 10.1498C18.2537 12.8523 19.1383 14.2036 18.9824 15.3186C18.8755 16.0833 18.4765 16.782 17.8633 17.2775C16.9695 18 15.313 18 12 18C8.68701 18 7.03052 18 6.13665 17.2775C5.52355 16.782 5.12443 16.0833 5.01756 15.3186C4.86177 14.2036 5.74632 12.8523 7.51543 10.1498Z" stroke="#11181C" stroke-width="1.5" stroke-linejoin="round"/>
<path d="M12 16V12" stroke="#11181C" stroke-width="1.5" stroke-linejoin="round"/>
<path d="M11.9919 10H12.0009" stroke="#11181C" stroke-width="2" stroke-linecap="round" stroke-linejoin="round"/>
</svg>
