<svg width="208" height="322" viewBox="0 0 208 322" fill="none" xmlns="http://www.w3.org/2000/svg">
<g clip-path="url(#clip0_5007_12876)">
<path d="M-6.91414e-06 320.5L208 320.5" stroke="#C1C8CD" stroke-width="0.8"/>
<path d="M84.3815 116.996L56.9865 289.797L33.8828 310.971C33.4111 311.403 33.0352 311.93 32.7796 312.518C32.524 313.106 32.3943 313.741 32.399 314.383V315.564C32.4078 316.77 32.8907 317.924 33.7424 318.774C34.5942 319.624 35.7457 320.101 36.9459 320.101H99.252C101.181 320.101 103.037 319.359 104.439 318.027C105.841 316.694 106.682 314.873 106.79 312.937L113.336 195.551L130.995 301.634L128.671 310.603C128.381 311.725 128.349 312.899 128.58 314.035C128.811 315.171 129.298 316.239 130.003 317.156C130.709 318.074 131.614 318.816 132.649 319.327C133.684 319.838 134.823 320.104 135.976 320.104H186.044C187.281 320.103 188.499 319.797 189.59 319.212C190.682 318.627 191.613 317.781 192.303 316.749C192.993 315.718 193.421 314.531 193.548 313.294C193.674 312.058 193.497 310.809 193.031 309.657L188.589 298.677L135.608 116.659L84.3815 116.996Z" fill="white"/>
<path d="M36.9624 320.5H99.2519C101.284 320.499 103.239 319.717 104.715 318.313C106.192 316.91 107.078 314.992 107.193 312.952L113.536 199.221L130.578 301.608L128.278 310.494C127.971 311.676 127.938 312.913 128.181 314.11C128.425 315.307 128.938 316.432 129.681 317.399C130.424 318.365 131.378 319.148 132.469 319.686C133.56 320.224 134.759 320.504 135.974 320.504H186.044C187.348 320.504 188.632 320.181 189.782 319.565C190.933 318.949 191.916 318.059 192.643 316.971C193.371 315.884 193.822 314.634 193.956 313.33C194.091 312.027 193.904 310.71 193.413 309.496L188.977 298.535L135.998 116.545C135.973 116.46 135.922 116.386 135.852 116.333C135.781 116.28 135.696 116.251 135.608 116.251L84.3814 116.589C84.2854 116.59 84.1928 116.625 84.12 116.688C84.0472 116.751 83.9991 116.838 83.9843 116.933L56.6206 289.584L33.6198 310.653C33.1064 311.125 32.6972 311.699 32.4188 312.34C32.1404 312.98 31.9989 313.673 32.0037 314.372L32.0129 315.551C32.0235 316.865 32.5492 318.121 33.4759 319.048C34.4025 319.974 35.6553 320.496 36.9624 320.5ZM113.334 195.137H113.312C113.212 195.143 113.118 195.185 113.048 195.256C112.977 195.327 112.935 195.421 112.929 195.521L106.384 312.906C106.281 314.738 105.485 316.46 104.159 317.721C102.833 318.981 101.077 319.684 99.2519 319.685H36.9624C35.8702 319.682 34.8232 319.246 34.048 318.473C33.2728 317.7 32.8316 316.65 32.82 315.553V314.373C32.8157 313.789 32.9338 313.21 33.1667 312.675C33.3995 312.139 33.7418 311.659 34.1714 311.265L57.2678 290.091C57.3356 290.029 57.3804 289.945 57.3946 289.854L84.7271 117.402L135.305 117.068L188.205 298.79C188.205 298.803 188.214 298.816 188.218 298.829L192.661 309.799C193.102 310.89 193.27 312.072 193.149 313.243C193.029 314.414 192.624 315.537 191.97 316.513C191.316 317.49 190.434 318.29 189.4 318.843C188.366 319.396 187.213 319.685 186.043 319.685H135.974C134.883 319.685 133.806 319.433 132.827 318.95C131.847 318.466 130.991 317.764 130.323 316.896C129.656 316.028 129.196 315.018 128.977 313.943C128.758 312.868 128.788 311.757 129.063 310.696L131.385 301.727C131.397 301.671 131.397 301.613 131.385 301.557L113.735 195.473C113.718 195.379 113.668 195.293 113.595 195.232C113.522 195.17 113.429 195.137 113.334 195.137Z" fill="#11181C"/>
<path d="M113.334 195.952C113.405 195.952 113.475 195.933 113.537 195.897C113.599 195.861 113.65 195.81 113.686 195.747C113.721 195.685 113.74 195.615 113.74 195.543C113.74 195.471 113.721 195.401 113.685 195.339C113.12 193.842 107.463 159.041 105.325 145.714C105.311 145.622 105.265 145.538 105.196 145.476L102.043 142.622C101.963 142.549 101.857 142.51 101.749 142.515C101.641 142.52 101.539 142.568 101.466 142.648C101.392 142.729 101.354 142.835 101.359 142.944C101.364 143.053 101.411 143.155 101.491 143.229L104.547 145.986C107.502 164.393 112.505 195.18 113.023 195.804C113.061 195.851 113.108 195.888 113.162 195.914C113.215 195.939 113.274 195.952 113.334 195.952Z" fill="#11181C"/>
<path d="M103.348 299.283C103.451 299.278 103.548 299.233 103.619 299.158C103.691 299.083 103.731 298.984 103.732 298.88C103.733 298.777 103.695 298.676 103.626 298.6C103.556 298.523 103.46 298.476 103.357 298.468C75.3999 297.845 57.3449 289.505 57.1666 289.412C57.1183 289.39 57.066 289.377 57.0128 289.374C56.9595 289.372 56.9063 289.38 56.8562 289.399C56.8061 289.417 56.7601 289.445 56.7207 289.481C56.6814 289.517 56.6495 289.561 56.627 289.609C56.6044 289.658 56.5916 289.71 56.5892 289.764C56.5868 289.817 56.5949 289.871 56.6131 289.921C56.6313 289.972 56.6592 290.018 56.6951 290.057C56.7311 290.097 56.7745 290.129 56.8228 290.152C57.0066 290.237 75.2087 298.653 103.339 299.276L103.348 299.283Z" fill="#11181C"/>
<path d="M156.449 303.595C166.143 303.595 176.899 302.828 185.452 300.224C185.505 300.21 185.555 300.186 185.598 300.152C185.642 300.119 185.678 300.077 185.705 300.029C185.732 299.981 185.749 299.928 185.755 299.874C185.761 299.819 185.756 299.764 185.74 299.711C185.724 299.658 185.698 299.609 185.663 299.567C185.628 299.525 185.585 299.49 185.536 299.465C185.488 299.44 185.435 299.425 185.38 299.421C185.325 299.417 185.271 299.424 185.219 299.442C164.728 305.685 131.381 301.27 131.047 301.226C130.94 301.211 130.832 301.24 130.747 301.305C130.661 301.371 130.605 301.468 130.591 301.575C130.576 301.682 130.605 301.79 130.67 301.876C130.735 301.962 130.832 302.019 130.938 302.033C139.404 303.058 147.922 303.579 156.449 303.595Z" fill="#11181C"/>
<path d="M163.268 90.2475L168.39 110.747C169.165 114.948 168.836 119.28 167.436 123.315C166.036 127.349 163.612 130.946 160.405 133.751L144.777 147.427L136.174 118.3L132.437 80.5078L152.227 83.609L163.268 90.2475Z" fill="#0081F1"/>
<path d="M96.2752 13.7292C95.1059 11.9642 94.1425 9.78157 94.8044 7.77079C95.5177 5.64727 98.1819 4.43489 100.232 5.30537C99.3683 3.78909 98.6699 2.18364 98.1488 0.516835C103.769 0.354199 109.548 1.35219 114.356 4.28519C119.164 7.21819 122.861 12.2766 123.306 17.9097C123.49 20.2531 123.082 22.7278 121.694 24.6184C120.234 26.6052 117.869 27.7289 115.487 28.3277C112.383 29.1076 108.963 29.0836 106.136 27.5884C104.19 26.5599 102.71 24.8231 101.997 22.7333C101.824 22.2069 101.714 21.6615 101.67 21.1088C101.638 20.7096 101.839 19.9759 101.686 19.6303C101.502 19.2145 100.732 18.7986 100.399 18.4956C99.9089 18.0631 99.4419 17.6121 98.9982 17.1427C97.9906 16.0892 97.0793 14.9467 96.2752 13.7292Z" fill="#11181C"/>
<path d="M101.464 14.1098C101.544 14.1101 101.623 14.0864 101.689 14.0417C101.756 13.9971 101.808 13.9335 101.839 13.859C101.87 13.7845 101.878 13.7025 101.862 13.6234C101.846 13.5443 101.807 13.4717 101.751 13.4149C100.591 12.2364 99.7401 10.7874 99.274 9.1974C99.2384 9.09998 99.1673 9.01982 99.0751 8.97321C98.9828 8.9266 98.8764 8.91702 98.7774 8.94643C98.6784 8.97584 98.5943 9.04203 98.542 9.13155C98.4898 9.22107 98.4735 9.32721 98.4963 9.42841C99.0005 11.1485 99.9209 12.7162 101.175 13.9915C101.252 14.0677 101.356 14.1103 101.464 14.1098Z" fill="#11181C"/>
<path d="M101.944 44.5657L105.124 44.0908L104.295 33.3013C104.295 33.3013 106.908 20.1518 116.969 29.9747L118.807 44.6526L121.725 45.1775C121.725 45.1775 120.565 51.8308 112.12 51.8104C104.953 51.792 101.92 48.7721 101.944 44.5657Z" fill="white"/>
<path d="M121.56 45.5617C121.661 45.5631 121.76 45.5257 121.836 45.457C121.912 45.3883 121.959 45.2934 121.968 45.1913C121.977 45.0892 121.947 44.9874 121.885 44.9063C121.822 44.8253 121.732 44.7709 121.631 44.7541L119.169 44.3013L117.362 29.9486C117.351 29.8572 117.308 29.7724 117.243 29.7084C114.075 26.6164 111.263 25.4244 108.897 26.1636C105.104 27.3501 103.933 33.0017 103.891 33.2512C103.886 33.2881 103.886 33.3253 103.891 33.3621L104.69 43.7579L103.22 43.9169C103.116 43.9327 103.022 43.9881 102.958 44.0717C102.895 44.1552 102.865 44.2603 102.877 44.3651C102.888 44.4698 102.939 44.5661 103.02 44.6338C103.1 44.7014 103.203 44.7353 103.308 44.7282L105.161 44.5249C105.267 44.515 105.365 44.4638 105.434 44.3823C105.502 44.3007 105.537 44.1953 105.529 44.0887L104.703 33.3584C104.828 32.804 105.99 27.9267 109.147 26.9417C111.186 26.3059 113.689 27.4 116.584 30.1944L118.408 44.7005C118.419 44.7862 118.457 44.8662 118.516 44.929C118.575 44.9918 118.653 45.0341 118.737 45.0498L121.48 45.5543C121.506 45.56 121.533 45.5625 121.56 45.5617Z" fill="#11181C"/>
<path d="M112.045 30.2551C110.537 31.5488 109.008 32.8055 107.057 33.177C105.106 33.5485 102.995 33.2472 101.341 32.1439C98.5827 30.2957 97.5678 26.5514 98.0569 23.2469C98.5459 19.9425 100.263 16.9633 101.953 14.0986C101.953 14.0986 108.436 19.0886 114.389 19.8981C115.114 21.7073 115.256 23.6994 114.795 25.5941C114.795 25.5941 116.117 24.3854 117.333 25.1838C118.644 26.045 119.171 27.9005 118.541 29.3421C117.91 30.7836 116.268 31.6689 114.709 31.5137C113.826 31.4268 113.019 31.2549 112.31 30.5009L112.045 30.2551Z" fill="white"/>
<path d="M105.463 33.7391C106.024 33.739 106.583 33.6858 107.134 33.5801C109.013 33.2216 110.482 32.1238 112.032 30.8079C112.867 31.6821 113.83 31.8447 114.668 31.9279C116.434 32.1016 118.221 31.0888 118.912 29.5142C119.256 28.6986 119.309 27.7883 119.061 26.938C118.814 26.0877 118.281 25.3498 117.553 24.8495C116.759 24.3283 115.95 24.491 115.367 24.7571C115.603 23.0695 115.396 21.3492 114.766 19.7671C114.74 19.6993 114.696 19.6398 114.639 19.595C114.582 19.5501 114.514 19.5214 114.442 19.5121C108.664 18.7303 102.264 13.842 102.201 13.7921C102.155 13.7575 102.103 13.7328 102.047 13.7195C101.992 13.7061 101.934 13.7044 101.877 13.7145C101.822 13.7245 101.769 13.7462 101.722 13.778C101.675 13.8098 101.635 13.8511 101.605 13.8993C100.077 16.4867 98.1763 19.6895 97.656 23.1973C97.0842 27.0599 98.4429 30.7081 101.116 32.4916C102.412 33.3258 103.924 33.7596 105.463 33.7391ZM112.045 29.858C111.948 29.8584 111.854 29.8931 111.78 29.9559C110.217 31.3032 108.776 32.4472 106.981 32.7891C105.027 33.1588 103.052 32.8058 101.565 31.8152C98.8217 29.9836 98.0274 26.2282 98.4595 23.3137C98.9283 20.1349 100.625 17.1502 102.072 14.7014C103.517 15.7567 108.914 19.4825 114.095 20.2735C114.72 21.9465 114.827 23.7704 114.402 25.5056C114.381 25.5905 114.388 25.6798 114.422 25.7604C114.456 25.8409 114.514 25.9084 114.589 25.9528C114.664 25.9972 114.751 26.0161 114.838 26.0068C114.924 25.9975 115.005 25.9604 115.069 25.9011C115.112 25.8623 116.172 24.9179 117.11 25.5315C117.674 25.9287 118.086 26.5071 118.278 27.1713C118.471 27.8356 118.432 28.5459 118.169 29.1853C117.618 30.4457 116.18 31.257 114.748 31.1166C113.828 31.026 113.19 30.8504 112.604 30.2295C112.554 30.1761 112.49 30.1377 112.42 30.1186C112.403 30.0742 112.379 30.033 112.348 29.9966C112.311 29.9513 112.265 29.9146 112.213 29.889C112.16 29.8635 112.103 29.8498 112.045 29.8487V29.858Z" fill="#11181C"/>
<path d="M114.303 29.4271C114.38 29.4274 114.456 29.4053 114.521 29.3633C114.586 29.3213 114.638 29.2614 114.67 29.1906C114.952 28.5788 115.481 27.8451 115.978 27.6806C116.048 27.6548 116.124 27.6447 116.199 27.6511C116.274 27.6575 116.346 27.6802 116.411 27.7176C116.458 27.7433 116.509 27.7596 116.562 27.7654C116.615 27.7713 116.668 27.7666 116.719 27.7517C116.771 27.7367 116.818 27.7118 116.86 27.6784C116.901 27.645 116.936 27.6037 116.961 27.5568C116.987 27.51 117.003 27.4585 117.009 27.4054C117.015 27.3523 117.01 27.2985 116.995 27.2472C116.98 27.1959 116.955 27.148 116.922 27.1063C116.889 27.0646 116.848 27.0299 116.801 27.0042C116.639 26.9124 116.459 26.8563 116.273 26.8394C116.087 26.8225 115.9 26.8453 115.724 26.9063C114.716 27.2408 114.056 28.5825 113.935 28.8487C113.89 28.947 113.886 29.0592 113.923 29.1607C113.96 29.2622 114.036 29.3448 114.133 29.3902C114.186 29.4149 114.244 29.4275 114.303 29.4271Z" fill="#11181C"/>
<path d="M106.022 25.8049C107.309 25.8049 108.568 24.8032 109.019 23.2988C109.55 21.519 108.752 19.6986 107.241 19.2329C106.861 19.1221 106.462 19.0979 106.072 19.1618C105.682 19.2257 105.311 19.3763 104.986 19.6025C104.29 20.0928 103.777 20.8048 103.533 21.6237C103.288 22.4425 103.325 23.3204 103.637 24.1157C103.782 24.4852 104.008 24.8175 104.298 25.0883C104.587 25.3591 104.933 25.5616 105.31 25.681C105.54 25.7568 105.78 25.7985 106.022 25.8049ZM106.524 19.9518C106.687 19.9521 106.85 19.9757 107.007 20.022C108.09 20.3492 108.643 21.7149 108.241 23.0641C107.838 24.4132 106.628 25.2486 105.544 24.9122C105.28 24.8261 105.039 24.6818 104.839 24.4899C104.638 24.298 104.482 24.0634 104.383 23.8033C104.146 23.1839 104.121 22.5027 104.311 21.867C104.501 21.2313 104.896 20.6772 105.433 20.2919C105.756 20.0736 106.135 19.9553 106.524 19.9518Z" fill="#11181C"/>
<path d="M97.4979 19.8184C97.029 21.3875 97.7038 22.9751 99.0037 23.3687C100.304 23.7624 101.738 22.8143 102.207 21.2415C102.675 19.6688 102.001 18.0849 100.701 17.6912C99.4008 17.2976 97.9667 18.2512 97.4979 19.8184Z" fill="white"/>
<path d="M99.5994 23.864C100.886 23.864 102.146 22.8623 102.594 21.3579C102.85 20.5407 102.813 19.6593 102.49 18.8667C102.348 18.4951 102.124 18.1611 101.833 17.8905C101.543 17.6199 101.195 17.42 100.816 17.3061C100.436 17.1921 100.036 17.1673 99.6458 17.2334C99.2555 17.2996 98.8855 17.4549 98.5643 17.6875C97.867 18.1779 97.3546 18.8903 97.1097 19.7095C96.8648 20.5288 96.9019 21.4071 97.2148 22.2025C97.3603 22.5719 97.586 22.904 97.8755 23.1745C98.1649 23.4449 98.5108 23.6471 98.8879 23.7661C99.1191 23.8332 99.3588 23.8661 99.5994 23.864ZM100.1 18.011C100.264 18.0108 100.428 18.0351 100.585 18.083C100.848 18.169 101.089 18.3132 101.289 18.5051C101.49 18.697 101.645 18.9317 101.743 19.1919C101.992 19.8089 102.019 20.4941 101.819 21.1288C101.414 22.4798 100.206 23.3133 99.1214 22.9769C98.858 22.8908 98.6171 22.7465 98.4163 22.5546C98.2156 22.3627 98.0601 22.1281 97.9612 21.868C97.7243 21.2486 97.6988 20.5675 97.8889 19.9319C98.0789 19.2963 98.4736 18.7421 99.0111 18.3566C99.3322 18.1364 99.7108 18.0162 100.1 18.011Z" fill="#11181C"/>
<path d="M103.922 22.1681C103.997 22.1682 104.07 22.1476 104.134 22.1083C104.198 22.0691 104.25 22.0128 104.283 21.9458C104.317 21.8787 104.332 21.8036 104.326 21.7286C104.32 21.6537 104.293 21.5819 104.249 21.5212C103.926 21.0721 103.045 20.3587 102.023 20.8781C101.929 20.9287 101.86 21.0139 101.828 21.1156C101.796 21.2172 101.806 21.3273 101.853 21.4223C101.901 21.5173 101.984 21.5896 102.085 21.624C102.185 21.6584 102.295 21.652 102.39 21.6062C103.056 21.2662 103.571 21.9758 103.593 21.998C103.63 22.0508 103.68 22.0937 103.737 22.1233C103.794 22.1529 103.858 22.1682 103.922 22.1681Z" fill="#11181C"/>
<path d="M114.834 23.6021C114.937 23.5951 115.033 23.5491 115.104 23.4735C115.174 23.3978 115.213 23.2981 115.213 23.1946C115.213 23.091 115.174 22.9913 115.104 22.9156C115.033 22.84 114.937 22.794 114.834 22.787L108.629 22.7686C108.526 22.7755 108.43 22.8215 108.359 22.8971C108.289 22.9728 108.25 23.0725 108.25 23.1761C108.25 23.2796 108.289 23.3793 108.359 23.455C108.43 23.5307 108.526 23.5766 108.629 23.5836L114.834 23.6021Z" fill="#11181C"/>
<path d="M85.1555 46.5188C91.3846 43.8538 96.9225 44.6281 101.958 44.2881C102.277 45.3866 102.8 46.4144 103.499 47.3172C104.885 49.0323 107.101 49.9748 109.226 50.3149C111.287 50.6451 113.394 50.5279 115.406 49.9711C117.198 49.4758 118.945 48.5517 120.273 47.2266C120.87 46.6245 121.367 45.9293 121.743 45.1678C134.124 46.1584 141.92 47.6665 148.462 55.7022C155.59 64.4476 159.971 80.2196 163.261 90.2624L139.21 91.6393C139.798 95.0565 140.313 98.6197 140.565 101.728C141.358 111.56 138.714 118.203 138.714 118.203C138.714 118.203 134.463 119.663 115.485 119.663C96.507 119.663 83.7398 117.672 83.7398 117.672C83.7398 117.672 81.5114 112.279 81.8902 107.842C82.3755 102.139 83.4585 95.7403 84.2233 91.6411L78.2056 97.1283C72.6108 102.227 64.1478 102.828 58.0988 98.2834C55.9403 96.6625 54.1275 94.4337 53.21 91.3676C49.3251 78.3715 70.228 52.9023 85.1555 46.5188Z" fill="#0081F1"/>
<path d="M131.514 122.712C131.613 122.712 131.71 122.676 131.784 122.608L143.246 112.379C143.301 112.329 143.342 112.265 143.363 112.194C143.385 112.122 143.387 112.047 143.369 111.974C142.856 109.956 140.96 98.9355 139.436 90.0811C138.579 85.0911 137.837 80.785 137.598 79.6354C137.576 79.5295 137.514 79.4365 137.425 79.3767C137.335 79.3169 137.226 79.2953 137.12 79.3166C137.015 79.3379 136.923 79.4004 136.863 79.4904C136.804 79.5803 136.782 79.6903 136.803 79.7962C137.031 80.9347 137.77 85.2371 138.629 90.2197C140.1 98.784 141.924 109.37 142.516 111.932L131.236 121.998C131.175 122.053 131.131 122.126 131.112 122.206C131.092 122.286 131.097 122.371 131.126 122.448C131.155 122.525 131.207 122.592 131.275 122.639C131.342 122.686 131.422 122.712 131.504 122.712H131.514Z" fill="#11181C"/>
<path d="M80.3292 90.2936C80.3999 90.294 80.4695 90.2755 80.5309 90.2402C80.5922 90.2048 80.6432 90.1537 80.6785 90.0921L95.3873 64.7837C95.4414 64.6906 95.4565 64.5796 95.4293 64.4753C95.402 64.371 95.3347 64.2818 95.242 64.2274C95.1494 64.173 95.039 64.1578 94.9352 64.1852C94.8314 64.2126 94.7427 64.2803 94.6886 64.3734L79.9799 89.68C79.9263 89.773 79.9115 89.8835 79.9387 89.9873C79.9659 90.0912 80.033 90.1801 80.1251 90.2344C80.1868 90.2718 80.2572 90.2922 80.3292 90.2936Z" fill="#11181C"/>
<path d="M87.0731 45.7256C91.4361 41.7188 91.004 32.7886 98.8934 29.2771C99.7189 30.532 100.813 31.9089 101.423 32.2342C104.508 29.924 105.459 29.1422 108.311 27.0594C109.215 26.3977 110.427 25.7989 111.593 25.9505C112.159 26.0281 112.9 26.4236 113.205 26.906C113.814 27.8633 112.874 29.157 112.286 30.0219C110.67 32.4245 109.66 32.8976 108.011 34.6922C108.011 34.6922 112.015 35.3095 111.81 39.0981C111.81 39.0981 114.172 39.5214 113.097 44.1011C113.097 44.1011 114.437 47.6865 111.243 49.6917C108.949 51.1351 107.437 50.5622 107.437 50.5622C107.437 50.5622 99.7612 60.2187 94.7511 63.5287C89.7409 66.8387 82.9841 49.4755 87.0731 45.7256Z" fill="white"/>
<path d="M97.5089 61.7811C97.6078 61.7813 97.7033 61.7452 97.7774 61.6795C101.947 57.9573 106.667 52.1856 107.599 51.0323C108.186 51.1451 109.598 51.2171 111.46 50.0491C114.545 48.1122 113.727 44.7782 113.519 44.0944C113.955 42.1557 113.852 40.6753 113.209 39.6958C112.969 39.3155 112.625 39.0122 112.22 38.8216C112.22 35.9792 109.962 34.8703 108.776 34.4841C109.144 34.1144 109.471 33.7725 109.793 33.4454C110.916 32.3404 111.971 31.1678 112.953 29.9339C113.321 29.4627 114.154 28.2299 113.705 26.9769C113.317 25.8902 112.082 25.406 111.072 25.4984C110.063 25.5908 109.213 26.0806 108.403 26.5851C107.128 27.384 105.912 28.2733 104.764 29.2464C103.69 30.1474 102.571 30.9937 101.412 31.7821C100.491 31.0556 99.7336 30.1402 99.1913 29.0967C99.1432 29.0038 99.0615 28.9329 98.9631 28.8985C98.8646 28.8641 98.7568 28.8689 98.6617 28.9119C93.6497 31.1796 91.7964 35.6151 90.1619 39.5221C89.1875 41.8526 88.2682 44.0537 86.7973 45.4361C86.7583 45.4725 86.7268 45.5163 86.7047 45.5649C86.6825 45.6136 86.6701 45.6661 86.6681 45.7196C86.6662 45.773 86.6747 45.8264 86.6932 45.8765C86.7118 45.9267 86.74 45.9726 86.7762 46.0118C86.8124 46.051 86.8559 46.0827 86.9043 46.105C86.9527 46.1272 87.005 46.1397 87.0582 46.1417C87.1113 46.1437 87.1644 46.1351 87.2143 46.1165C87.2642 46.0978 87.3099 46.0695 87.3489 46.0331C88.9485 44.5416 89.9009 42.261 90.9102 39.8474C92.4491 36.1677 94.1866 32.0076 98.6617 29.8138C99.2936 30.9167 100.152 31.8713 101.181 32.6137C101.248 32.6594 101.327 32.6838 101.408 32.6838C101.489 32.6838 101.568 32.6594 101.635 32.6137C102.899 31.7675 104.118 30.8532 105.284 29.8748C106.406 28.9237 107.593 28.0547 108.838 27.2745C109.594 26.8032 110.34 26.3744 111.148 26.306C111.839 26.2524 112.703 26.5611 112.949 27.2523C113.165 27.8566 112.933 28.6698 112.326 29.4294C111.363 30.6411 110.328 31.7922 109.224 32.8762C108.763 33.3438 108.287 33.8243 107.72 34.4305C107.67 34.4845 107.636 34.5513 107.62 34.6237C107.605 34.696 107.609 34.7712 107.633 34.8413C107.657 34.9113 107.699 34.9735 107.755 35.0213C107.811 35.069 107.879 35.1005 107.952 35.1124C108.101 35.1365 111.591 35.726 111.409 39.0933C111.403 39.1926 111.434 39.2904 111.495 39.3684C111.557 39.4464 111.644 39.4991 111.741 39.5165C112.086 39.6241 112.377 39.8593 112.556 40.1745C112.907 40.7289 113.22 41.8489 112.71 44.0242C112.693 44.103 112.699 44.1852 112.727 44.2607C112.775 44.3956 113.904 47.5634 111.039 49.3634C108.967 50.6571 107.641 50.2154 107.586 50.197C107.506 50.1679 107.42 50.1646 107.338 50.1875C107.256 50.2104 107.184 50.2582 107.13 50.3245C107.077 50.391 101.815 56.9907 97.2387 61.0751C97.1769 61.1299 97.1332 61.2023 97.1135 61.2827C97.0938 61.3632 97.0989 61.4477 97.1283 61.5251C97.1577 61.6025 97.2099 61.669 97.2779 61.7157C97.346 61.7625 97.4265 61.7872 97.5089 61.7866V61.7811Z" fill="#11181C"/>
<path d="M107.494 50.9548C107.564 50.9547 107.633 50.9369 107.695 50.903C109.195 50.0473 110.467 48.4727 110.901 47.4248C110.926 47.3748 110.94 47.3202 110.943 47.2644C110.946 47.2086 110.937 47.1528 110.918 47.1005C110.898 47.0482 110.868 47.0004 110.83 46.9602C110.791 46.9199 110.745 46.888 110.694 46.8665C110.642 46.845 110.587 46.8343 110.532 46.835C110.476 46.8357 110.421 46.8479 110.371 46.8708C110.32 46.8937 110.275 46.9268 110.237 46.968C110.2 47.0093 110.171 47.0578 110.153 47.1106C109.826 47.9017 108.722 49.3802 107.294 50.1933C107.216 50.2374 107.154 50.3064 107.119 50.3895C107.084 50.4725 107.077 50.565 107.1 50.6522C107.123 50.7394 107.174 50.8165 107.246 50.8713C107.317 50.9261 107.405 50.9554 107.494 50.9548Z" fill="#11181C"/>
<path d="M98.0881 34.2728C98.1339 34.2727 98.1793 34.2646 98.2223 34.2487C98.3216 34.2136 100.682 33.3783 101.664 32.5854C101.74 32.5154 101.787 32.4189 101.795 32.3155C101.803 32.2122 101.771 32.1097 101.706 32.0288C101.642 31.948 101.549 31.8948 101.447 31.8801C101.345 31.8654 101.241 31.8903 101.157 31.9497C100.282 32.6556 97.9759 33.4725 97.9539 33.4799C97.8641 33.5123 97.7885 33.5755 97.7403 33.6583C97.6922 33.7411 97.6746 33.8383 97.6906 33.9329C97.7066 34.0274 97.7552 34.1133 97.8279 34.1754C97.9006 34.2376 97.9927 34.272 98.0881 34.2728Z" fill="#11181C"/>
<path d="M138.719 116.452L131.986 122.425C132.29 126.714 133.013 130.962 134.147 135.107C136.038 142.08 142.849 148.815 142.849 148.815L144.959 147.152L143.623 129.315L138.719 116.452Z" fill="#0081F1"/>
<path d="M144.025 154.112C144.115 154.112 144.201 154.082 144.272 154.028C144.343 153.973 144.394 153.896 144.417 153.81C144.441 153.723 144.435 153.631 144.401 153.548C144.367 153.465 144.307 153.396 144.229 153.35C144.132 153.293 134.43 147.523 129.91 132.034C129.88 131.93 129.81 131.843 129.716 131.791C129.622 131.739 129.511 131.727 129.408 131.758C129.304 131.788 129.218 131.858 129.166 131.953C129.114 132.048 129.102 132.159 129.133 132.263C133.749 148.087 143.724 153.999 143.825 154.056C143.886 154.092 143.955 154.112 144.025 154.112Z" fill="#11181C"/>
<path d="M125.676 132.87C127.501 132.862 129.303 132.454 130.955 131.674C131.047 131.625 131.118 131.542 131.151 131.443C131.185 131.343 131.179 131.234 131.134 131.139C131.09 131.044 131.011 130.969 130.913 130.931C130.816 130.893 130.708 130.894 130.611 130.935C126.103 133.049 121.846 131.818 121.124 130.469C121.05 130.33 120.852 129.961 121.536 129.545C124.246 127.869 131.563 122.788 131.639 122.738C131.686 122.709 131.727 122.671 131.758 122.625C131.79 122.58 131.813 122.529 131.824 122.474C131.835 122.42 131.836 122.364 131.825 122.309C131.814 122.255 131.792 122.203 131.761 122.158C131.729 122.112 131.689 122.073 131.642 122.044C131.595 122.014 131.543 121.995 131.488 121.986C131.434 121.978 131.378 121.981 131.324 121.995C131.271 122.008 131.221 122.033 131.177 122.067C131.104 122.119 123.803 127.187 121.109 128.852C120.274 129.369 120.006 130.12 120.41 130.863C121.019 131.994 123.087 132.87 125.676 132.87Z" fill="#11181C"/>
<path d="M140.037 150.939C140.145 150.938 140.248 150.895 140.324 150.819L142.547 148.584C142.624 148.507 142.667 148.402 142.668 148.293C142.668 148.183 142.625 148.079 142.548 148.001C142.471 147.924 142.367 147.88 142.258 147.88C142.149 147.88 142.045 147.923 141.968 148L139.745 150.235C139.685 150.292 139.644 150.365 139.627 150.446C139.611 150.527 139.618 150.611 139.65 150.688C139.682 150.764 139.736 150.829 139.805 150.874C139.874 150.919 139.955 150.941 140.037 150.939Z" fill="#11181C"/>
</g>
<defs>
<clipPath id="clip0_5007_12876">
<rect width="208" height="321" fill="white" transform="matrix(-1 0 0 1 208 0.5)"/>
</clipPath>
</defs>
</svg>
