<svg width="60" height="78" viewBox="0 0 60 78" fill="none" xmlns="http://www.w3.org/2000/svg">
<path id="Export File" d="M0 68.1324V11.2868C0 8.85562 0.685921 6.99651 2.05776 5.70944C3.45367 4.39853 5.41516 3.73116 7.94224 3.70733C11.9615 3.65966 16.1131 3.4809 20.3971 3.17105C24.6811 2.83736 28.929 2.42026 33.1408 1.91973C37.3767 1.39536 41.3959 0.811415 45.1986 0.167879C47.6294 -0.261145 49.5909 0.132127 51.083 1.3477C52.5752 2.53943 53.3213 4.36278 53.3213 6.81775V63.8065C53.3213 66.1899 52.7076 68.0014 51.4801 69.2408C50.2768 70.504 48.5439 71.3501 46.2816 71.7792C42.1179 72.518 37.846 73.1258 33.4657 73.6025C29.0854 74.0792 24.7172 74.4367 20.361 74.6751C16.0289 74.9372 11.8291 75.0922 7.76173 75.1398C5.35499 75.1875 3.45367 74.5797 2.05776 73.3165C0.685921 72.0771 0 70.3491 0 68.1324ZM12.1661 19.4025C17.2684 19.331 22.142 19.0449 26.787 18.5444C31.4561 18.02 36.2455 17.2931 41.1552 16.3635C41.5644 16.292 41.8652 16.1609 42.0578 15.9703C42.2503 15.7558 42.3466 15.4936 42.3466 15.1837C42.3466 14.8739 42.2262 14.5998 41.9856 14.3614C41.769 14.1231 41.4681 14.0277 41.083 14.0754C36.2214 15.005 31.4561 15.72 26.787 16.2205C22.142 16.7211 17.2684 17.0071 12.1661 17.0786C11.8051 17.1024 11.5162 17.2216 11.2996 17.4361C11.083 17.6506 10.9747 17.9247 10.9747 18.2584C10.9747 18.5682 11.083 18.8304 11.2996 19.0449C11.5403 19.2595 11.8291 19.3786 12.1661 19.4025ZM12.1661 31.9157C17.2684 31.8442 22.142 31.5581 26.787 31.0576C31.4561 30.5332 36.2455 29.8063 41.1552 28.8767C41.5644 28.8052 41.8652 28.6741 42.0578 28.4835C42.2503 28.269 42.3466 28.0187 42.3466 27.7327C42.3466 27.399 42.2262 27.113 41.9856 26.8746C41.769 26.6124 41.4681 26.5171 41.083 26.5886C36.2214 27.5182 31.4561 28.2332 26.787 28.7337C22.142 29.2343 17.2684 29.5203 12.1661 29.5918C11.8051 29.6156 11.5162 29.7467 11.2996 29.9851C11.083 30.1996 10.9747 30.4498 10.9747 30.7358C10.9747 31.0695 11.083 31.3436 11.2996 31.5581C11.5403 31.7727 11.8291 31.8918 12.1661 31.9157ZM12.1661 44.4289C17.2684 44.3574 22.142 44.0713 26.787 43.5708C31.4561 43.0465 36.2455 42.3314 41.1552 41.4257C41.5644 41.3304 41.8652 41.1873 42.0578 40.9967C42.2503 40.7822 42.3466 40.5319 42.3466 40.2459C42.3466 39.9122 42.2262 39.6262 41.9856 39.3878C41.769 39.1495 41.4681 39.0541 41.083 39.1018C36.2214 40.0314 31.4561 40.7464 26.787 41.2469C22.142 41.7475 17.2684 42.0335 12.1661 42.105C11.8051 42.1288 11.5162 42.2599 11.2996 42.4983C11.083 42.7128 10.9747 42.9749 10.9747 43.2848C10.9747 43.5946 11.083 43.8687 11.2996 44.1071C11.5403 44.3216 11.8291 44.4289 12.1661 44.4289ZM12.1661 56.9421C14.8135 56.8944 17.2323 56.7633 19.4224 56.5488C21.6125 56.3343 23.9109 56.1078 26.3177 55.8695C26.6546 55.8218 26.9314 55.6907 27.148 55.4762C27.3646 55.2617 27.4729 55.0115 27.4729 54.7254C27.4729 54.3918 27.3526 54.1057 27.1119 53.8674C26.8712 53.629 26.5584 53.5456 26.1733 53.6171C23.7906 53.8316 21.5162 54.0462 19.3502 54.2607C17.1841 54.4752 14.7894 54.5943 12.1661 54.6182C11.8051 54.642 11.5162 54.7612 11.2996 54.9757C11.083 55.1902 10.9747 55.4524 10.9747 55.7622C10.9747 56.0959 11.083 56.382 11.2996 56.6203C11.5403 56.8348 11.8291 56.9421 12.1661 56.9421ZM23.3935 78C27.3406 77.5471 31.2996 77.0585 35.2708 76.5342C39.2659 76.0336 43.1408 75.4735 46.8953 74.8538C48.8448 74.4963 50.5415 73.8528 51.9856 72.9232C53.4296 72.0175 54.5487 70.8019 55.343 69.2765C56.1372 67.7749 56.5343 65.9516 56.5343 63.8065V6.81775C56.5343 6.5079 56.5223 6.22189 56.4982 5.9597C56.4982 5.67369 56.4862 5.39959 56.4621 5.13741C57.5451 5.51876 58.3995 6.32914 59.0253 7.56854C59.6751 8.78411 60 10.3453 60 12.2521V68.347C60 71.517 59.1817 73.9124 57.5451 75.5331C55.9085 77.1777 53.4898 78 50.2888 78H23.3935Z" fill="#DFE3E6"/>
</svg>
