<svg width="132" height="132" viewBox="0 0 132 132" fill="none" xmlns="http://www.w3.org/2000/svg">
<g clip-path="url(#clip0_4878_10585)">
<rect x="0.5" y="0.5" width="131" height="131" rx="27.5" fill="url(#paint0_linear_4878_10585)" stroke="url(#paint1_linear_4878_10585)"/>
<g filter="url(#filter0_dd_4878_10585)">
<mask id="path-2-outside-1_4878_10585" maskUnits="userSpaceOnUse" x="35" y="25" width="63" height="83" fill="black">
<rect fill="white" x="35" y="25" width="63" height="83"/>
<path d="M35.6621 96.7852V37.7812C35.6621 35.2578 36.3672 33.3281 37.7773 31.9922C39.2122 30.6315 41.2285 29.9388 43.8262 29.9141C47.9577 29.8646 52.2253 29.679 56.6289 29.3574C61.0326 29.0111 65.3991 28.5781 69.7285 28.0586C74.0827 27.5143 78.2142 26.9082 82.123 26.2402C84.6217 25.7949 86.638 26.2031 88.1719 27.4648C89.7057 28.7018 90.4727 30.5944 90.4727 33.1426V92.2949C90.4727 94.7689 89.8418 96.6491 88.5801 97.9355C87.3431 99.2467 85.5618 100.125 83.2363 100.57C78.9564 101.337 74.5651 101.968 70.0625 102.463C65.5599 102.958 61.0697 103.329 56.5918 103.576C52.1387 103.848 47.8216 104.009 43.6406 104.059C41.1667 104.108 39.2122 103.477 37.7773 102.166C36.3672 100.88 35.6621 99.0859 35.6621 96.7852ZM48.168 46.2051C53.4128 46.1309 58.4225 45.834 63.1973 45.3145C67.9967 44.7702 72.9199 44.0156 77.9668 43.0508C78.3874 42.9766 78.6966 42.8405 78.8945 42.6426C79.0924 42.4199 79.1914 42.1478 79.1914 41.8262C79.1914 41.5046 79.0677 41.2201 78.8203 40.9727C78.5977 40.7253 78.2884 40.6263 77.8926 40.6758C72.8952 41.6406 67.9967 42.3828 63.1973 42.9023C58.4225 43.4219 53.4128 43.7188 48.168 43.793C47.7969 43.8177 47.5 43.9414 47.2773 44.1641C47.0547 44.3867 46.9434 44.6712 46.9434 45.0176C46.9434 45.3392 47.0547 45.6113 47.2773 45.834C47.5247 46.0566 47.8216 46.1803 48.168 46.2051ZM48.168 59.1934C53.4128 59.1191 58.4225 58.8223 63.1973 58.3027C67.9967 57.7585 72.9199 57.0039 77.9668 56.0391C78.3874 55.9648 78.6966 55.8288 78.8945 55.6309C79.0924 55.4082 79.1914 55.1484 79.1914 54.8516C79.1914 54.5052 79.0677 54.2083 78.8203 53.9609C78.5977 53.6888 78.2884 53.5898 77.8926 53.6641C72.8952 54.6289 67.9967 55.3711 63.1973 55.8906C58.4225 56.4102 53.4128 56.707 48.168 56.7812C47.7969 56.806 47.5 56.9421 47.2773 57.1895C47.0547 57.4121 46.9434 57.6719 46.9434 57.9688C46.9434 58.3151 47.0547 58.5996 47.2773 58.8223C47.5247 59.0449 47.8216 59.1686 48.168 59.1934ZM48.168 72.1816C53.4128 72.1074 58.4225 71.8105 63.1973 71.291C67.9967 70.7467 72.9199 70.0046 77.9668 69.0645C78.3874 68.9655 78.6966 68.8171 78.8945 68.6191C79.0924 68.3965 79.1914 68.1367 79.1914 67.8398C79.1914 67.4935 79.0677 67.1966 78.8203 66.9492C78.5977 66.7018 78.2884 66.6029 77.8926 66.6523C72.8952 67.6172 67.9967 68.3594 63.1973 68.8789C58.4225 69.3984 53.4128 69.6953 48.168 69.7695C47.7969 69.7943 47.5 69.9303 47.2773 70.1777C47.0547 70.4004 46.9434 70.6725 46.9434 70.9941C46.9434 71.3158 47.0547 71.6003 47.2773 71.8477C47.5247 72.0703 47.8216 72.1816 48.168 72.1816ZM48.168 85.1699C50.8893 85.1204 53.3757 84.9844 55.627 84.7617C57.8783 84.5391 60.2409 84.304 62.7148 84.0566C63.0612 84.0072 63.3457 83.8711 63.5684 83.6484C63.791 83.4258 63.9023 83.166 63.9023 82.8691C63.9023 82.5228 63.7786 82.2259 63.5312 81.9785C63.2839 81.7311 62.9622 81.6445 62.5664 81.7188C60.1172 81.9414 57.7793 82.1641 55.5527 82.3867C53.3262 82.6094 50.8646 82.7331 48.168 82.7578C47.7969 82.7826 47.5 82.9062 47.2773 83.1289C47.0547 83.3516 46.9434 83.6237 46.9434 83.9453C46.9434 84.2917 47.0547 84.5885 47.2773 84.8359C47.5247 85.0586 47.8216 85.1699 48.168 85.1699ZM59.709 107.027C63.7663 106.557 67.8359 106.05 71.918 105.506C76.0247 104.986 80.0078 104.405 83.8672 103.762C85.8711 103.391 87.6152 102.723 89.0996 101.758C90.584 100.818 91.7344 99.556 92.5508 97.9727C93.3672 96.4141 93.7754 94.5215 93.7754 92.2949V33.1426C93.7754 32.821 93.763 32.5241 93.7383 32.252C93.7383 31.9551 93.7259 31.6706 93.7012 31.3984C94.8145 31.7943 95.6927 32.6354 96.3359 33.9219C97.0039 35.1836 97.3379 36.804 97.3379 38.7832V97.0078C97.3379 100.298 96.4967 102.785 94.8145 104.467C93.1322 106.174 90.6458 107.027 87.3555 107.027H59.709Z"/>
</mask>
<path d="M35.6621 96.7852V37.7812C35.6621 35.2578 36.3672 33.3281 37.7773 31.9922C39.2122 30.6315 41.2285 29.9388 43.8262 29.9141C47.9577 29.8646 52.2253 29.679 56.6289 29.3574C61.0326 29.0111 65.3991 28.5781 69.7285 28.0586C74.0827 27.5143 78.2142 26.9082 82.123 26.2402C84.6217 25.7949 86.638 26.2031 88.1719 27.4648C89.7057 28.7018 90.4727 30.5944 90.4727 33.1426V92.2949C90.4727 94.7689 89.8418 96.6491 88.5801 97.9355C87.3431 99.2467 85.5618 100.125 83.2363 100.57C78.9564 101.337 74.5651 101.968 70.0625 102.463C65.5599 102.958 61.0697 103.329 56.5918 103.576C52.1387 103.848 47.8216 104.009 43.6406 104.059C41.1667 104.108 39.2122 103.477 37.7773 102.166C36.3672 100.88 35.6621 99.0859 35.6621 96.7852ZM48.168 46.2051C53.4128 46.1309 58.4225 45.834 63.1973 45.3145C67.9967 44.7702 72.9199 44.0156 77.9668 43.0508C78.3874 42.9766 78.6966 42.8405 78.8945 42.6426C79.0924 42.4199 79.1914 42.1478 79.1914 41.8262C79.1914 41.5046 79.0677 41.2201 78.8203 40.9727C78.5977 40.7253 78.2884 40.6263 77.8926 40.6758C72.8952 41.6406 67.9967 42.3828 63.1973 42.9023C58.4225 43.4219 53.4128 43.7188 48.168 43.793C47.7969 43.8177 47.5 43.9414 47.2773 44.1641C47.0547 44.3867 46.9434 44.6712 46.9434 45.0176C46.9434 45.3392 47.0547 45.6113 47.2773 45.834C47.5247 46.0566 47.8216 46.1803 48.168 46.2051ZM48.168 59.1934C53.4128 59.1191 58.4225 58.8223 63.1973 58.3027C67.9967 57.7585 72.9199 57.0039 77.9668 56.0391C78.3874 55.9648 78.6966 55.8288 78.8945 55.6309C79.0924 55.4082 79.1914 55.1484 79.1914 54.8516C79.1914 54.5052 79.0677 54.2083 78.8203 53.9609C78.5977 53.6888 78.2884 53.5898 77.8926 53.6641C72.8952 54.6289 67.9967 55.3711 63.1973 55.8906C58.4225 56.4102 53.4128 56.707 48.168 56.7812C47.7969 56.806 47.5 56.9421 47.2773 57.1895C47.0547 57.4121 46.9434 57.6719 46.9434 57.9688C46.9434 58.3151 47.0547 58.5996 47.2773 58.8223C47.5247 59.0449 47.8216 59.1686 48.168 59.1934ZM48.168 72.1816C53.4128 72.1074 58.4225 71.8105 63.1973 71.291C67.9967 70.7467 72.9199 70.0046 77.9668 69.0645C78.3874 68.9655 78.6966 68.8171 78.8945 68.6191C79.0924 68.3965 79.1914 68.1367 79.1914 67.8398C79.1914 67.4935 79.0677 67.1966 78.8203 66.9492C78.5977 66.7018 78.2884 66.6029 77.8926 66.6523C72.8952 67.6172 67.9967 68.3594 63.1973 68.8789C58.4225 69.3984 53.4128 69.6953 48.168 69.7695C47.7969 69.7943 47.5 69.9303 47.2773 70.1777C47.0547 70.4004 46.9434 70.6725 46.9434 70.9941C46.9434 71.3158 47.0547 71.6003 47.2773 71.8477C47.5247 72.0703 47.8216 72.1816 48.168 72.1816ZM48.168 85.1699C50.8893 85.1204 53.3757 84.9844 55.627 84.7617C57.8783 84.5391 60.2409 84.304 62.7148 84.0566C63.0612 84.0072 63.3457 83.8711 63.5684 83.6484C63.791 83.4258 63.9023 83.166 63.9023 82.8691C63.9023 82.5228 63.7786 82.2259 63.5312 81.9785C63.2839 81.7311 62.9622 81.6445 62.5664 81.7188C60.1172 81.9414 57.7793 82.1641 55.5527 82.3867C53.3262 82.6094 50.8646 82.7331 48.168 82.7578C47.7969 82.7826 47.5 82.9062 47.2773 83.1289C47.0547 83.3516 46.9434 83.6237 46.9434 83.9453C46.9434 84.2917 47.0547 84.5885 47.2773 84.8359C47.5247 85.0586 47.8216 85.1699 48.168 85.1699ZM59.709 107.027C63.7663 106.557 67.8359 106.05 71.918 105.506C76.0247 104.986 80.0078 104.405 83.8672 103.762C85.8711 103.391 87.6152 102.723 89.0996 101.758C90.584 100.818 91.7344 99.556 92.5508 97.9727C93.3672 96.4141 93.7754 94.5215 93.7754 92.2949V33.1426C93.7754 32.821 93.763 32.5241 93.7383 32.252C93.7383 31.9551 93.7259 31.6706 93.7012 31.3984C94.8145 31.7943 95.6927 32.6354 96.3359 33.9219C97.0039 35.1836 97.3379 36.804 97.3379 38.7832V97.0078C97.3379 100.298 96.4967 102.785 94.8145 104.467C93.1322 106.174 90.6458 107.027 87.3555 107.027H59.709Z" fill="url(#paint2_radial_4878_10585)" shape-rendering="crispEdges"/>
<path d="M37.7773 31.9922L38.1212 32.3552L38.1214 32.355L37.7773 31.9922ZM43.8262 29.9141L43.8309 30.414L43.8322 30.414L43.8262 29.9141ZM56.6289 29.3574L56.6653 29.8561L56.6681 29.8559L56.6289 29.3574ZM69.7285 28.0586L69.7881 28.555L69.7905 28.5547L69.7285 28.0586ZM82.123 26.2402L82.2073 26.7331L82.2108 26.7325L82.123 26.2402ZM88.1719 27.4648L87.8542 27.851L87.858 27.8541L88.1719 27.4648ZM88.5801 97.9355L88.223 97.5854L88.2164 97.5924L88.5801 97.9355ZM83.2363 100.57L83.3245 101.063L83.3304 101.061L83.2363 100.57ZM56.5918 103.576L56.5642 103.077L56.5613 103.077L56.5918 103.576ZM43.6406 104.059L43.6347 103.559L43.6306 103.559L43.6406 104.059ZM37.7773 102.166L38.1146 101.797L38.1143 101.797L37.7773 102.166ZM48.168 46.2051L48.1323 46.7038L48.1537 46.7053L48.175 46.705L48.168 46.2051ZM63.1973 45.3145L63.2514 45.8115L63.2536 45.8113L63.1973 45.3145ZM77.9668 43.0508L77.8799 42.5583L77.8729 42.5597L77.9668 43.0508ZM78.8945 42.6426L79.2481 42.9961L79.2585 42.9857L79.2682 42.9748L78.8945 42.6426ZM78.8203 40.9727L78.4487 41.3071L78.4575 41.3169L78.4668 41.3262L78.8203 40.9727ZM77.8926 40.6758L77.8306 40.1796L77.8141 40.1817L77.7978 40.1848L77.8926 40.6758ZM63.1973 42.9023L63.1435 42.4052L63.1432 42.4053L63.1973 42.9023ZM48.168 43.793L48.1609 43.293L48.1478 43.2932L48.1347 43.2941L48.168 43.793ZM47.2773 45.834L46.9238 46.1875L46.9331 46.1968L46.9429 46.2056L47.2773 45.834ZM48.168 59.1934L48.1323 59.6921L48.1537 59.6936L48.175 59.6933L48.168 59.1934ZM63.1973 58.3027L63.2514 58.7998L63.2536 58.7995L63.1973 58.3027ZM77.9668 56.0391L77.8799 55.5466L77.8729 55.548L77.9668 56.0391ZM78.8945 55.6309L79.2481 55.9844L79.2585 55.974L79.2682 55.963L78.8945 55.6309ZM78.8203 53.9609L78.4333 54.2776L78.4491 54.2969L78.4668 54.3145L78.8203 53.9609ZM77.8926 53.6641L77.8004 53.1726L77.7978 53.1731L77.8926 53.6641ZM63.1973 55.8906L63.1435 55.3935L63.1432 55.3936L63.1973 55.8906ZM48.168 56.7812L48.1609 56.2813L48.1478 56.2815L48.1347 56.2824L48.168 56.7812ZM47.2773 57.1895L47.6309 57.543L47.6402 57.5337L47.649 57.5239L47.2773 57.1895ZM47.2773 58.8223L46.9238 59.1758L46.9331 59.1851L46.9429 59.1939L47.2773 58.8223ZM48.168 72.1816V72.6817L48.175 72.6816L48.168 72.1816ZM63.1973 71.291L63.2514 71.7881L63.2536 71.7878L63.1973 71.291ZM77.9668 69.0645L78.0584 69.556L78.0699 69.5539L78.0813 69.5512L77.9668 69.0645ZM78.8945 68.6191L79.2481 68.9727L79.2585 68.9623L79.2682 68.9513L78.8945 68.6191ZM78.8203 66.9492L78.4487 67.2837L78.4575 67.2935L78.4668 67.3028L78.8203 66.9492ZM77.8926 66.6523L77.8306 66.1562L77.8141 66.1583L77.7978 66.1614L77.8926 66.6523ZM63.1973 68.8789L63.1435 68.3818L63.1432 68.3818L63.1973 68.8789ZM48.168 69.7695L48.1609 69.2696L48.1478 69.2698L48.1347 69.2706L48.168 69.7695ZM47.2773 70.1777L47.6309 70.5313L47.6402 70.522L47.649 70.5122L47.2773 70.1777ZM47.2773 71.8477L46.9057 72.1821L46.9233 72.2017L46.9429 72.2193L47.2773 71.8477ZM48.168 85.1699V85.67L48.1771 85.6698L48.168 85.1699ZM62.7148 84.0566L62.7646 84.5542L62.7751 84.5531L62.7856 84.5516L62.7148 84.0566ZM62.5664 81.7188L62.6117 82.2167L62.6353 82.2146L62.6586 82.2102L62.5664 81.7188ZM48.168 82.7578L48.1634 82.2578L48.149 82.258L48.1347 82.2589L48.168 82.7578ZM47.2773 84.8359L46.9057 85.1704L46.9233 85.19L46.9429 85.2076L47.2773 84.8359ZM59.709 107.027L59.6514 106.531L59.709 107.527V107.027ZM71.918 105.506L71.8552 105.01L71.8519 105.01L71.918 105.506ZM83.8672 103.762L83.9494 104.255L83.9582 104.253L83.8672 103.762ZM89.0996 101.758L88.8321 101.335L88.8271 101.339L89.0996 101.758ZM92.5508 97.9727L92.1079 97.7406L92.1064 97.7435L92.5508 97.9727ZM93.7383 32.252H93.2383V32.2746L93.2403 32.2972L93.7383 32.252ZM93.7012 31.3984L93.8687 30.9273L93.1325 30.6656L93.2032 31.4437L93.7012 31.3984ZM96.3359 33.9219L95.8886 34.1455L95.894 34.1558L96.3359 33.9219ZM94.8145 104.467L94.4609 104.113L94.4583 104.116L94.8145 104.467ZM36.1621 96.7852V37.7812H35.1621V96.7852H36.1621ZM36.1621 37.7812C36.1621 35.3519 36.8383 33.5706 38.1212 32.3552L37.4335 31.6292C35.8961 33.0856 35.1621 35.1637 35.1621 37.7812H36.1621ZM38.1214 32.355C39.4388 31.1057 41.3189 30.438 43.8309 30.414L43.8214 29.4141C41.1381 29.4396 38.9857 30.1573 37.4333 31.6294L38.1214 32.355ZM43.8322 30.414C47.9745 30.3644 52.2522 30.1784 56.6653 29.8561L56.5925 28.8588C52.1983 29.1797 47.9409 29.3647 43.8202 29.4141L43.8322 30.414ZM56.6681 29.8559C61.0785 29.509 65.4518 29.0754 69.7881 28.555L69.6689 27.5622C65.3464 28.0809 60.9866 28.5131 56.5897 28.859L56.6681 29.8559ZM69.7905 28.5547C74.1514 28.0096 78.2903 27.4024 82.2073 26.7331L82.0388 25.7474C78.1381 26.414 74.014 27.019 69.6665 27.5625L69.7905 28.5547ZM82.2108 26.7325C84.6084 26.3052 86.4634 26.7069 87.8542 27.851L88.4895 27.0787C86.8127 25.6993 84.635 25.2847 82.0353 25.748L82.2108 26.7325ZM87.858 27.8541C89.2413 28.9696 89.9727 30.6976 89.9727 33.1426H90.9727C90.9727 30.4912 90.1702 28.434 88.4858 27.0756L87.858 27.8541ZM89.9727 33.1426V92.2949H90.9727V33.1426H89.9727ZM89.9727 92.2949C89.9727 94.6877 89.3634 96.4228 88.2231 97.5854L88.937 98.2857C90.3202 96.8754 90.9727 94.85 90.9727 92.2949H89.9727ZM88.2164 97.5924C87.0711 98.8064 85.3968 99.6475 83.1423 100.079L83.3304 101.061C85.7269 100.602 87.6151 99.6871 88.9438 98.2787L88.2164 97.5924ZM83.1481 100.078C78.8798 100.843 74.4997 101.472 70.0079 101.966L70.1171 102.96C74.6305 102.464 79.033 101.831 83.3245 101.062L83.1481 100.078ZM70.0079 101.966C65.5142 102.46 61.033 102.83 56.5642 103.077L56.6194 104.075C61.1064 103.828 65.6056 103.456 70.1171 102.96L70.0079 101.966ZM56.5613 103.077C52.1158 103.349 47.807 103.509 43.6347 103.559L43.6465 104.559C47.8363 104.509 52.1615 104.348 56.6223 104.075L56.5613 103.077ZM43.6306 103.559C41.2484 103.606 39.4309 103 38.1146 101.797L37.4401 102.535C38.9935 103.955 41.0849 104.61 43.6506 104.558L43.6306 103.559ZM38.1143 101.797C36.8291 100.624 36.1621 98.9767 36.1621 96.7852H35.1621C35.1621 99.1952 35.9053 101.135 37.4404 102.535L38.1143 101.797ZM48.175 46.705C53.4341 46.6306 58.4596 46.3329 63.2514 45.8115L63.1432 44.8174C58.3854 45.3351 53.3914 45.6311 48.1609 45.7051L48.175 46.705ZM63.2536 45.8113C68.0664 45.2655 73.0022 44.509 78.0607 43.5419L77.8729 42.5597C72.8377 43.5223 67.9271 44.2749 63.1409 44.8176L63.2536 45.8113ZM78.0537 43.5432C78.5255 43.4599 78.9486 43.2956 79.2481 42.9961L78.541 42.289C78.4446 42.3854 78.2492 42.4932 77.8799 42.5584L78.0537 43.5432ZM79.2682 42.9748C79.5543 42.653 79.6914 42.2597 79.6914 41.8262H78.6914C78.6914 42.0359 78.6306 42.1869 78.5208 42.3104L79.2682 42.9748ZM79.6914 41.8262C79.6914 41.3596 79.506 40.9512 79.1739 40.6191L78.4668 41.3262C78.6295 41.4889 78.6914 41.6495 78.6914 41.8262H79.6914ZM79.192 40.6382C78.8373 40.2441 78.352 40.1145 77.8306 40.1796L77.9546 41.1719C78.2249 41.1381 78.358 41.2065 78.4487 41.3071L79.192 40.6382ZM77.7978 40.1848C72.8132 41.1472 67.9285 41.8873 63.1435 42.4052L63.2511 43.3994C68.065 42.8783 72.9771 42.134 77.9874 41.1667L77.7978 40.1848ZM63.1432 42.4053C58.3854 42.923 53.3914 43.219 48.1609 43.293L48.175 44.2929C53.4341 44.2185 58.4596 43.9208 63.2514 43.3994L63.1432 42.4053ZM48.1347 43.2941C47.6659 43.3253 47.2471 43.4872 46.9238 43.8105L47.6309 44.5176C47.7529 44.3957 47.9279 44.3101 48.2012 44.2919L48.1347 43.2941ZM46.9238 43.8105C46.5975 44.1368 46.4434 44.5532 46.4434 45.0176H47.4434C47.4434 44.7893 47.5118 44.6367 47.6309 44.5176L46.9238 43.8105ZM46.4434 45.0176C46.4434 45.4686 46.6051 45.8689 46.9238 46.1875L47.6309 45.4804C47.5042 45.3538 47.4434 45.2098 47.4434 45.0176H46.4434ZM46.9429 46.2056C47.2767 46.5061 47.6802 46.6715 48.1323 46.7038L48.2036 45.7063C47.9631 45.6892 47.7727 45.6072 47.6118 45.4623L46.9429 46.2056ZM48.175 59.6933C53.4341 59.6189 58.4596 59.3212 63.2514 58.7998L63.1432 57.8057C58.3854 58.3234 53.3914 58.6194 48.1609 58.6934L48.175 59.6933ZM63.2536 58.7995C68.0664 58.2538 73.0022 57.4972 78.0607 56.5302L77.8729 55.548C72.8377 56.5106 67.9271 57.2632 63.1409 57.8059L63.2536 58.7995ZM78.0537 56.5315C78.5255 56.4482 78.9486 56.2839 79.2481 55.9844L78.541 55.2773C78.4446 55.3737 78.2492 55.4815 77.8799 55.5467L78.0537 56.5315ZM79.2682 55.963C79.5472 55.6492 79.6914 55.2714 79.6914 54.8516H78.6914C78.6914 55.0255 78.6377 55.1672 78.5208 55.2987L79.2682 55.963ZM79.6914 54.8516C79.6914 54.3711 79.514 53.9475 79.1739 53.6074L78.4668 54.3145C78.6215 54.4692 78.6914 54.6393 78.6914 54.8516H79.6914ZM79.2073 53.6443C78.8499 53.2074 78.3443 53.0707 77.8004 53.1726L77.9847 54.1555C78.2325 54.109 78.3455 54.1702 78.4333 54.2776L79.2073 53.6443ZM77.7978 53.1731C72.8132 54.1355 67.9285 54.8756 63.1435 55.3935L63.2511 56.3877C68.065 55.8666 72.9771 55.1223 77.9874 54.155L77.7978 53.1731ZM63.1432 55.3936C58.3854 55.9112 53.3914 56.2073 48.1609 56.2813L48.175 57.2812C53.4341 57.2068 58.4596 56.9091 63.2514 56.3877L63.1432 55.3936ZM48.1347 56.2824C47.6503 56.3146 47.226 56.4991 46.9057 56.855L47.649 57.5239C47.774 57.385 47.9434 57.2973 48.2012 57.2801L48.1347 56.2824ZM46.9238 56.8359C46.6137 57.146 46.4434 57.5306 46.4434 57.9688H47.4434C47.4434 57.8132 47.4957 57.6782 47.6309 57.543L46.9238 56.8359ZM46.4434 57.9688C46.4434 58.4332 46.5975 58.8496 46.9238 59.1758L47.6309 58.4687C47.5118 58.3496 47.4434 58.1971 47.4434 57.9688H46.4434ZM46.9429 59.1939C47.2767 59.4944 47.6802 59.6598 48.1323 59.6921L48.2036 58.6946C47.9631 58.6774 47.7727 58.5954 47.6118 58.4506L46.9429 59.1939ZM48.175 72.6816C53.4341 72.6072 58.4596 72.3095 63.2514 71.7881L63.1432 70.7939C58.3854 71.3116 53.3914 71.6077 48.1609 71.6817L48.175 72.6816ZM63.2536 71.7878C68.0656 71.2421 73.0005 70.4981 78.0584 69.556L77.8752 68.5729C72.8393 69.511 67.9279 70.2513 63.1409 70.7942L63.2536 71.7878ZM78.0813 69.5512C78.5471 69.4416 78.9579 69.2629 79.2481 68.9727L78.541 68.2656C78.4354 68.3712 78.2277 68.4894 77.8523 68.5777L78.0813 69.5512ZM79.2682 68.9513C79.5472 68.6375 79.6914 68.2596 79.6914 67.8398H78.6914C78.6914 68.0138 78.6377 68.1555 78.5208 68.287L79.2682 68.9513ZM79.6914 67.8398C79.6914 67.3594 79.514 66.9358 79.1739 66.5957L78.4668 67.3028C78.6215 67.4575 78.6914 67.6276 78.6914 67.8398H79.6914ZM79.192 66.6147C78.8373 66.2206 78.352 66.091 77.8306 66.1562L77.9546 67.1485C78.2249 67.1147 78.358 67.183 78.4487 67.2837L79.192 66.6147ZM77.7978 66.1614C72.8132 67.1238 67.9285 67.8638 63.1435 68.3818L63.2511 69.376C68.065 68.8549 72.9771 68.1106 77.9874 67.1433L77.7978 66.1614ZM63.1432 68.3818C58.3854 68.8995 53.3914 69.1956 48.1609 69.2696L48.175 70.2695C53.4341 70.1951 58.4596 69.8974 63.2514 69.376L63.1432 68.3818ZM48.1347 69.2706C47.6503 69.3029 47.226 69.4874 46.9057 69.8433L47.649 70.5122C47.774 70.3733 47.9434 70.2856 48.2012 70.2684L48.1347 69.2706ZM46.9238 69.8242C46.6051 70.1428 46.4434 70.5431 46.4434 70.9941H47.4434C47.4434 70.802 47.5042 70.658 47.6309 70.5313L46.9238 69.8242ZM46.4434 70.9941C46.4434 71.4439 46.6036 71.8465 46.9057 72.1821L47.649 71.5132C47.5058 71.3541 47.4434 71.1876 47.4434 70.9941H46.4434ZM46.9429 72.2193C47.2861 72.5282 47.7036 72.6816 48.168 72.6816V71.6816C47.9396 71.6816 47.7634 71.6124 47.6118 71.476L46.9429 72.2193ZM48.1771 85.6698C50.9092 85.6202 53.4092 85.4835 55.6762 85.2593L55.5777 84.2641C53.3421 84.4853 50.8694 84.6207 48.1589 84.67L48.1771 85.6698ZM55.6762 85.2593C57.9277 85.0366 60.2905 84.8016 62.7646 84.5542L62.6651 83.5591C60.1913 83.8065 57.8288 84.0415 55.5777 84.2641L55.6762 85.2593ZM62.7856 84.5516C63.2265 84.4886 63.6143 84.3096 63.9219 84.002L63.2148 83.2949C63.0771 83.4326 62.8959 83.5257 62.6441 83.5617L62.7856 84.5516ZM63.9219 84.002C64.232 83.6919 64.4023 83.3073 64.4023 82.8691H63.4023C63.4023 83.0247 63.35 83.1597 63.2148 83.2949L63.9219 84.002ZM64.4023 82.8691C64.4023 82.3887 64.2249 81.9651 63.8848 81.625L63.1777 82.3321C63.3324 82.4868 63.4023 82.6569 63.4023 82.8691H64.4023ZM63.8848 81.625C63.5017 81.2418 63.0039 81.128 62.4743 81.2273L62.6586 82.2102C62.9206 82.1611 63.066 82.2204 63.1777 82.3321L63.8848 81.625ZM62.5211 81.2208C60.0706 81.4436 57.7312 81.6664 55.503 81.8892L55.6025 82.8842C57.8274 82.6617 60.1638 82.4392 62.6117 82.2167L62.5211 81.2208ZM55.503 81.8892C53.2941 82.1101 50.8479 82.2332 48.1634 82.2578L48.1726 83.2578C50.8813 83.2329 53.3582 83.1087 55.6025 82.8842L55.503 81.8892ZM48.1347 82.2589C47.6659 82.2902 47.2471 82.452 46.9238 82.7754L47.6309 83.4825C47.7529 83.3605 47.9279 83.2749 48.2012 83.2567L48.1347 82.2589ZM46.9238 82.7754C46.6051 83.094 46.4434 83.4943 46.4434 83.9453H47.4434C47.4434 83.7531 47.5042 83.6091 47.6309 83.4825L46.9238 82.7754ZM46.4434 83.9453C46.4434 84.4097 46.5968 84.8272 46.9057 85.1704L47.649 84.5015C47.5126 84.3499 47.4434 84.1737 47.4434 83.9453H46.4434ZM46.9429 85.2076C47.2861 85.5165 47.7036 85.6699 48.168 85.6699V84.6699C47.9396 84.6699 47.7634 84.6007 47.6118 84.4643L46.9429 85.2076ZM59.7665 107.524C63.8267 107.054 67.8992 106.546 71.9841 106.001L71.8519 105.01C67.7727 105.554 63.7059 106.061 59.6514 106.531L59.7665 107.524ZM71.9807 106.002C76.0936 105.482 80.0832 104.899 83.9494 104.255L83.785 103.269C79.9324 103.911 75.9559 104.491 71.8552 105.01L71.9807 106.002ZM83.9582 104.253C86.0171 103.872 87.8249 103.183 89.3721 102.177L88.8271 101.339C87.4056 102.263 85.7251 102.909 83.7761 103.27L83.9582 104.253ZM89.3671 102.18C90.9277 101.192 92.1386 99.863 92.9952 98.2018L92.1064 97.7435C91.3301 99.249 90.2403 100.444 88.8321 101.335L89.3671 102.18ZM92.9937 98.2047C93.8562 96.558 94.2754 94.5813 94.2754 92.2949H93.2754C93.2754 94.4616 92.8781 96.2701 92.1079 97.7407L92.9937 98.2047ZM94.2754 92.2949V33.1426H93.2754V92.2949H94.2754ZM94.2754 33.1426C94.2754 32.8084 94.2626 32.4962 94.2362 32.2067L93.2403 32.2972C93.2635 32.552 93.2754 32.8335 93.2754 33.1426H94.2754ZM94.2383 32.252C94.2383 31.9412 94.2253 31.6416 94.1991 31.3532L93.2032 31.4437C93.2265 31.6996 93.2383 31.9689 93.2383 32.252H94.2383ZM93.5337 31.8695C94.4999 32.2131 95.29 32.948 95.8887 34.1455L96.7831 33.6983C96.0955 32.3229 95.1291 31.3755 93.8687 30.9273L93.5337 31.8695ZM95.894 34.1558C96.512 35.323 96.8379 36.8558 96.8379 38.7832H97.8379C97.8379 36.7523 97.4958 35.0441 96.7778 33.6879L95.894 34.1558ZM96.8379 38.7832V97.0078H97.8379V38.7832H96.8379ZM96.8379 97.0078C96.8379 100.217 96.0182 102.556 94.4609 104.113L95.168 104.82C96.9752 103.013 97.8379 100.379 97.8379 97.0078H96.8379ZM94.4583 104.116C92.9007 105.696 90.5631 106.527 87.3555 106.527V107.527C90.7286 107.527 93.3636 106.651 95.1706 104.818L94.4583 104.116ZM87.3555 106.527H59.709V107.527H87.3555V106.527Z" fill="url(#paint3_linear_4878_10585)" mask="url(#path-2-outside-1_4878_10585)"/>
<path d="M37.7773 31.9922L38.1212 32.3552L38.1214 32.355L37.7773 31.9922ZM43.8262 29.9141L43.8309 30.414L43.8322 30.414L43.8262 29.9141ZM56.6289 29.3574L56.6653 29.8561L56.6681 29.8559L56.6289 29.3574ZM69.7285 28.0586L69.7881 28.555L69.7905 28.5547L69.7285 28.0586ZM82.123 26.2402L82.2073 26.7331L82.2108 26.7325L82.123 26.2402ZM88.1719 27.4648L87.8542 27.851L87.858 27.8541L88.1719 27.4648ZM88.5801 97.9355L88.223 97.5854L88.2164 97.5924L88.5801 97.9355ZM83.2363 100.57L83.3245 101.063L83.3304 101.061L83.2363 100.57ZM56.5918 103.576L56.5642 103.077L56.5613 103.077L56.5918 103.576ZM43.6406 104.059L43.6347 103.559L43.6306 103.559L43.6406 104.059ZM37.7773 102.166L38.1146 101.797L38.1143 101.797L37.7773 102.166ZM48.168 46.2051L48.1323 46.7038L48.1537 46.7053L48.175 46.705L48.168 46.2051ZM63.1973 45.3145L63.2514 45.8115L63.2536 45.8113L63.1973 45.3145ZM77.9668 43.0508L77.8799 42.5583L77.8729 42.5597L77.9668 43.0508ZM78.8945 42.6426L79.2481 42.9961L79.2585 42.9857L79.2682 42.9748L78.8945 42.6426ZM78.8203 40.9727L78.4487 41.3071L78.4575 41.3169L78.4668 41.3262L78.8203 40.9727ZM77.8926 40.6758L77.8306 40.1796L77.8141 40.1817L77.7978 40.1848L77.8926 40.6758ZM63.1973 42.9023L63.1435 42.4052L63.1432 42.4053L63.1973 42.9023ZM48.168 43.793L48.1609 43.293L48.1478 43.2932L48.1347 43.2941L48.168 43.793ZM47.2773 45.834L46.9238 46.1875L46.9331 46.1968L46.9429 46.2056L47.2773 45.834ZM48.168 59.1934L48.1323 59.6921L48.1537 59.6936L48.175 59.6933L48.168 59.1934ZM63.1973 58.3027L63.2514 58.7998L63.2536 58.7995L63.1973 58.3027ZM77.9668 56.0391L77.8799 55.5466L77.8729 55.548L77.9668 56.0391ZM78.8945 55.6309L79.2481 55.9844L79.2585 55.974L79.2682 55.963L78.8945 55.6309ZM78.8203 53.9609L78.4333 54.2776L78.4491 54.2969L78.4668 54.3145L78.8203 53.9609ZM77.8926 53.6641L77.8004 53.1726L77.7978 53.1731L77.8926 53.6641ZM63.1973 55.8906L63.1435 55.3935L63.1432 55.3936L63.1973 55.8906ZM48.168 56.7812L48.1609 56.2813L48.1478 56.2815L48.1347 56.2824L48.168 56.7812ZM47.2773 57.1895L47.6309 57.543L47.6402 57.5337L47.649 57.5239L47.2773 57.1895ZM47.2773 58.8223L46.9238 59.1758L46.9331 59.1851L46.9429 59.1939L47.2773 58.8223ZM48.168 72.1816V72.6817L48.175 72.6816L48.168 72.1816ZM63.1973 71.291L63.2514 71.7881L63.2536 71.7878L63.1973 71.291ZM77.9668 69.0645L78.0584 69.556L78.0699 69.5539L78.0813 69.5512L77.9668 69.0645ZM78.8945 68.6191L79.2481 68.9727L79.2585 68.9623L79.2682 68.9513L78.8945 68.6191ZM78.8203 66.9492L78.4487 67.2837L78.4575 67.2935L78.4668 67.3028L78.8203 66.9492ZM77.8926 66.6523L77.8306 66.1562L77.8141 66.1583L77.7978 66.1614L77.8926 66.6523ZM63.1973 68.8789L63.1435 68.3818L63.1432 68.3818L63.1973 68.8789ZM48.168 69.7695L48.1609 69.2696L48.1478 69.2698L48.1347 69.2706L48.168 69.7695ZM47.2773 70.1777L47.6309 70.5313L47.6402 70.522L47.649 70.5122L47.2773 70.1777ZM47.2773 71.8477L46.9057 72.1821L46.9233 72.2017L46.9429 72.2193L47.2773 71.8477ZM48.168 85.1699V85.67L48.1771 85.6698L48.168 85.1699ZM62.7148 84.0566L62.7646 84.5542L62.7751 84.5531L62.7856 84.5516L62.7148 84.0566ZM62.5664 81.7188L62.6117 82.2167L62.6353 82.2146L62.6586 82.2102L62.5664 81.7188ZM48.168 82.7578L48.1634 82.2578L48.149 82.258L48.1347 82.2589L48.168 82.7578ZM47.2773 84.8359L46.9057 85.1704L46.9233 85.19L46.9429 85.2076L47.2773 84.8359ZM59.709 107.027L59.6514 106.531L59.709 107.527V107.027ZM71.918 105.506L71.8552 105.01L71.8519 105.01L71.918 105.506ZM83.8672 103.762L83.9494 104.255L83.9582 104.253L83.8672 103.762ZM89.0996 101.758L88.8321 101.335L88.8271 101.339L89.0996 101.758ZM92.5508 97.9727L92.1079 97.7406L92.1064 97.7435L92.5508 97.9727ZM93.7383 32.252H93.2383V32.2746L93.2403 32.2972L93.7383 32.252ZM93.7012 31.3984L93.8687 30.9273L93.1325 30.6656L93.2032 31.4437L93.7012 31.3984ZM96.3359 33.9219L95.8886 34.1455L95.894 34.1558L96.3359 33.9219ZM94.8145 104.467L94.4609 104.113L94.4583 104.116L94.8145 104.467ZM36.1621 96.7852V37.7812H35.1621V96.7852H36.1621ZM36.1621 37.7812C36.1621 35.3519 36.8383 33.5706 38.1212 32.3552L37.4335 31.6292C35.8961 33.0856 35.1621 35.1637 35.1621 37.7812H36.1621ZM38.1214 32.355C39.4388 31.1057 41.3189 30.438 43.8309 30.414L43.8214 29.4141C41.1381 29.4396 38.9857 30.1573 37.4333 31.6294L38.1214 32.355ZM43.8322 30.414C47.9745 30.3644 52.2522 30.1784 56.6653 29.8561L56.5925 28.8588C52.1983 29.1797 47.9409 29.3647 43.8202 29.4141L43.8322 30.414ZM56.6681 29.8559C61.0785 29.509 65.4518 29.0754 69.7881 28.555L69.6689 27.5622C65.3464 28.0809 60.9866 28.5131 56.5897 28.859L56.6681 29.8559ZM69.7905 28.5547C74.1514 28.0096 78.2903 27.4024 82.2073 26.7331L82.0388 25.7474C78.1381 26.414 74.014 27.019 69.6665 27.5625L69.7905 28.5547ZM82.2108 26.7325C84.6084 26.3052 86.4634 26.7069 87.8542 27.851L88.4895 27.0787C86.8127 25.6993 84.635 25.2847 82.0353 25.748L82.2108 26.7325ZM87.858 27.8541C89.2413 28.9696 89.9727 30.6976 89.9727 33.1426H90.9727C90.9727 30.4912 90.1702 28.434 88.4858 27.0756L87.858 27.8541ZM89.9727 33.1426V92.2949H90.9727V33.1426H89.9727ZM89.9727 92.2949C89.9727 94.6877 89.3634 96.4228 88.2231 97.5854L88.937 98.2857C90.3202 96.8754 90.9727 94.85 90.9727 92.2949H89.9727ZM88.2164 97.5924C87.0711 98.8064 85.3968 99.6475 83.1423 100.079L83.3304 101.061C85.7269 100.602 87.6151 99.6871 88.9438 98.2787L88.2164 97.5924ZM83.1481 100.078C78.8798 100.843 74.4997 101.472 70.0079 101.966L70.1171 102.96C74.6305 102.464 79.033 101.831 83.3245 101.062L83.1481 100.078ZM70.0079 101.966C65.5142 102.46 61.033 102.83 56.5642 103.077L56.6194 104.075C61.1064 103.828 65.6056 103.456 70.1171 102.96L70.0079 101.966ZM56.5613 103.077C52.1158 103.349 47.807 103.509 43.6347 103.559L43.6465 104.559C47.8363 104.509 52.1615 104.348 56.6223 104.075L56.5613 103.077ZM43.6306 103.559C41.2484 103.606 39.4309 103 38.1146 101.797L37.4401 102.535C38.9935 103.955 41.0849 104.61 43.6506 104.558L43.6306 103.559ZM38.1143 101.797C36.8291 100.624 36.1621 98.9767 36.1621 96.7852H35.1621C35.1621 99.1952 35.9053 101.135 37.4404 102.535L38.1143 101.797ZM48.175 46.705C53.4341 46.6306 58.4596 46.3329 63.2514 45.8115L63.1432 44.8174C58.3854 45.3351 53.3914 45.6311 48.1609 45.7051L48.175 46.705ZM63.2536 45.8113C68.0664 45.2655 73.0022 44.509 78.0607 43.5419L77.8729 42.5597C72.8377 43.5223 67.9271 44.2749 63.1409 44.8176L63.2536 45.8113ZM78.0537 43.5432C78.5255 43.4599 78.9486 43.2956 79.2481 42.9961L78.541 42.289C78.4446 42.3854 78.2492 42.4932 77.8799 42.5584L78.0537 43.5432ZM79.2682 42.9748C79.5543 42.653 79.6914 42.2597 79.6914 41.8262H78.6914C78.6914 42.0359 78.6306 42.1869 78.5208 42.3104L79.2682 42.9748ZM79.6914 41.8262C79.6914 41.3596 79.506 40.9512 79.1739 40.6191L78.4668 41.3262C78.6295 41.4889 78.6914 41.6495 78.6914 41.8262H79.6914ZM79.192 40.6382C78.8373 40.2441 78.352 40.1145 77.8306 40.1796L77.9546 41.1719C78.2249 41.1381 78.358 41.2065 78.4487 41.3071L79.192 40.6382ZM77.7978 40.1848C72.8132 41.1472 67.9285 41.8873 63.1435 42.4052L63.2511 43.3994C68.065 42.8783 72.9771 42.134 77.9874 41.1667L77.7978 40.1848ZM63.1432 42.4053C58.3854 42.923 53.3914 43.219 48.1609 43.293L48.175 44.2929C53.4341 44.2185 58.4596 43.9208 63.2514 43.3994L63.1432 42.4053ZM48.1347 43.2941C47.6659 43.3253 47.2471 43.4872 46.9238 43.8105L47.6309 44.5176C47.7529 44.3957 47.9279 44.3101 48.2012 44.2919L48.1347 43.2941ZM46.9238 43.8105C46.5975 44.1368 46.4434 44.5532 46.4434 45.0176H47.4434C47.4434 44.7893 47.5118 44.6367 47.6309 44.5176L46.9238 43.8105ZM46.4434 45.0176C46.4434 45.4686 46.6051 45.8689 46.9238 46.1875L47.6309 45.4804C47.5042 45.3538 47.4434 45.2098 47.4434 45.0176H46.4434ZM46.9429 46.2056C47.2767 46.5061 47.6802 46.6715 48.1323 46.7038L48.2036 45.7063C47.9631 45.6892 47.7727 45.6072 47.6118 45.4623L46.9429 46.2056ZM48.175 59.6933C53.4341 59.6189 58.4596 59.3212 63.2514 58.7998L63.1432 57.8057C58.3854 58.3234 53.3914 58.6194 48.1609 58.6934L48.175 59.6933ZM63.2536 58.7995C68.0664 58.2538 73.0022 57.4972 78.0607 56.5302L77.8729 55.548C72.8377 56.5106 67.9271 57.2632 63.1409 57.8059L63.2536 58.7995ZM78.0537 56.5315C78.5255 56.4482 78.9486 56.2839 79.2481 55.9844L78.541 55.2773C78.4446 55.3737 78.2492 55.4815 77.8799 55.5467L78.0537 56.5315ZM79.2682 55.963C79.5472 55.6492 79.6914 55.2714 79.6914 54.8516H78.6914C78.6914 55.0255 78.6377 55.1672 78.5208 55.2987L79.2682 55.963ZM79.6914 54.8516C79.6914 54.3711 79.514 53.9475 79.1739 53.6074L78.4668 54.3145C78.6215 54.4692 78.6914 54.6393 78.6914 54.8516H79.6914ZM79.2073 53.6443C78.8499 53.2074 78.3443 53.0707 77.8004 53.1726L77.9847 54.1555C78.2325 54.109 78.3455 54.1702 78.4333 54.2776L79.2073 53.6443ZM77.7978 53.1731C72.8132 54.1355 67.9285 54.8756 63.1435 55.3935L63.2511 56.3877C68.065 55.8666 72.9771 55.1223 77.9874 54.155L77.7978 53.1731ZM63.1432 55.3936C58.3854 55.9112 53.3914 56.2073 48.1609 56.2813L48.175 57.2812C53.4341 57.2068 58.4596 56.9091 63.2514 56.3877L63.1432 55.3936ZM48.1347 56.2824C47.6503 56.3146 47.226 56.4991 46.9057 56.855L47.649 57.5239C47.774 57.385 47.9434 57.2973 48.2012 57.2801L48.1347 56.2824ZM46.9238 56.8359C46.6137 57.146 46.4434 57.5306 46.4434 57.9688H47.4434C47.4434 57.8132 47.4957 57.6782 47.6309 57.543L46.9238 56.8359ZM46.4434 57.9688C46.4434 58.4332 46.5975 58.8496 46.9238 59.1758L47.6309 58.4687C47.5118 58.3496 47.4434 58.1971 47.4434 57.9688H46.4434ZM46.9429 59.1939C47.2767 59.4944 47.6802 59.6598 48.1323 59.6921L48.2036 58.6946C47.9631 58.6774 47.7727 58.5954 47.6118 58.4506L46.9429 59.1939ZM48.175 72.6816C53.4341 72.6072 58.4596 72.3095 63.2514 71.7881L63.1432 70.7939C58.3854 71.3116 53.3914 71.6077 48.1609 71.6817L48.175 72.6816ZM63.2536 71.7878C68.0656 71.2421 73.0005 70.4981 78.0584 69.556L77.8752 68.5729C72.8393 69.511 67.9279 70.2513 63.1409 70.7942L63.2536 71.7878ZM78.0813 69.5512C78.5471 69.4416 78.9579 69.2629 79.2481 68.9727L78.541 68.2656C78.4354 68.3712 78.2277 68.4894 77.8523 68.5777L78.0813 69.5512ZM79.2682 68.9513C79.5472 68.6375 79.6914 68.2596 79.6914 67.8398H78.6914C78.6914 68.0138 78.6377 68.1555 78.5208 68.287L79.2682 68.9513ZM79.6914 67.8398C79.6914 67.3594 79.514 66.9358 79.1739 66.5957L78.4668 67.3028C78.6215 67.4575 78.6914 67.6276 78.6914 67.8398H79.6914ZM79.192 66.6147C78.8373 66.2206 78.352 66.091 77.8306 66.1562L77.9546 67.1485C78.2249 67.1147 78.358 67.183 78.4487 67.2837L79.192 66.6147ZM77.7978 66.1614C72.8132 67.1238 67.9285 67.8638 63.1435 68.3818L63.2511 69.376C68.065 68.8549 72.9771 68.1106 77.9874 67.1433L77.7978 66.1614ZM63.1432 68.3818C58.3854 68.8995 53.3914 69.1956 48.1609 69.2696L48.175 70.2695C53.4341 70.1951 58.4596 69.8974 63.2514 69.376L63.1432 68.3818ZM48.1347 69.2706C47.6503 69.3029 47.226 69.4874 46.9057 69.8433L47.649 70.5122C47.774 70.3733 47.9434 70.2856 48.2012 70.2684L48.1347 69.2706ZM46.9238 69.8242C46.6051 70.1428 46.4434 70.5431 46.4434 70.9941H47.4434C47.4434 70.802 47.5042 70.658 47.6309 70.5313L46.9238 69.8242ZM46.4434 70.9941C46.4434 71.4439 46.6036 71.8465 46.9057 72.1821L47.649 71.5132C47.5058 71.3541 47.4434 71.1876 47.4434 70.9941H46.4434ZM46.9429 72.2193C47.2861 72.5282 47.7036 72.6816 48.168 72.6816V71.6816C47.9396 71.6816 47.7634 71.6124 47.6118 71.476L46.9429 72.2193ZM48.1771 85.6698C50.9092 85.6202 53.4092 85.4835 55.6762 85.2593L55.5777 84.2641C53.3421 84.4853 50.8694 84.6207 48.1589 84.67L48.1771 85.6698ZM55.6762 85.2593C57.9277 85.0366 60.2905 84.8016 62.7646 84.5542L62.6651 83.5591C60.1913 83.8065 57.8288 84.0415 55.5777 84.2641L55.6762 85.2593ZM62.7856 84.5516C63.2265 84.4886 63.6143 84.3096 63.9219 84.002L63.2148 83.2949C63.0771 83.4326 62.8959 83.5257 62.6441 83.5617L62.7856 84.5516ZM63.9219 84.002C64.232 83.6919 64.4023 83.3073 64.4023 82.8691H63.4023C63.4023 83.0247 63.35 83.1597 63.2148 83.2949L63.9219 84.002ZM64.4023 82.8691C64.4023 82.3887 64.2249 81.9651 63.8848 81.625L63.1777 82.3321C63.3324 82.4868 63.4023 82.6569 63.4023 82.8691H64.4023ZM63.8848 81.625C63.5017 81.2418 63.0039 81.128 62.4743 81.2273L62.6586 82.2102C62.9206 82.1611 63.066 82.2204 63.1777 82.3321L63.8848 81.625ZM62.5211 81.2208C60.0706 81.4436 57.7312 81.6664 55.503 81.8892L55.6025 82.8842C57.8274 82.6617 60.1638 82.4392 62.6117 82.2167L62.5211 81.2208ZM55.503 81.8892C53.2941 82.1101 50.8479 82.2332 48.1634 82.2578L48.1726 83.2578C50.8813 83.2329 53.3582 83.1087 55.6025 82.8842L55.503 81.8892ZM48.1347 82.2589C47.6659 82.2902 47.2471 82.452 46.9238 82.7754L47.6309 83.4825C47.7529 83.3605 47.9279 83.2749 48.2012 83.2567L48.1347 82.2589ZM46.9238 82.7754C46.6051 83.094 46.4434 83.4943 46.4434 83.9453H47.4434C47.4434 83.7531 47.5042 83.6091 47.6309 83.4825L46.9238 82.7754ZM46.4434 83.9453C46.4434 84.4097 46.5968 84.8272 46.9057 85.1704L47.649 84.5015C47.5126 84.3499 47.4434 84.1737 47.4434 83.9453H46.4434ZM46.9429 85.2076C47.2861 85.5165 47.7036 85.6699 48.168 85.6699V84.6699C47.9396 84.6699 47.7634 84.6007 47.6118 84.4643L46.9429 85.2076ZM59.7665 107.524C63.8267 107.054 67.8992 106.546 71.9841 106.001L71.8519 105.01C67.7727 105.554 63.7059 106.061 59.6514 106.531L59.7665 107.524ZM71.9807 106.002C76.0936 105.482 80.0832 104.899 83.9494 104.255L83.785 103.269C79.9324 103.911 75.9559 104.491 71.8552 105.01L71.9807 106.002ZM83.9582 104.253C86.0171 103.872 87.8249 103.183 89.3721 102.177L88.8271 101.339C87.4056 102.263 85.7251 102.909 83.7761 103.27L83.9582 104.253ZM89.3671 102.18C90.9277 101.192 92.1386 99.863 92.9952 98.2018L92.1064 97.7435C91.3301 99.249 90.2403 100.444 88.8321 101.335L89.3671 102.18ZM92.9937 98.2047C93.8562 96.558 94.2754 94.5813 94.2754 92.2949H93.2754C93.2754 94.4616 92.8781 96.2701 92.1079 97.7407L92.9937 98.2047ZM94.2754 92.2949V33.1426H93.2754V92.2949H94.2754ZM94.2754 33.1426C94.2754 32.8084 94.2626 32.4962 94.2362 32.2067L93.2403 32.2972C93.2635 32.552 93.2754 32.8335 93.2754 33.1426H94.2754ZM94.2383 32.252C94.2383 31.9412 94.2253 31.6416 94.1991 31.3532L93.2032 31.4437C93.2265 31.6996 93.2383 31.9689 93.2383 32.252H94.2383ZM93.5337 31.8695C94.4999 32.2131 95.29 32.948 95.8887 34.1455L96.7831 33.6983C96.0955 32.3229 95.1291 31.3755 93.8687 30.9273L93.5337 31.8695ZM95.894 34.1558C96.512 35.323 96.8379 36.8558 96.8379 38.7832H97.8379C97.8379 36.7523 97.4958 35.0441 96.7778 33.6879L95.894 34.1558ZM96.8379 38.7832V97.0078H97.8379V38.7832H96.8379ZM96.8379 97.0078C96.8379 100.217 96.0182 102.556 94.4609 104.113L95.168 104.82C96.9752 103.013 97.8379 100.379 97.8379 97.0078H96.8379ZM94.4583 104.116C92.9007 105.696 90.5631 106.527 87.3555 106.527V107.527C90.7286 107.527 93.3636 106.651 95.1706 104.818L94.4583 104.116ZM87.3555 106.527H59.709V107.527H87.3555V106.527Z" fill="url(#paint4_linear_4878_10585)" mask="url(#path-2-outside-1_4878_10585)"/>
</g>
<g filter="url(#filter1_d_4878_10585)">
<circle cx="19" cy="113" r="3" fill="url(#paint5_linear_4878_10585)" shape-rendering="crispEdges"/>
<circle cx="19" cy="113" r="3.25" stroke="url(#paint6_linear_4878_10585)" stroke-width="0.5" shape-rendering="crispEdges"/>
</g>
<g filter="url(#filter2_d_4878_10585)">
<circle cx="19" cy="19" r="3" fill="url(#paint7_linear_4878_10585)" shape-rendering="crispEdges"/>
<circle cx="19" cy="19" r="3.25" stroke="url(#paint8_linear_4878_10585)" stroke-width="0.5" shape-rendering="crispEdges"/>
</g>
<g filter="url(#filter3_d_4878_10585)">
<circle cx="113" cy="113" r="3" fill="url(#paint9_linear_4878_10585)" shape-rendering="crispEdges"/>
<circle cx="113" cy="113" r="3.25" stroke="url(#paint10_linear_4878_10585)" stroke-width="0.5" shape-rendering="crispEdges"/>
</g>
<g filter="url(#filter4_d_4878_10585)">
<circle cx="113" cy="19" r="3" fill="url(#paint11_linear_4878_10585)" shape-rendering="crispEdges"/>
<circle cx="113" cy="19" r="3.25" stroke="url(#paint12_linear_4878_10585)" stroke-width="0.5" shape-rendering="crispEdges"/>
</g>
</g>
<defs>
<filter id="filter0_dd_4878_10585" x="-4.33789" y="-22.4277" width="141.676" height="161.455" filterUnits="userSpaceOnUse" color-interpolation-filters="sRGB">
<feFlood flood-opacity="0" result="BackgroundImageFix"/>
<feColorMatrix in="SourceAlpha" type="matrix" values="0 0 0 0 0 0 0 0 0 0 0 0 0 0 0 0 0 0 127 0" result="hardAlpha"/>
<feOffset dy="12"/>
<feGaussianBlur stdDeviation="8"/>
<feComposite in2="hardAlpha" operator="out"/>
<feColorMatrix type="matrix" values="0 0 0 0 0.535937 0 0 0 0 0.57861 0 0 0 0 0.639063 0 0 0 0.16 0"/>
<feBlend mode="color-burn" in2="BackgroundImageFix" result="effect1_dropShadow_4878_10585"/>
<feColorMatrix in="SourceAlpha" type="matrix" values="0 0 0 0 0 0 0 0 0 0 0 0 0 0 0 0 0 0 127 0" result="hardAlpha"/>
<feOffset dy="-8"/>
<feGaussianBlur stdDeviation="20"/>
<feComposite in2="hardAlpha" operator="out"/>
<feColorMatrix type="matrix" values="0 0 0 0 0.691667 0 0 0 0 0.739333 0 0 0 0 0.908333 0 0 0 0.42 0"/>
<feBlend mode="normal" in2="effect1_dropShadow_4878_10585" result="effect2_dropShadow_4878_10585"/>
<feBlend mode="normal" in="SourceGraphic" in2="effect2_dropShadow_4878_10585" result="shape"/>
</filter>
<filter id="filter1_d_4878_10585" x="-0.5" y="105.5" width="39" height="39" filterUnits="userSpaceOnUse" color-interpolation-filters="sRGB">
<feFlood flood-opacity="0" result="BackgroundImageFix"/>
<feColorMatrix in="SourceAlpha" type="matrix" values="0 0 0 0 0 0 0 0 0 0 0 0 0 0 0 0 0 0 127 0" result="hardAlpha"/>
<feOffset dy="12"/>
<feGaussianBlur stdDeviation="8"/>
<feComposite in2="hardAlpha" operator="out"/>
<feColorMatrix type="matrix" values="0 0 0 0 0.535937 0 0 0 0 0.57861 0 0 0 0 0.639063 0 0 0 0.1 0"/>
<feBlend mode="color-burn" in2="BackgroundImageFix" result="effect1_dropShadow_4878_10585"/>
<feBlend mode="normal" in="SourceGraphic" in2="effect1_dropShadow_4878_10585" result="shape"/>
</filter>
<filter id="filter2_d_4878_10585" x="-0.5" y="11.5" width="39" height="39" filterUnits="userSpaceOnUse" color-interpolation-filters="sRGB">
<feFlood flood-opacity="0" result="BackgroundImageFix"/>
<feColorMatrix in="SourceAlpha" type="matrix" values="0 0 0 0 0 0 0 0 0 0 0 0 0 0 0 0 0 0 127 0" result="hardAlpha"/>
<feOffset dy="12"/>
<feGaussianBlur stdDeviation="8"/>
<feComposite in2="hardAlpha" operator="out"/>
<feColorMatrix type="matrix" values="0 0 0 0 0.535937 0 0 0 0 0.57861 0 0 0 0 0.639063 0 0 0 0.1 0"/>
<feBlend mode="color-burn" in2="BackgroundImageFix" result="effect1_dropShadow_4878_10585"/>
<feBlend mode="normal" in="SourceGraphic" in2="effect1_dropShadow_4878_10585" result="shape"/>
</filter>
<filter id="filter3_d_4878_10585" x="93.5" y="105.5" width="39" height="39" filterUnits="userSpaceOnUse" color-interpolation-filters="sRGB">
<feFlood flood-opacity="0" result="BackgroundImageFix"/>
<feColorMatrix in="SourceAlpha" type="matrix" values="0 0 0 0 0 0 0 0 0 0 0 0 0 0 0 0 0 0 127 0" result="hardAlpha"/>
<feOffset dy="12"/>
<feGaussianBlur stdDeviation="8"/>
<feComposite in2="hardAlpha" operator="out"/>
<feColorMatrix type="matrix" values="0 0 0 0 0.535937 0 0 0 0 0.57861 0 0 0 0 0.639063 0 0 0 0.1 0"/>
<feBlend mode="color-burn" in2="BackgroundImageFix" result="effect1_dropShadow_4878_10585"/>
<feBlend mode="normal" in="SourceGraphic" in2="effect1_dropShadow_4878_10585" result="shape"/>
</filter>
<filter id="filter4_d_4878_10585" x="93.5" y="11.5" width="39" height="39" filterUnits="userSpaceOnUse" color-interpolation-filters="sRGB">
<feFlood flood-opacity="0" result="BackgroundImageFix"/>
<feColorMatrix in="SourceAlpha" type="matrix" values="0 0 0 0 0 0 0 0 0 0 0 0 0 0 0 0 0 0 127 0" result="hardAlpha"/>
<feOffset dy="12"/>
<feGaussianBlur stdDeviation="8"/>
<feComposite in2="hardAlpha" operator="out"/>
<feColorMatrix type="matrix" values="0 0 0 0 0.535937 0 0 0 0 0.57861 0 0 0 0 0.639063 0 0 0 0.1 0"/>
<feBlend mode="color-burn" in2="BackgroundImageFix" result="effect1_dropShadow_4878_10585"/>
<feBlend mode="normal" in="SourceGraphic" in2="effect1_dropShadow_4878_10585" result="shape"/>
</filter>
<linearGradient id="paint0_linear_4878_10585" x1="68.7123" y1="-3.34177" x2="68.7123" y2="133.671" gradientUnits="userSpaceOnUse">
<stop stop-color="#DBE3EA"/>
<stop offset="1" stop-color="#AFBBCD"/>
</linearGradient>
<linearGradient id="paint1_linear_4878_10585" x1="66" y1="0" x2="66" y2="132" gradientUnits="userSpaceOnUse">
<stop stop-color="#F5F7F8"/>
<stop offset="1" stop-color="white" stop-opacity="0"/>
</linearGradient>
<radialGradient id="paint2_radial_4878_10585" cx="0" cy="0" r="1" gradientUnits="userSpaceOnUse" gradientTransform="translate(67.0548 93.6923) rotate(-90) scale(56.4231 83.8146)">
<stop stop-color="white"/>
<stop offset="0.297177" stop-color="white"/>
<stop offset="0.615948" stop-color="white" stop-opacity="0.71"/>
<stop offset="1" stop-color="white" stop-opacity="0.52"/>
</radialGradient>
<linearGradient id="paint3_linear_4878_10585" x1="66.5" y1="39" x2="66.5" y2="93.6923" gradientUnits="userSpaceOnUse">
<stop stop-color="white"/>
<stop offset="1" stop-color="white"/>
</linearGradient>
<linearGradient id="paint4_linear_4878_10585" x1="66.5" y1="39" x2="66.5" y2="93.6923" gradientUnits="userSpaceOnUse">
<stop stop-color="white"/>
<stop offset="1" stop-color="white" stop-opacity="0"/>
</linearGradient>
<linearGradient id="paint5_linear_4878_10585" x1="19.1233" y1="109.848" x2="19.1233" y2="116.076" gradientUnits="userSpaceOnUse">
<stop stop-color="#B4BFD0"/>
<stop offset="1" stop-color="#8297B7"/>
</linearGradient>
<linearGradient id="paint6_linear_4878_10585" x1="19" y1="110" x2="19" y2="116" gradientUnits="userSpaceOnUse">
<stop stop-color="white"/>
<stop offset="1" stop-color="white" stop-opacity="0"/>
</linearGradient>
<linearGradient id="paint7_linear_4878_10585" x1="19.1233" y1="15.8481" x2="19.1233" y2="22.0759" gradientUnits="userSpaceOnUse">
<stop stop-color="#B4BFD0"/>
<stop offset="1" stop-color="#8297B7"/>
</linearGradient>
<linearGradient id="paint8_linear_4878_10585" x1="19" y1="16" x2="19" y2="22" gradientUnits="userSpaceOnUse">
<stop stop-color="white"/>
<stop offset="1" stop-color="white" stop-opacity="0"/>
</linearGradient>
<linearGradient id="paint9_linear_4878_10585" x1="113.123" y1="109.848" x2="113.123" y2="116.076" gradientUnits="userSpaceOnUse">
<stop stop-color="#B4BFD0"/>
<stop offset="1" stop-color="#8297B7"/>
</linearGradient>
<linearGradient id="paint10_linear_4878_10585" x1="113" y1="110" x2="113" y2="116" gradientUnits="userSpaceOnUse">
<stop stop-color="white"/>
<stop offset="1" stop-color="white" stop-opacity="0"/>
</linearGradient>
<linearGradient id="paint11_linear_4878_10585" x1="113.123" y1="15.8481" x2="113.123" y2="22.0759" gradientUnits="userSpaceOnUse">
<stop stop-color="#B4BFD0"/>
<stop offset="1" stop-color="#8297B7"/>
</linearGradient>
<linearGradient id="paint12_linear_4878_10585" x1="113" y1="16" x2="113" y2="22" gradientUnits="userSpaceOnUse">
<stop stop-color="white"/>
<stop offset="1" stop-color="white" stop-opacity="0"/>
</linearGradient>
<clipPath id="clip0_4878_10585">
<rect width="132" height="132" fill="white"/>
</clipPath>
</defs>
</svg>
