<svg width="24" height="24" viewBox="0 0 24 24" fill="none" xmlns="http://www.w3.org/2000/svg">
<path d="M20.4593 16.5153C20.8198 16.9308 21 17.1385 21 17.5C21 17.8615 20.8198 18.0692 20.4593 18.4847C19.5612 19.5199 17.9381 21 16 21C14.0619 21 12.4388 19.5199 11.5407 18.4847C11.1802 18.0692 11 17.8615 11 17.5C11 17.1385 11.1802 16.9308 11.5407 16.5153C12.4388 15.4801 14.0619 14 16 14C17.9381 14 19.5612 15.4801 20.4593 16.5153Z" stroke="#11181C" stroke-width="1.5"/>
<path d="M20 12.0032V8.81989C20 7.12616 20 6.27928 19.732 5.60291C19.3012 4.51554 18.3902 3.65784 17.2352 3.25228C16.5168 3 15.6173 3 13.8182 3C10.6698 3 9.09563 3 7.83836 3.44148C5.81714 4.15122 4.22281 5.6522 3.46894 7.55509C3 8.73875 3 10.2208 3 13.1848V15.731C3 17.653 3.06419 19.0531 4.70307 20.2078C5.61506 20.8506 6.85019 20.9757 9 21" stroke="#11181C" stroke-width="1.5"/>
<path d="M3 13C3 11.1591 4.49238 9.66667 6.33333 9.66667C6.99912 9.66667 7.78404 9.78333 8.43137 9.60988C9.00652 9.45576 9.45576 9.00652 9.60988 8.43136C9.78333 7.78404 9.66667 6.99912 9.66667 6.33333C9.66667 4.49238 11.1591 3 13 3" stroke="#11181C" stroke-width="1.5"/>
<path d="M15.9922 17.5H16.0012" stroke="#11181C" stroke-width="2" stroke-linecap="round" stroke-linejoin="round"/>
</svg>
