<svg width="24" height="24" viewBox="0 0 24 24" fill="none" xmlns="http://www.w3.org/2000/svg">
<path d="M3 12C7.5 12 12 7.5 12 3C12 7.5 16.5 12 21 12C16.5 12 12 16.5 12 21C12 16.5 7.5 12 3 12Z" stroke="#11181C" stroke-width="1.5"/>
<path d="M3 12C7.5 12 12 7.5 12 3C12 7.5 16.5 12 21 12C16.5 12 12 16.5 12 21C12 16.5 7.5 12 3 12Z" stroke="#11181C" stroke-width="1.5"/>
<path d="M3 12C7.5 12 12 7.5 12 3C12 7.5 16.5 12 21 12C16.5 12 12 16.5 12 21C12 16.5 7.5 12 3 12Z" stroke="#11181C" stroke-width="1.5"/>
<path d="M3 12C7.5 12 12 7.5 12 3C12 7.5 16.5 12 21 12C16.5 12 12 16.5 12 21C12 16.5 7.5 12 3 12Z" stroke="#11181C" stroke-width="1.5"/>
<path d="M3 12C7.5 12 12 7.5 12 3C12 7.5 16.5 12 21 12C16.5 12 12 16.5 12 21C12 16.5 7.5 12 3 12Z" stroke="#11181C" stroke-width="1.5"/>
</svg>
