<svg width="132" height="132" viewBox="0 0 132 132" fill="none" xmlns="http://www.w3.org/2000/svg">
<g clip-path="url(#clip0_2707_13172)">
<rect x="0.5" y="0.5" width="131" height="131" rx="27.5" fill="url(#paint0_linear_2707_13172)" stroke="url(#paint1_linear_2707_13172)"/>
<g filter="url(#filter0_dd_2707_13172)">
<mask id="path-2-outside-1_2707_13172" maskUnits="userSpaceOnUse" x="22" y="32" width="88" height="68" fill="black">
<rect fill="white" x="22" y="32" width="88" height="68"/>
<path d="M37.7598 51.252C38.6751 51.252 39.4544 50.9303 40.0977 50.2871C40.7656 49.6439 41.0996 48.8646 41.0996 47.9492C41.0996 47.0339 40.7656 46.2546 40.0977 45.6113C39.4544 44.9434 38.6751 44.6094 37.7598 44.6094C36.8691 44.6094 36.0898 44.9434 35.4219 45.6113C34.7786 46.2546 34.457 47.0339 34.457 47.9492C34.457 48.8398 34.7786 49.6191 35.4219 50.2871C36.0898 50.9303 36.8691 51.252 37.7598 51.252ZM37.7598 63.3867C38.6751 63.3867 39.4544 63.0651 40.0977 62.4219C40.7656 61.7786 41.0996 60.9993 41.0996 60.084C41.0996 59.1439 40.7656 58.3522 40.0977 57.709C39.4544 57.041 38.6751 56.707 37.7598 56.707C36.8691 56.707 36.0898 57.041 35.4219 57.709C34.7786 58.377 34.457 59.1686 34.457 60.084C34.457 60.9746 34.7786 61.7539 35.4219 62.4219C36.0898 63.0651 36.8691 63.3867 37.7598 63.3867ZM37.7598 75.4844C38.6751 75.4844 39.4544 75.1628 40.0977 74.5195C40.7656 73.8763 41.0996 73.0846 41.0996 72.1445C41.0996 71.2292 40.7656 70.4499 40.0977 69.8066C39.4544 69.1634 38.6751 68.8418 37.7598 68.8418C36.8444 68.8418 36.0651 69.1758 35.4219 69.8438C34.7786 70.487 34.457 71.2539 34.457 72.1445C34.457 73.0846 34.7786 73.8763 35.4219 74.5195C36.0651 75.1628 36.8444 75.4844 37.7598 75.4844ZM37.7598 87.7305C38.6751 87.7305 39.4544 87.4089 40.0977 86.7656C40.7656 86.1224 41.0996 85.3307 41.0996 84.3906C41.0996 83.4753 40.7656 82.696 40.0977 82.0527C39.4544 81.3848 38.6751 81.0508 37.7598 81.0508C36.8691 81.0508 36.0898 81.3848 35.4219 82.0527C34.7786 82.7207 34.457 83.5 34.457 84.3906C34.457 85.306 34.7786 86.0977 35.4219 86.7656C36.0898 87.4089 36.8691 87.7305 37.7598 87.7305ZM50.9336 49.1738H97.1719C97.543 49.1738 97.8398 49.0625 98.0625 48.8398C98.3099 48.5924 98.4336 48.2956 98.4336 47.9492C98.4336 47.5781 98.3099 47.2812 98.0625 47.0586C97.8398 46.8112 97.543 46.6875 97.1719 46.6875H50.9336C50.5872 46.6875 50.2904 46.8112 50.043 47.0586C49.7956 47.2812 49.6719 47.5781 49.6719 47.9492C49.6719 48.2956 49.7956 48.5924 50.043 48.8398C50.2904 49.0625 50.5872 49.1738 50.9336 49.1738ZM50.9336 61.3086H78.0977C78.4688 61.3086 78.7656 61.1973 78.9883 60.9746C79.2357 60.7272 79.3594 60.4303 79.3594 60.084C79.3594 59.7129 79.2357 59.416 78.9883 59.1934C78.7656 58.946 78.4688 58.8223 78.0977 58.8223H50.9336C50.5872 58.8223 50.2904 58.946 50.043 59.1934C49.7956 59.416 49.6719 59.7129 49.6719 60.084C49.6719 60.4303 49.7956 60.7272 50.043 60.9746C50.2904 61.1973 50.5872 61.3086 50.9336 61.3086ZM50.9336 73.4062H97.1719C97.543 73.4062 97.8398 73.2949 98.0625 73.0723C98.3099 72.8249 98.4336 72.5156 98.4336 72.1445C98.4336 71.7982 98.3099 71.5137 98.0625 71.291C97.8398 71.0684 97.543 70.957 97.1719 70.957H50.9336C50.5872 70.957 50.2904 71.0684 50.043 71.291C49.7956 71.5137 49.6719 71.7982 49.6719 72.1445C49.6719 72.5156 49.7956 72.8249 50.043 73.0723C50.2904 73.2949 50.5872 73.4062 50.9336 73.4062ZM50.9336 85.6523H78.0977C78.4688 85.6523 78.7656 85.541 78.9883 85.3184C79.2357 85.071 79.3594 84.7617 79.3594 84.3906C79.3594 84.0443 79.2357 83.7598 78.9883 83.5371C78.7656 83.2897 78.4688 83.166 78.0977 83.166H50.9336C50.5872 83.166 50.2904 83.2897 50.043 83.5371C49.7956 83.7598 49.6719 84.0443 49.6719 84.3906C49.6719 84.7617 49.7956 85.071 50.043 85.3184C50.2904 85.541 50.5872 85.6523 50.9336 85.6523ZM32.9355 99.0488C29.6699 99.0488 27.1836 98.2077 25.4766 96.5254C23.7943 94.8431 22.9531 92.3568 22.9531 89.0664V43.3105C22.9531 40.0697 23.7943 37.6081 25.4766 35.9258C27.1836 34.2188 29.6699 33.3652 32.9355 33.3652H99.0645C102.355 33.3652 104.841 34.2188 106.523 35.9258C108.206 37.6328 109.047 40.0944 109.047 43.3105V89.0664C109.047 92.3073 108.206 94.7812 106.523 96.4883C104.841 98.1953 102.355 99.0488 99.0645 99.0488H32.9355Z"/>
</mask>
<path d="M37.7598 51.252C38.6751 51.252 39.4544 50.9303 40.0977 50.2871C40.7656 49.6439 41.0996 48.8646 41.0996 47.9492C41.0996 47.0339 40.7656 46.2546 40.0977 45.6113C39.4544 44.9434 38.6751 44.6094 37.7598 44.6094C36.8691 44.6094 36.0898 44.9434 35.4219 45.6113C34.7786 46.2546 34.457 47.0339 34.457 47.9492C34.457 48.8398 34.7786 49.6191 35.4219 50.2871C36.0898 50.9303 36.8691 51.252 37.7598 51.252ZM37.7598 63.3867C38.6751 63.3867 39.4544 63.0651 40.0977 62.4219C40.7656 61.7786 41.0996 60.9993 41.0996 60.084C41.0996 59.1439 40.7656 58.3522 40.0977 57.709C39.4544 57.041 38.6751 56.707 37.7598 56.707C36.8691 56.707 36.0898 57.041 35.4219 57.709C34.7786 58.377 34.457 59.1686 34.457 60.084C34.457 60.9746 34.7786 61.7539 35.4219 62.4219C36.0898 63.0651 36.8691 63.3867 37.7598 63.3867ZM37.7598 75.4844C38.6751 75.4844 39.4544 75.1628 40.0977 74.5195C40.7656 73.8763 41.0996 73.0846 41.0996 72.1445C41.0996 71.2292 40.7656 70.4499 40.0977 69.8066C39.4544 69.1634 38.6751 68.8418 37.7598 68.8418C36.8444 68.8418 36.0651 69.1758 35.4219 69.8438C34.7786 70.487 34.457 71.2539 34.457 72.1445C34.457 73.0846 34.7786 73.8763 35.4219 74.5195C36.0651 75.1628 36.8444 75.4844 37.7598 75.4844ZM37.7598 87.7305C38.6751 87.7305 39.4544 87.4089 40.0977 86.7656C40.7656 86.1224 41.0996 85.3307 41.0996 84.3906C41.0996 83.4753 40.7656 82.696 40.0977 82.0527C39.4544 81.3848 38.6751 81.0508 37.7598 81.0508C36.8691 81.0508 36.0898 81.3848 35.4219 82.0527C34.7786 82.7207 34.457 83.5 34.457 84.3906C34.457 85.306 34.7786 86.0977 35.4219 86.7656C36.0898 87.4089 36.8691 87.7305 37.7598 87.7305ZM50.9336 49.1738H97.1719C97.543 49.1738 97.8398 49.0625 98.0625 48.8398C98.3099 48.5924 98.4336 48.2956 98.4336 47.9492C98.4336 47.5781 98.3099 47.2812 98.0625 47.0586C97.8398 46.8112 97.543 46.6875 97.1719 46.6875H50.9336C50.5872 46.6875 50.2904 46.8112 50.043 47.0586C49.7956 47.2812 49.6719 47.5781 49.6719 47.9492C49.6719 48.2956 49.7956 48.5924 50.043 48.8398C50.2904 49.0625 50.5872 49.1738 50.9336 49.1738ZM50.9336 61.3086H78.0977C78.4688 61.3086 78.7656 61.1973 78.9883 60.9746C79.2357 60.7272 79.3594 60.4303 79.3594 60.084C79.3594 59.7129 79.2357 59.416 78.9883 59.1934C78.7656 58.946 78.4688 58.8223 78.0977 58.8223H50.9336C50.5872 58.8223 50.2904 58.946 50.043 59.1934C49.7956 59.416 49.6719 59.7129 49.6719 60.084C49.6719 60.4303 49.7956 60.7272 50.043 60.9746C50.2904 61.1973 50.5872 61.3086 50.9336 61.3086ZM50.9336 73.4062H97.1719C97.543 73.4062 97.8398 73.2949 98.0625 73.0723C98.3099 72.8249 98.4336 72.5156 98.4336 72.1445C98.4336 71.7982 98.3099 71.5137 98.0625 71.291C97.8398 71.0684 97.543 70.957 97.1719 70.957H50.9336C50.5872 70.957 50.2904 71.0684 50.043 71.291C49.7956 71.5137 49.6719 71.7982 49.6719 72.1445C49.6719 72.5156 49.7956 72.8249 50.043 73.0723C50.2904 73.2949 50.5872 73.4062 50.9336 73.4062ZM50.9336 85.6523H78.0977C78.4688 85.6523 78.7656 85.541 78.9883 85.3184C79.2357 85.071 79.3594 84.7617 79.3594 84.3906C79.3594 84.0443 79.2357 83.7598 78.9883 83.5371C78.7656 83.2897 78.4688 83.166 78.0977 83.166H50.9336C50.5872 83.166 50.2904 83.2897 50.043 83.5371C49.7956 83.7598 49.6719 84.0443 49.6719 84.3906C49.6719 84.7617 49.7956 85.071 50.043 85.3184C50.2904 85.541 50.5872 85.6523 50.9336 85.6523ZM32.9355 99.0488C29.6699 99.0488 27.1836 98.2077 25.4766 96.5254C23.7943 94.8431 22.9531 92.3568 22.9531 89.0664V43.3105C22.9531 40.0697 23.7943 37.6081 25.4766 35.9258C27.1836 34.2188 29.6699 33.3652 32.9355 33.3652H99.0645C102.355 33.3652 104.841 34.2188 106.523 35.9258C108.206 37.6328 109.047 40.0944 109.047 43.3105V89.0664C109.047 92.3073 108.206 94.7812 106.523 96.4883C104.841 98.1953 102.355 99.0488 99.0645 99.0488H32.9355Z" fill="url(#paint2_radial_2707_13172)" shape-rendering="crispEdges"/>
<path d="M40.0977 50.2871L39.7508 49.9269L39.7441 49.9336L40.0977 50.2871ZM40.0977 45.6113L39.7375 45.9581L39.744 45.9649L39.7508 45.9715L40.0977 45.6113ZM35.4219 45.6113L35.7754 45.9649L35.4219 45.6113ZM35.4219 50.2871L35.0617 50.6339L35.0683 50.6407L35.0751 50.6473L35.4219 50.2871ZM40.0977 62.4219L39.7508 62.0617L39.7441 62.0683L40.0977 62.4219ZM40.0977 57.709L39.7375 58.0558L39.744 58.0626L39.7508 58.0691L40.0977 57.709ZM35.4219 57.709L35.0683 57.3554L35.0617 57.3622L35.4219 57.709ZM35.4219 62.4219L35.0617 62.7687L35.0683 62.7755L35.0751 62.782L35.4219 62.4219ZM40.0977 74.5195L39.7508 74.1593L39.7441 74.166L40.0977 74.5195ZM40.0977 69.8066L39.744 70.1603L39.7508 70.1668L40.0977 69.8066ZM35.4219 69.8438L35.7755 70.1974L35.782 70.1906L35.4219 69.8438ZM35.4219 74.5195L35.0683 74.8731L35.4219 74.5195ZM40.0977 86.7656L39.7508 86.4054L39.7441 86.4121L40.0977 86.7656ZM40.0977 82.0527L39.7375 82.3996L39.744 82.4063L39.7508 82.4129L40.0977 82.0527ZM35.4219 82.0527L35.0683 81.6991L35.0617 81.7059L35.4219 82.0527ZM35.4219 86.7656L35.0617 87.1124L35.0683 87.1192L35.0751 87.1258L35.4219 86.7656ZM98.0625 48.8398L98.4161 49.1934L98.0625 48.8398ZM98.0625 47.0586L97.6908 47.3931L97.7085 47.4126L97.728 47.4302L98.0625 47.0586ZM50.043 47.0586L50.3775 47.4302L50.3872 47.4214L50.3965 47.4121L50.043 47.0586ZM50.043 48.8398L49.6894 49.1934L49.6987 49.2027L49.7085 49.2115L50.043 48.8398ZM78.9883 60.9746L78.6347 60.6211L78.9883 60.9746ZM78.9883 59.1934L78.6166 59.5278L78.6342 59.5474L78.6538 59.565L78.9883 59.1934ZM50.043 59.1934L50.3775 59.565L50.3872 59.5562L50.3965 59.5469L50.043 59.1934ZM50.043 60.9746L49.6894 61.3282L49.6987 61.3375L49.7085 61.3463L50.043 60.9746ZM98.0625 73.0723L98.4161 73.4258L98.0625 73.0723ZM98.0625 71.291L97.7089 71.6446L97.7182 71.6539L97.728 71.6627L98.0625 71.291ZM50.043 73.0723L49.6894 73.4258L49.6987 73.4351L49.7085 73.4439L50.043 73.0723ZM78.9883 85.3184L78.6347 84.9648L78.9883 85.3184ZM78.9883 83.5371L78.6166 83.8716L78.6342 83.8912L78.6538 83.9088L78.9883 83.5371ZM50.043 83.5371L50.3775 83.9088L50.3872 83.9L50.3965 83.8907L50.043 83.5371ZM50.043 85.3184L49.6894 85.6719L49.6987 85.6812L49.7085 85.69L50.043 85.3184ZM25.4766 96.5254L25.123 96.879L25.1256 96.8815L25.4766 96.5254ZM37.7598 51.752C38.8068 51.752 39.7136 51.3783 40.4512 50.6407L39.7441 49.9336C39.1953 50.4824 38.5435 50.752 37.7598 50.752V51.752ZM40.4445 50.6473C41.2089 49.9112 41.5996 49.0025 41.5996 47.9492H40.5996C40.5996 48.7267 40.3224 49.3766 39.7508 49.9269L40.4445 50.6473ZM41.5996 47.9492C41.5996 46.896 41.2089 45.9873 40.4445 45.2512L39.7508 45.9715C40.3224 46.5219 40.5996 47.1717 40.5996 47.9492H41.5996ZM40.4578 45.2645C39.7217 44.5001 38.813 44.1094 37.7598 44.1094V45.1094C38.5373 45.1094 39.1871 45.3866 39.7375 45.9581L40.4578 45.2645ZM37.7598 44.1094C36.7279 44.1094 35.8237 44.5024 35.0683 45.2578L35.7754 45.9649C36.3559 45.3844 37.0104 45.1094 37.7598 45.1094V44.1094ZM35.0683 45.2578C34.3307 45.9954 33.957 46.9022 33.957 47.9492H34.957C34.957 47.1655 35.2266 46.5137 35.7754 45.9649L35.0683 45.2578ZM33.957 47.9492C33.957 48.975 34.3329 49.8771 35.0617 50.6339L35.782 49.9403C35.2244 49.3612 34.957 48.7047 34.957 47.9492H33.957ZM35.0751 50.6473C35.8319 51.3761 36.734 51.752 37.7598 51.752V50.752C37.0043 50.752 36.3478 50.4846 35.7687 49.9269L35.0751 50.6473ZM37.7598 63.8867C38.8068 63.8867 39.7136 63.5131 40.4512 62.7754L39.7441 62.0683C39.1953 62.6171 38.5435 62.8867 37.7598 62.8867V63.8867ZM40.4445 62.782C41.2089 62.0459 41.5996 61.1372 41.5996 60.084H40.5996C40.5996 60.8615 40.3224 61.5113 39.7508 62.0617L40.4445 62.782ZM41.5996 60.084C41.5996 59.0101 41.2118 58.0878 40.4445 57.3488L39.7508 58.0691C40.3194 58.6167 40.5996 59.2776 40.5996 60.084H41.5996ZM40.4578 57.3622C39.7217 56.5978 38.813 56.207 37.7598 56.207V57.207C38.5373 57.207 39.1871 57.4843 39.7375 58.0558L40.4578 57.3622ZM37.7598 56.207C36.7279 56.207 35.8237 56.6 35.0683 57.3554L35.7754 58.0625C36.3559 57.482 37.0104 57.207 37.7598 57.207V56.207ZM35.0617 57.3622C34.3301 58.1219 33.957 59.0374 33.957 60.084H34.957C34.957 59.2998 35.2272 58.632 35.782 58.0558L35.0617 57.3622ZM33.957 60.084C33.957 61.1097 34.3329 62.0118 35.0617 62.7687L35.782 62.0751C35.2244 61.496 34.957 60.8395 34.957 60.084H33.957ZM35.0751 62.782C35.8319 63.5109 36.734 63.8867 37.7598 63.8867V62.8867C37.0043 62.8867 36.3478 62.6193 35.7687 62.0617L35.0751 62.782ZM37.7598 75.9844C38.8068 75.9844 39.7136 75.6107 40.4512 74.8731L39.7441 74.166C39.1953 74.7148 38.5435 74.9844 37.7598 74.9844V75.9844ZM40.4445 74.8797C41.2118 74.1408 41.5996 73.2184 41.5996 72.1445H40.5996C40.5996 72.9509 40.3194 73.6119 39.7508 74.1594L40.4445 74.8797ZM41.5996 72.1445C41.5996 71.0913 41.2089 70.1826 40.4445 69.4465L39.7508 70.1668C40.3224 70.7172 40.5996 71.367 40.5996 72.1445H41.5996ZM40.4512 69.4531C39.7136 68.7154 38.8068 68.3418 37.7598 68.3418V69.3418C38.5435 69.3418 39.1953 69.6114 39.7441 70.1602L40.4512 69.4531ZM37.7598 68.3418C36.7065 68.3418 35.7978 68.7325 35.0617 69.4969L35.782 70.1906C36.3324 69.619 36.9823 69.3418 37.7598 69.3418V68.3418ZM35.0683 69.4902C34.3336 70.2249 33.957 71.1182 33.957 72.1445H34.957C34.957 71.3897 35.2237 70.749 35.7754 70.1973L35.0683 69.4902ZM33.957 72.1445C33.957 73.2123 34.3279 74.1326 35.0683 74.8731L35.7754 74.166C35.2294 73.62 34.957 72.957 34.957 72.1445H33.957ZM35.0683 74.8731C35.806 75.6107 36.7127 75.9844 37.7598 75.9844V74.9844C36.9761 74.9844 36.3242 74.7148 35.7754 74.166L35.0683 74.8731ZM37.7598 88.2305C38.8068 88.2305 39.7136 87.8568 40.4512 87.1192L39.7441 86.4121C39.1953 86.9609 38.5435 87.2305 37.7598 87.2305V88.2305ZM40.4445 87.1258C41.2118 86.3868 41.5996 85.4645 41.5996 84.3906H40.5996C40.5996 85.197 40.3194 85.8579 39.7508 86.4055L40.4445 87.1258ZM41.5996 84.3906C41.5996 83.3374 41.2089 82.4287 40.4445 81.6926L39.7508 82.4129C40.3224 82.9633 40.5996 83.6131 40.5996 84.3906H41.5996ZM40.4578 81.7059C39.7217 80.9415 38.813 80.5508 37.7598 80.5508V81.5508C38.5373 81.5508 39.1871 81.828 39.7375 82.3996L40.4578 81.7059ZM37.7598 80.5508C36.7279 80.5508 35.8237 80.9438 35.0683 81.6992L35.7754 82.4063C36.3559 81.8258 37.0104 81.5508 37.7598 81.5508V80.5508ZM35.0617 81.7059C34.3329 82.4628 33.957 83.3649 33.957 84.3906H34.957C34.957 83.6351 35.2244 82.9786 35.782 82.3996L35.0617 81.7059ZM33.957 84.3906C33.957 85.4372 34.3301 86.3527 35.0617 87.1124L35.782 86.4188C35.2272 85.8426 34.957 85.1748 34.957 84.3906H33.957ZM35.0751 87.1258C35.8319 87.8546 36.734 88.2305 37.7598 88.2305V87.2305C37.0043 87.2305 36.3478 86.9631 35.7687 86.4055L35.0751 87.1258ZM50.9336 49.6738H97.1719V48.6738H50.9336V49.6738ZM97.1719 49.6738C97.6501 49.6738 98.083 49.5264 98.4161 49.1934L97.7089 48.4863C97.5967 48.5986 97.4358 48.6738 97.1719 48.6738V49.6738ZM98.4161 49.1934C98.7561 48.8533 98.9336 48.4297 98.9336 47.9492H97.9336C97.9336 48.1615 97.8636 48.3316 97.7089 48.4863L98.4161 49.1934ZM98.9336 47.9492C98.9336 47.4545 98.7625 47.0159 98.397 46.6869L97.728 47.4302C97.8573 47.5466 97.9336 47.7017 97.9336 47.9492H98.9336ZM98.4342 46.7241C98.1052 46.3586 97.6666 46.1875 97.1719 46.1875V47.1875C97.4194 47.1875 97.5745 47.2638 97.6908 47.3931L98.4342 46.7241ZM97.1719 46.1875H50.9336V47.1875H97.1719V46.1875ZM50.9336 46.1875C50.4531 46.1875 50.0295 46.3649 49.6894 46.705L50.3965 47.4121C50.5512 47.2574 50.7214 47.1875 50.9336 47.1875V46.1875ZM49.7085 46.6869C49.343 47.0159 49.1719 47.4545 49.1719 47.9492H50.1719C50.1719 47.7017 50.2482 47.5466 50.3775 47.4302L49.7085 46.6869ZM49.1719 47.9492C49.1719 48.4297 49.3493 48.8533 49.6894 49.1934L50.3965 48.4863C50.2418 48.3316 50.1719 48.1615 50.1719 47.9492H49.1719ZM49.7085 49.2115C50.0517 49.5204 50.4692 49.6738 50.9336 49.6738V48.6738C50.7053 48.6738 50.529 48.6046 50.3775 48.4682L49.7085 49.2115ZM50.9336 61.8086H78.0977V60.8086H50.9336V61.8086ZM78.0977 61.8086C78.5759 61.8086 79.0088 61.6612 79.3418 61.3282L78.6347 60.6211C78.5224 60.7333 78.3616 60.8086 78.0977 60.8086V61.8086ZM79.3418 61.3282C79.6819 60.9881 79.8594 60.5645 79.8594 60.084H78.8594C78.8594 60.2962 78.7894 60.4664 78.6347 60.6211L79.3418 61.3282ZM79.8594 60.084C79.8594 59.5893 79.6883 59.1507 79.3228 58.8217L78.6538 59.565C78.7831 59.6813 78.8594 59.8365 78.8594 60.084H79.8594ZM79.3599 58.8589C79.031 58.4934 78.5924 58.3223 78.0977 58.3223V59.3223C78.3451 59.3223 78.5003 59.3986 78.6166 59.5278L79.3599 58.8589ZM78.0977 58.3223H50.9336V59.3223H78.0977V58.3223ZM50.9336 58.3223C50.4531 58.3223 50.0295 58.4997 49.6894 58.8398L50.3965 59.5469C50.5512 59.3922 50.7214 59.3223 50.9336 59.3223V58.3223ZM49.7085 58.8217C49.343 59.1507 49.1719 59.5893 49.1719 60.084H50.1719C50.1719 59.8365 50.2482 59.6813 50.3775 59.565L49.7085 58.8217ZM49.1719 60.084C49.1719 60.5645 49.3493 60.9881 49.6894 61.3282L50.3965 60.6211C50.2418 60.4664 50.1719 60.2962 50.1719 60.084H49.1719ZM49.7085 61.3463C50.0517 61.6552 50.4692 61.8086 50.9336 61.8086V60.8086C50.7053 60.8086 50.529 60.7394 50.3775 60.603L49.7085 61.3463ZM50.9336 73.9062H97.1719V72.9062H50.9336V73.9062ZM97.1719 73.9062C97.6501 73.9062 98.083 73.7588 98.4161 73.4258L97.7089 72.7187C97.5967 72.831 97.4358 72.9062 97.1719 72.9062V73.9062ZM98.4161 73.4258C98.7633 73.0785 98.9336 72.6393 98.9336 72.1445H97.9336C97.9336 72.3919 97.8564 72.5712 97.7089 72.7187L98.4161 73.4258ZM98.9336 72.1445C98.9336 71.663 98.7545 71.2411 98.397 70.9194L97.728 71.6627C97.8653 71.7862 97.9336 71.9334 97.9336 72.1445H98.9336ZM98.4161 70.9375C98.083 70.6044 97.6501 70.457 97.1719 70.457V71.457C97.4358 71.457 97.5967 71.5323 97.7089 71.6446L98.4161 70.9375ZM97.1719 70.457H50.9336V71.457H97.1719V70.457ZM50.9336 70.457C50.4692 70.457 50.0517 70.6105 49.7085 70.9194L50.3775 71.6627C50.529 71.5262 50.7053 71.457 50.9336 71.457V70.457ZM49.7085 70.9194C49.351 71.2411 49.1719 71.663 49.1719 72.1445H50.1719C50.1719 71.9334 50.2402 71.7862 50.3775 71.6627L49.7085 70.9194ZM49.1719 72.1445C49.1719 72.6393 49.3421 73.0785 49.6894 73.4258L50.3965 72.7187C50.249 72.5712 50.1719 72.3919 50.1719 72.1445H49.1719ZM49.7085 73.4439C50.0517 73.7528 50.4692 73.9062 50.9336 73.9062V72.9062C50.7053 72.9062 50.529 72.837 50.3775 72.7006L49.7085 73.4439ZM50.9336 86.1523H78.0977V85.1523H50.9336V86.1523ZM78.0977 86.1523C78.5759 86.1523 79.0088 86.0049 79.3418 85.6719L78.6347 84.9648C78.5224 85.0771 78.3616 85.1523 78.0977 85.1523V86.1523ZM79.3418 85.6719C79.6891 85.3246 79.8594 84.8854 79.8594 84.3906H78.8594C78.8594 84.638 78.7822 84.8173 78.6347 84.9648L79.3418 85.6719ZM79.8594 84.3906C79.8594 83.9091 79.6803 83.4872 79.3228 83.1655L78.6538 83.9088C78.7911 84.0323 78.8594 84.1795 78.8594 84.3906H79.8594ZM79.3599 83.2026C79.031 82.8371 78.5924 82.666 78.0977 82.666V83.666C78.3451 83.666 78.5003 83.7423 78.6166 83.8716L79.3599 83.2026ZM78.0977 82.666H50.9336V83.666H78.0977V82.666ZM50.9336 82.666C50.4531 82.666 50.0295 82.8435 49.6894 83.1836L50.3965 83.8907C50.5512 83.736 50.7214 83.666 50.9336 83.666V82.666ZM49.7085 83.1655C49.351 83.4872 49.1719 83.9091 49.1719 84.3906H50.1719C50.1719 84.1795 50.2402 84.0323 50.3775 83.9088L49.7085 83.1655ZM49.1719 84.3906C49.1719 84.8854 49.3421 85.3246 49.6894 85.6719L50.3965 84.9648C50.249 84.8173 50.1719 84.638 50.1719 84.3906H49.1719ZM49.7085 85.69C50.0517 85.9989 50.4692 86.1523 50.9336 86.1523V85.1523C50.7053 85.1523 50.529 85.0831 50.3775 84.9467L49.7085 85.69ZM32.9355 98.5488C29.7526 98.5488 27.4113 97.73 25.8275 96.1693L25.1256 96.8815C26.9559 98.6853 29.5873 99.5488 32.9355 99.5488V98.5488ZM25.8301 96.1718C24.2728 94.6145 23.4531 92.2759 23.4531 89.0664H22.4531C22.4531 92.4376 23.3158 95.0717 25.123 96.8789L25.8301 96.1718ZM23.4531 89.0664V43.3105H22.4531V89.0664H23.4531ZM23.4531 43.3105C23.4531 40.153 24.2715 37.838 25.8301 36.2793L25.123 35.5722C23.3171 37.3782 22.4531 39.9863 22.4531 43.3105H23.4531ZM25.8301 36.2793C27.4141 34.6953 29.7545 33.8652 32.9355 33.8652V32.8652C29.5854 32.8652 26.9531 33.7422 25.123 35.5722L25.8301 36.2793ZM32.9355 33.8652H99.0645V32.8652H32.9355V33.8652ZM99.0645 33.8652C102.272 33.8652 104.61 34.6962 106.167 36.2767L106.88 35.5748C105.073 33.7413 102.438 32.8652 99.0645 32.8652V33.8652ZM106.167 36.2767C107.729 37.8618 108.547 40.1796 108.547 43.3105H109.547C109.547 40.0092 108.682 37.4038 106.88 35.5748L106.167 36.2767ZM108.547 43.3105V89.0664H109.547V43.3105H108.547ZM108.547 89.0664C108.547 92.2234 107.729 94.5529 106.167 96.1373L106.88 96.8392C108.683 95.0096 109.547 92.3912 109.547 89.0664H108.547ZM106.167 96.1373C104.61 97.7179 102.272 98.5488 99.0645 98.5488V99.5488C102.438 99.5488 105.073 98.6728 106.88 96.8392L106.167 96.1373ZM99.0645 98.5488H32.9355V99.5488H99.0645V98.5488Z" fill="url(#paint3_linear_2707_13172)" mask="url(#path-2-outside-1_2707_13172)"/>
<path d="M40.0977 50.2871L39.7508 49.9269L39.7441 49.9336L40.0977 50.2871ZM40.0977 45.6113L39.7375 45.9581L39.744 45.9649L39.7508 45.9715L40.0977 45.6113ZM35.4219 45.6113L35.7754 45.9649L35.4219 45.6113ZM35.4219 50.2871L35.0617 50.6339L35.0683 50.6407L35.0751 50.6473L35.4219 50.2871ZM40.0977 62.4219L39.7508 62.0617L39.7441 62.0683L40.0977 62.4219ZM40.0977 57.709L39.7375 58.0558L39.744 58.0626L39.7508 58.0691L40.0977 57.709ZM35.4219 57.709L35.0683 57.3554L35.0617 57.3622L35.4219 57.709ZM35.4219 62.4219L35.0617 62.7687L35.0683 62.7755L35.0751 62.782L35.4219 62.4219ZM40.0977 74.5195L39.7508 74.1593L39.7441 74.166L40.0977 74.5195ZM40.0977 69.8066L39.744 70.1603L39.7508 70.1668L40.0977 69.8066ZM35.4219 69.8438L35.7755 70.1974L35.782 70.1906L35.4219 69.8438ZM35.4219 74.5195L35.0683 74.8731L35.4219 74.5195ZM40.0977 86.7656L39.7508 86.4054L39.7441 86.4121L40.0977 86.7656ZM40.0977 82.0527L39.7375 82.3996L39.744 82.4063L39.7508 82.4129L40.0977 82.0527ZM35.4219 82.0527L35.0683 81.6991L35.0617 81.7059L35.4219 82.0527ZM35.4219 86.7656L35.0617 87.1124L35.0683 87.1192L35.0751 87.1258L35.4219 86.7656ZM98.0625 48.8398L98.4161 49.1934L98.0625 48.8398ZM98.0625 47.0586L97.6908 47.3931L97.7085 47.4126L97.728 47.4302L98.0625 47.0586ZM50.043 47.0586L50.3775 47.4302L50.3872 47.4214L50.3965 47.4121L50.043 47.0586ZM50.043 48.8398L49.6894 49.1934L49.6987 49.2027L49.7085 49.2115L50.043 48.8398ZM78.9883 60.9746L78.6347 60.6211L78.9883 60.9746ZM78.9883 59.1934L78.6166 59.5278L78.6342 59.5474L78.6538 59.565L78.9883 59.1934ZM50.043 59.1934L50.3775 59.565L50.3872 59.5562L50.3965 59.5469L50.043 59.1934ZM50.043 60.9746L49.6894 61.3282L49.6987 61.3375L49.7085 61.3463L50.043 60.9746ZM98.0625 73.0723L98.4161 73.4258L98.0625 73.0723ZM98.0625 71.291L97.7089 71.6446L97.7182 71.6539L97.728 71.6627L98.0625 71.291ZM50.043 73.0723L49.6894 73.4258L49.6987 73.4351L49.7085 73.4439L50.043 73.0723ZM78.9883 85.3184L78.6347 84.9648L78.9883 85.3184ZM78.9883 83.5371L78.6166 83.8716L78.6342 83.8912L78.6538 83.9088L78.9883 83.5371ZM50.043 83.5371L50.3775 83.9088L50.3872 83.9L50.3965 83.8907L50.043 83.5371ZM50.043 85.3184L49.6894 85.6719L49.6987 85.6812L49.7085 85.69L50.043 85.3184ZM25.4766 96.5254L25.123 96.879L25.1256 96.8815L25.4766 96.5254ZM37.7598 51.752C38.8068 51.752 39.7136 51.3783 40.4512 50.6407L39.7441 49.9336C39.1953 50.4824 38.5435 50.752 37.7598 50.752V51.752ZM40.4445 50.6473C41.2089 49.9112 41.5996 49.0025 41.5996 47.9492H40.5996C40.5996 48.7267 40.3224 49.3766 39.7508 49.9269L40.4445 50.6473ZM41.5996 47.9492C41.5996 46.896 41.2089 45.9873 40.4445 45.2512L39.7508 45.9715C40.3224 46.5219 40.5996 47.1717 40.5996 47.9492H41.5996ZM40.4578 45.2645C39.7217 44.5001 38.813 44.1094 37.7598 44.1094V45.1094C38.5373 45.1094 39.1871 45.3866 39.7375 45.9581L40.4578 45.2645ZM37.7598 44.1094C36.7279 44.1094 35.8237 44.5024 35.0683 45.2578L35.7754 45.9649C36.3559 45.3844 37.0104 45.1094 37.7598 45.1094V44.1094ZM35.0683 45.2578C34.3307 45.9954 33.957 46.9022 33.957 47.9492H34.957C34.957 47.1655 35.2266 46.5137 35.7754 45.9649L35.0683 45.2578ZM33.957 47.9492C33.957 48.975 34.3329 49.8771 35.0617 50.6339L35.782 49.9403C35.2244 49.3612 34.957 48.7047 34.957 47.9492H33.957ZM35.0751 50.6473C35.8319 51.3761 36.734 51.752 37.7598 51.752V50.752C37.0043 50.752 36.3478 50.4846 35.7687 49.9269L35.0751 50.6473ZM37.7598 63.8867C38.8068 63.8867 39.7136 63.5131 40.4512 62.7754L39.7441 62.0683C39.1953 62.6171 38.5435 62.8867 37.7598 62.8867V63.8867ZM40.4445 62.782C41.2089 62.0459 41.5996 61.1372 41.5996 60.084H40.5996C40.5996 60.8615 40.3224 61.5113 39.7508 62.0617L40.4445 62.782ZM41.5996 60.084C41.5996 59.0101 41.2118 58.0878 40.4445 57.3488L39.7508 58.0691C40.3194 58.6167 40.5996 59.2776 40.5996 60.084H41.5996ZM40.4578 57.3622C39.7217 56.5978 38.813 56.207 37.7598 56.207V57.207C38.5373 57.207 39.1871 57.4843 39.7375 58.0558L40.4578 57.3622ZM37.7598 56.207C36.7279 56.207 35.8237 56.6 35.0683 57.3554L35.7754 58.0625C36.3559 57.482 37.0104 57.207 37.7598 57.207V56.207ZM35.0617 57.3622C34.3301 58.1219 33.957 59.0374 33.957 60.084H34.957C34.957 59.2998 35.2272 58.632 35.782 58.0558L35.0617 57.3622ZM33.957 60.084C33.957 61.1097 34.3329 62.0118 35.0617 62.7687L35.782 62.0751C35.2244 61.496 34.957 60.8395 34.957 60.084H33.957ZM35.0751 62.782C35.8319 63.5109 36.734 63.8867 37.7598 63.8867V62.8867C37.0043 62.8867 36.3478 62.6193 35.7687 62.0617L35.0751 62.782ZM37.7598 75.9844C38.8068 75.9844 39.7136 75.6107 40.4512 74.8731L39.7441 74.166C39.1953 74.7148 38.5435 74.9844 37.7598 74.9844V75.9844ZM40.4445 74.8797C41.2118 74.1408 41.5996 73.2184 41.5996 72.1445H40.5996C40.5996 72.9509 40.3194 73.6119 39.7508 74.1594L40.4445 74.8797ZM41.5996 72.1445C41.5996 71.0913 41.2089 70.1826 40.4445 69.4465L39.7508 70.1668C40.3224 70.7172 40.5996 71.367 40.5996 72.1445H41.5996ZM40.4512 69.4531C39.7136 68.7154 38.8068 68.3418 37.7598 68.3418V69.3418C38.5435 69.3418 39.1953 69.6114 39.7441 70.1602L40.4512 69.4531ZM37.7598 68.3418C36.7065 68.3418 35.7978 68.7325 35.0617 69.4969L35.782 70.1906C36.3324 69.619 36.9823 69.3418 37.7598 69.3418V68.3418ZM35.0683 69.4902C34.3336 70.2249 33.957 71.1182 33.957 72.1445H34.957C34.957 71.3897 35.2237 70.749 35.7754 70.1973L35.0683 69.4902ZM33.957 72.1445C33.957 73.2123 34.3279 74.1326 35.0683 74.8731L35.7754 74.166C35.2294 73.62 34.957 72.957 34.957 72.1445H33.957ZM35.0683 74.8731C35.806 75.6107 36.7127 75.9844 37.7598 75.9844V74.9844C36.9761 74.9844 36.3242 74.7148 35.7754 74.166L35.0683 74.8731ZM37.7598 88.2305C38.8068 88.2305 39.7136 87.8568 40.4512 87.1192L39.7441 86.4121C39.1953 86.9609 38.5435 87.2305 37.7598 87.2305V88.2305ZM40.4445 87.1258C41.2118 86.3868 41.5996 85.4645 41.5996 84.3906H40.5996C40.5996 85.197 40.3194 85.8579 39.7508 86.4055L40.4445 87.1258ZM41.5996 84.3906C41.5996 83.3374 41.2089 82.4287 40.4445 81.6926L39.7508 82.4129C40.3224 82.9633 40.5996 83.6131 40.5996 84.3906H41.5996ZM40.4578 81.7059C39.7217 80.9415 38.813 80.5508 37.7598 80.5508V81.5508C38.5373 81.5508 39.1871 81.828 39.7375 82.3996L40.4578 81.7059ZM37.7598 80.5508C36.7279 80.5508 35.8237 80.9438 35.0683 81.6992L35.7754 82.4063C36.3559 81.8258 37.0104 81.5508 37.7598 81.5508V80.5508ZM35.0617 81.7059C34.3329 82.4628 33.957 83.3649 33.957 84.3906H34.957C34.957 83.6351 35.2244 82.9786 35.782 82.3996L35.0617 81.7059ZM33.957 84.3906C33.957 85.4372 34.3301 86.3527 35.0617 87.1124L35.782 86.4188C35.2272 85.8426 34.957 85.1748 34.957 84.3906H33.957ZM35.0751 87.1258C35.8319 87.8546 36.734 88.2305 37.7598 88.2305V87.2305C37.0043 87.2305 36.3478 86.9631 35.7687 86.4055L35.0751 87.1258ZM50.9336 49.6738H97.1719V48.6738H50.9336V49.6738ZM97.1719 49.6738C97.6501 49.6738 98.083 49.5264 98.4161 49.1934L97.7089 48.4863C97.5967 48.5986 97.4358 48.6738 97.1719 48.6738V49.6738ZM98.4161 49.1934C98.7561 48.8533 98.9336 48.4297 98.9336 47.9492H97.9336C97.9336 48.1615 97.8636 48.3316 97.7089 48.4863L98.4161 49.1934ZM98.9336 47.9492C98.9336 47.4545 98.7625 47.0159 98.397 46.6869L97.728 47.4302C97.8573 47.5466 97.9336 47.7017 97.9336 47.9492H98.9336ZM98.4342 46.7241C98.1052 46.3586 97.6666 46.1875 97.1719 46.1875V47.1875C97.4194 47.1875 97.5745 47.2638 97.6908 47.3931L98.4342 46.7241ZM97.1719 46.1875H50.9336V47.1875H97.1719V46.1875ZM50.9336 46.1875C50.4531 46.1875 50.0295 46.3649 49.6894 46.705L50.3965 47.4121C50.5512 47.2574 50.7214 47.1875 50.9336 47.1875V46.1875ZM49.7085 46.6869C49.343 47.0159 49.1719 47.4545 49.1719 47.9492H50.1719C50.1719 47.7017 50.2482 47.5466 50.3775 47.4302L49.7085 46.6869ZM49.1719 47.9492C49.1719 48.4297 49.3493 48.8533 49.6894 49.1934L50.3965 48.4863C50.2418 48.3316 50.1719 48.1615 50.1719 47.9492H49.1719ZM49.7085 49.2115C50.0517 49.5204 50.4692 49.6738 50.9336 49.6738V48.6738C50.7053 48.6738 50.529 48.6046 50.3775 48.4682L49.7085 49.2115ZM50.9336 61.8086H78.0977V60.8086H50.9336V61.8086ZM78.0977 61.8086C78.5759 61.8086 79.0088 61.6612 79.3418 61.3282L78.6347 60.6211C78.5224 60.7333 78.3616 60.8086 78.0977 60.8086V61.8086ZM79.3418 61.3282C79.6819 60.9881 79.8594 60.5645 79.8594 60.084H78.8594C78.8594 60.2962 78.7894 60.4664 78.6347 60.6211L79.3418 61.3282ZM79.8594 60.084C79.8594 59.5893 79.6883 59.1507 79.3228 58.8217L78.6538 59.565C78.7831 59.6813 78.8594 59.8365 78.8594 60.084H79.8594ZM79.3599 58.8589C79.031 58.4934 78.5924 58.3223 78.0977 58.3223V59.3223C78.3451 59.3223 78.5003 59.3986 78.6166 59.5278L79.3599 58.8589ZM78.0977 58.3223H50.9336V59.3223H78.0977V58.3223ZM50.9336 58.3223C50.4531 58.3223 50.0295 58.4997 49.6894 58.8398L50.3965 59.5469C50.5512 59.3922 50.7214 59.3223 50.9336 59.3223V58.3223ZM49.7085 58.8217C49.343 59.1507 49.1719 59.5893 49.1719 60.084H50.1719C50.1719 59.8365 50.2482 59.6813 50.3775 59.565L49.7085 58.8217ZM49.1719 60.084C49.1719 60.5645 49.3493 60.9881 49.6894 61.3282L50.3965 60.6211C50.2418 60.4664 50.1719 60.2962 50.1719 60.084H49.1719ZM49.7085 61.3463C50.0517 61.6552 50.4692 61.8086 50.9336 61.8086V60.8086C50.7053 60.8086 50.529 60.7394 50.3775 60.603L49.7085 61.3463ZM50.9336 73.9062H97.1719V72.9062H50.9336V73.9062ZM97.1719 73.9062C97.6501 73.9062 98.083 73.7588 98.4161 73.4258L97.7089 72.7187C97.5967 72.831 97.4358 72.9062 97.1719 72.9062V73.9062ZM98.4161 73.4258C98.7633 73.0785 98.9336 72.6393 98.9336 72.1445H97.9336C97.9336 72.3919 97.8564 72.5712 97.7089 72.7187L98.4161 73.4258ZM98.9336 72.1445C98.9336 71.663 98.7545 71.2411 98.397 70.9194L97.728 71.6627C97.8653 71.7862 97.9336 71.9334 97.9336 72.1445H98.9336ZM98.4161 70.9375C98.083 70.6044 97.6501 70.457 97.1719 70.457V71.457C97.4358 71.457 97.5967 71.5323 97.7089 71.6446L98.4161 70.9375ZM97.1719 70.457H50.9336V71.457H97.1719V70.457ZM50.9336 70.457C50.4692 70.457 50.0517 70.6105 49.7085 70.9194L50.3775 71.6627C50.529 71.5262 50.7053 71.457 50.9336 71.457V70.457ZM49.7085 70.9194C49.351 71.2411 49.1719 71.663 49.1719 72.1445H50.1719C50.1719 71.9334 50.2402 71.7862 50.3775 71.6627L49.7085 70.9194ZM49.1719 72.1445C49.1719 72.6393 49.3421 73.0785 49.6894 73.4258L50.3965 72.7187C50.249 72.5712 50.1719 72.3919 50.1719 72.1445H49.1719ZM49.7085 73.4439C50.0517 73.7528 50.4692 73.9062 50.9336 73.9062V72.9062C50.7053 72.9062 50.529 72.837 50.3775 72.7006L49.7085 73.4439ZM50.9336 86.1523H78.0977V85.1523H50.9336V86.1523ZM78.0977 86.1523C78.5759 86.1523 79.0088 86.0049 79.3418 85.6719L78.6347 84.9648C78.5224 85.0771 78.3616 85.1523 78.0977 85.1523V86.1523ZM79.3418 85.6719C79.6891 85.3246 79.8594 84.8854 79.8594 84.3906H78.8594C78.8594 84.638 78.7822 84.8173 78.6347 84.9648L79.3418 85.6719ZM79.8594 84.3906C79.8594 83.9091 79.6803 83.4872 79.3228 83.1655L78.6538 83.9088C78.7911 84.0323 78.8594 84.1795 78.8594 84.3906H79.8594ZM79.3599 83.2026C79.031 82.8371 78.5924 82.666 78.0977 82.666V83.666C78.3451 83.666 78.5003 83.7423 78.6166 83.8716L79.3599 83.2026ZM78.0977 82.666H50.9336V83.666H78.0977V82.666ZM50.9336 82.666C50.4531 82.666 50.0295 82.8435 49.6894 83.1836L50.3965 83.8907C50.5512 83.736 50.7214 83.666 50.9336 83.666V82.666ZM49.7085 83.1655C49.351 83.4872 49.1719 83.9091 49.1719 84.3906H50.1719C50.1719 84.1795 50.2402 84.0323 50.3775 83.9088L49.7085 83.1655ZM49.1719 84.3906C49.1719 84.8854 49.3421 85.3246 49.6894 85.6719L50.3965 84.9648C50.249 84.8173 50.1719 84.638 50.1719 84.3906H49.1719ZM49.7085 85.69C50.0517 85.9989 50.4692 86.1523 50.9336 86.1523V85.1523C50.7053 85.1523 50.529 85.0831 50.3775 84.9467L49.7085 85.69ZM32.9355 98.5488C29.7526 98.5488 27.4113 97.73 25.8275 96.1693L25.1256 96.8815C26.9559 98.6853 29.5873 99.5488 32.9355 99.5488V98.5488ZM25.8301 96.1718C24.2728 94.6145 23.4531 92.2759 23.4531 89.0664H22.4531C22.4531 92.4376 23.3158 95.0717 25.123 96.8789L25.8301 96.1718ZM23.4531 89.0664V43.3105H22.4531V89.0664H23.4531ZM23.4531 43.3105C23.4531 40.153 24.2715 37.838 25.8301 36.2793L25.123 35.5722C23.3171 37.3782 22.4531 39.9863 22.4531 43.3105H23.4531ZM25.8301 36.2793C27.4141 34.6953 29.7545 33.8652 32.9355 33.8652V32.8652C29.5854 32.8652 26.9531 33.7422 25.123 35.5722L25.8301 36.2793ZM32.9355 33.8652H99.0645V32.8652H32.9355V33.8652ZM99.0645 33.8652C102.272 33.8652 104.61 34.6962 106.167 36.2767L106.88 35.5748C105.073 33.7413 102.438 32.8652 99.0645 32.8652V33.8652ZM106.167 36.2767C107.729 37.8618 108.547 40.1796 108.547 43.3105H109.547C109.547 40.0092 108.682 37.4038 106.88 35.5748L106.167 36.2767ZM108.547 43.3105V89.0664H109.547V43.3105H108.547ZM108.547 89.0664C108.547 92.2234 107.729 94.5529 106.167 96.1373L106.88 96.8392C108.683 95.0096 109.547 92.3912 109.547 89.0664H108.547ZM106.167 96.1373C104.61 97.7179 102.272 98.5488 99.0645 98.5488V99.5488C102.438 99.5488 105.073 98.6728 106.88 96.8392L106.167 96.1373ZM99.0645 98.5488H32.9355V99.5488H99.0645V98.5488Z" fill="url(#paint4_linear_2707_13172)" mask="url(#path-2-outside-1_2707_13172)"/>
</g>
<g filter="url(#filter1_d_2707_13172)">
<circle cx="19" cy="113" r="3" fill="url(#paint5_linear_2707_13172)" shape-rendering="crispEdges"/>
<circle cx="19" cy="113" r="3.25" stroke="url(#paint6_linear_2707_13172)" stroke-width="0.5" shape-rendering="crispEdges"/>
</g>
<g filter="url(#filter2_d_2707_13172)">
<circle cx="19" cy="19" r="3" fill="url(#paint7_linear_2707_13172)" shape-rendering="crispEdges"/>
<circle cx="19" cy="19" r="3.25" stroke="url(#paint8_linear_2707_13172)" stroke-width="0.5" shape-rendering="crispEdges"/>
</g>
<g filter="url(#filter3_d_2707_13172)">
<circle cx="113" cy="113" r="3" fill="url(#paint9_linear_2707_13172)" shape-rendering="crispEdges"/>
<circle cx="113" cy="113" r="3.25" stroke="url(#paint10_linear_2707_13172)" stroke-width="0.5" shape-rendering="crispEdges"/>
</g>
<g filter="url(#filter4_d_2707_13172)">
<circle cx="113" cy="19" r="3" fill="url(#paint11_linear_2707_13172)" shape-rendering="crispEdges"/>
<circle cx="113" cy="19" r="3.25" stroke="url(#paint12_linear_2707_13172)" stroke-width="0.5" shape-rendering="crispEdges"/>
</g>
</g>
<defs>
<filter id="filter0_dd_2707_13172" x="-17.0469" y="-14.6348" width="166.094" height="145.684" filterUnits="userSpaceOnUse" color-interpolation-filters="sRGB">
<feFlood flood-opacity="0" result="BackgroundImageFix"/>
<feColorMatrix in="SourceAlpha" type="matrix" values="0 0 0 0 0 0 0 0 0 0 0 0 0 0 0 0 0 0 127 0" result="hardAlpha"/>
<feOffset dy="12"/>
<feGaussianBlur stdDeviation="8"/>
<feComposite in2="hardAlpha" operator="out"/>
<feColorMatrix type="matrix" values="0 0 0 0 0.535937 0 0 0 0 0.57861 0 0 0 0 0.639063 0 0 0 0.16 0"/>
<feBlend mode="color-burn" in2="BackgroundImageFix" result="effect1_dropShadow_2707_13172"/>
<feColorMatrix in="SourceAlpha" type="matrix" values="0 0 0 0 0 0 0 0 0 0 0 0 0 0 0 0 0 0 127 0" result="hardAlpha"/>
<feOffset dy="-8"/>
<feGaussianBlur stdDeviation="20"/>
<feComposite in2="hardAlpha" operator="out"/>
<feColorMatrix type="matrix" values="0 0 0 0 0.691667 0 0 0 0 0.739333 0 0 0 0 0.908333 0 0 0 0.42 0"/>
<feBlend mode="normal" in2="effect1_dropShadow_2707_13172" result="effect2_dropShadow_2707_13172"/>
<feBlend mode="normal" in="SourceGraphic" in2="effect2_dropShadow_2707_13172" result="shape"/>
</filter>
<filter id="filter1_d_2707_13172" x="-0.5" y="105.5" width="39" height="39" filterUnits="userSpaceOnUse" color-interpolation-filters="sRGB">
<feFlood flood-opacity="0" result="BackgroundImageFix"/>
<feColorMatrix in="SourceAlpha" type="matrix" values="0 0 0 0 0 0 0 0 0 0 0 0 0 0 0 0 0 0 127 0" result="hardAlpha"/>
<feOffset dy="12"/>
<feGaussianBlur stdDeviation="8"/>
<feComposite in2="hardAlpha" operator="out"/>
<feColorMatrix type="matrix" values="0 0 0 0 0.535937 0 0 0 0 0.57861 0 0 0 0 0.639063 0 0 0 0.1 0"/>
<feBlend mode="color-burn" in2="BackgroundImageFix" result="effect1_dropShadow_2707_13172"/>
<feBlend mode="normal" in="SourceGraphic" in2="effect1_dropShadow_2707_13172" result="shape"/>
</filter>
<filter id="filter2_d_2707_13172" x="-0.5" y="11.5" width="39" height="39" filterUnits="userSpaceOnUse" color-interpolation-filters="sRGB">
<feFlood flood-opacity="0" result="BackgroundImageFix"/>
<feColorMatrix in="SourceAlpha" type="matrix" values="0 0 0 0 0 0 0 0 0 0 0 0 0 0 0 0 0 0 127 0" result="hardAlpha"/>
<feOffset dy="12"/>
<feGaussianBlur stdDeviation="8"/>
<feComposite in2="hardAlpha" operator="out"/>
<feColorMatrix type="matrix" values="0 0 0 0 0.535937 0 0 0 0 0.57861 0 0 0 0 0.639063 0 0 0 0.1 0"/>
<feBlend mode="color-burn" in2="BackgroundImageFix" result="effect1_dropShadow_2707_13172"/>
<feBlend mode="normal" in="SourceGraphic" in2="effect1_dropShadow_2707_13172" result="shape"/>
</filter>
<filter id="filter3_d_2707_13172" x="93.5" y="105.5" width="39" height="39" filterUnits="userSpaceOnUse" color-interpolation-filters="sRGB">
<feFlood flood-opacity="0" result="BackgroundImageFix"/>
<feColorMatrix in="SourceAlpha" type="matrix" values="0 0 0 0 0 0 0 0 0 0 0 0 0 0 0 0 0 0 127 0" result="hardAlpha"/>
<feOffset dy="12"/>
<feGaussianBlur stdDeviation="8"/>
<feComposite in2="hardAlpha" operator="out"/>
<feColorMatrix type="matrix" values="0 0 0 0 0.535937 0 0 0 0 0.57861 0 0 0 0 0.639063 0 0 0 0.1 0"/>
<feBlend mode="color-burn" in2="BackgroundImageFix" result="effect1_dropShadow_2707_13172"/>
<feBlend mode="normal" in="SourceGraphic" in2="effect1_dropShadow_2707_13172" result="shape"/>
</filter>
<filter id="filter4_d_2707_13172" x="93.5" y="11.5" width="39" height="39" filterUnits="userSpaceOnUse" color-interpolation-filters="sRGB">
<feFlood flood-opacity="0" result="BackgroundImageFix"/>
<feColorMatrix in="SourceAlpha" type="matrix" values="0 0 0 0 0 0 0 0 0 0 0 0 0 0 0 0 0 0 127 0" result="hardAlpha"/>
<feOffset dy="12"/>
<feGaussianBlur stdDeviation="8"/>
<feComposite in2="hardAlpha" operator="out"/>
<feColorMatrix type="matrix" values="0 0 0 0 0.535937 0 0 0 0 0.57861 0 0 0 0 0.639063 0 0 0 0.1 0"/>
<feBlend mode="color-burn" in2="BackgroundImageFix" result="effect1_dropShadow_2707_13172"/>
<feBlend mode="normal" in="SourceGraphic" in2="effect1_dropShadow_2707_13172" result="shape"/>
</filter>
<linearGradient id="paint0_linear_2707_13172" x1="68.7123" y1="-3.34177" x2="68.7123" y2="133.671" gradientUnits="userSpaceOnUse">
<stop stop-color="#DBE3EA"/>
<stop offset="1" stop-color="#AFBBCD"/>
</linearGradient>
<linearGradient id="paint1_linear_2707_13172" x1="66" y1="0" x2="66" y2="132" gradientUnits="userSpaceOnUse">
<stop stop-color="#F5F7F8"/>
<stop offset="1" stop-color="white" stop-opacity="0"/>
</linearGradient>
<radialGradient id="paint2_radial_2707_13172" cx="0" cy="0" r="1" gradientUnits="userSpaceOnUse" gradientTransform="translate(66.726 93.6923) rotate(-90) scale(56.4231 109.683)">
<stop stop-color="white"/>
<stop offset="0.297177" stop-color="white"/>
<stop offset="0.615948" stop-color="white" stop-opacity="0.71"/>
<stop offset="1" stop-color="white" stop-opacity="0.52"/>
</radialGradient>
<linearGradient id="paint3_linear_2707_13172" x1="66" y1="39" x2="66" y2="93.6923" gradientUnits="userSpaceOnUse">
<stop stop-color="white"/>
<stop offset="1" stop-color="white"/>
</linearGradient>
<linearGradient id="paint4_linear_2707_13172" x1="66" y1="39" x2="66" y2="93.6923" gradientUnits="userSpaceOnUse">
<stop stop-color="white"/>
<stop offset="1" stop-color="white" stop-opacity="0"/>
</linearGradient>
<linearGradient id="paint5_linear_2707_13172" x1="19.1233" y1="109.848" x2="19.1233" y2="116.076" gradientUnits="userSpaceOnUse">
<stop stop-color="#B4BFD0"/>
<stop offset="1" stop-color="#8297B7"/>
</linearGradient>
<linearGradient id="paint6_linear_2707_13172" x1="19" y1="110" x2="19" y2="116" gradientUnits="userSpaceOnUse">
<stop stop-color="white"/>
<stop offset="1" stop-color="white" stop-opacity="0"/>
</linearGradient>
<linearGradient id="paint7_linear_2707_13172" x1="19.1233" y1="15.8481" x2="19.1233" y2="22.0759" gradientUnits="userSpaceOnUse">
<stop stop-color="#B4BFD0"/>
<stop offset="1" stop-color="#8297B7"/>
</linearGradient>
<linearGradient id="paint8_linear_2707_13172" x1="19" y1="16" x2="19" y2="22" gradientUnits="userSpaceOnUse">
<stop stop-color="white"/>
<stop offset="1" stop-color="white" stop-opacity="0"/>
</linearGradient>
<linearGradient id="paint9_linear_2707_13172" x1="113.123" y1="109.848" x2="113.123" y2="116.076" gradientUnits="userSpaceOnUse">
<stop stop-color="#B4BFD0"/>
<stop offset="1" stop-color="#8297B7"/>
</linearGradient>
<linearGradient id="paint10_linear_2707_13172" x1="113" y1="110" x2="113" y2="116" gradientUnits="userSpaceOnUse">
<stop stop-color="white"/>
<stop offset="1" stop-color="white" stop-opacity="0"/>
</linearGradient>
<linearGradient id="paint11_linear_2707_13172" x1="113.123" y1="15.8481" x2="113.123" y2="22.0759" gradientUnits="userSpaceOnUse">
<stop stop-color="#B4BFD0"/>
<stop offset="1" stop-color="#8297B7"/>
</linearGradient>
<linearGradient id="paint12_linear_2707_13172" x1="113" y1="16" x2="113" y2="22" gradientUnits="userSpaceOnUse">
<stop stop-color="white"/>
<stop offset="1" stop-color="white" stop-opacity="0"/>
</linearGradient>
<clipPath id="clip0_2707_13172">
<rect width="132" height="132" fill="white"/>
</clipPath>
</defs>
</svg>
