<svg width="64" height="64" viewBox="0 0 64 64" fill="none" xmlns="http://www.w3.org/2000/svg">
<g id="Product Lists">
<path id="Vector" d="M21.3333 13.333H53.3333" stroke="#C1C8CD" stroke-width="1.5" stroke-linecap="round" stroke-linejoin="round"/>
<path id="Vector_2" d="M10.6667 12.583C10.2525 12.583 9.91675 12.9188 9.91675 13.333C9.91675 13.7472 10.2525 14.083 10.6667 14.083H10.6907C11.1049 14.083 11.4407 13.7472 11.4407 13.333C11.4407 12.9188 11.1049 12.583 10.6907 12.583H10.6667Z" stroke="#C1C8CD" stroke-width="1.5" stroke-linecap="round" stroke-linejoin="round"/>
<path id="Vector_3" d="M10.6667 31.25C10.2525 31.25 9.91675 31.5858 9.91675 32C9.91675 32.4142 10.2525 32.75 10.6667 32.75H10.6907C11.1049 32.75 11.4407 32.4142 11.4407 32C11.4407 31.5858 11.1049 31.25 10.6907 31.25H10.6667Z" stroke="#C1C8CD" stroke-width="1.5" stroke-linecap="round" stroke-linejoin="round"/>
<path id="Vector_4" d="M10.6667 49.917C10.2525 49.917 9.91675 50.2528 9.91675 50.667C9.91675 51.0812 10.2525 51.417 10.6667 51.417H10.6907C11.1049 51.417 11.4407 51.0812 11.4407 50.667C11.4407 50.2528 11.1049 49.917 10.6907 49.917H10.6667Z" stroke="#C1C8CD" stroke-width="1.5" stroke-linecap="round" stroke-linejoin="round"/>
<path id="Vector_5" d="M21.3333 32H53.3333" stroke="#C1C8CD" stroke-width="1.5" stroke-linecap="round" stroke-linejoin="round"/>
<path id="Vector_6" d="M21.3333 50.667H53.3333" stroke="#C1C8CD" stroke-width="1.5" stroke-linecap="round" stroke-linejoin="round"/>
</g>
</svg>
