<svg width="10" height="10" viewBox="0 0 10 10" fill="none" xmlns="http://www.w3.org/2000/svg">
<path fill-rule="evenodd" clip-rule="evenodd" d="M4.87953 9.47698C4.65988 9.81997 4.33084 10 3.92355 10C3.54573 10 3.23054 9.82677 2.98916 9.5214C2.98915 9.52139 2.98917 9.52142 2.98916 9.5214L0.277477 6.09204C0.187087 5.98197 0.114316 5.86566 0.0664475 5.74278L0.0629264 5.73374C0.020743 5.61342 0 5.48844 0 5.36036C0 5.07753 0.0946644 4.82574 0.292309 4.62787C0.489472 4.43049 0.739919 4.3351 1.0216 4.3351C1.36057 4.3351 1.64193 4.49011 1.85284 4.76197L1.85364 4.763L3.87665 7.39542L8.10019 0.52426C8.20334 0.361315 8.32596 0.221129 8.47569 0.132289C8.62841 0.0380833 8.80485 0 8.98887 0C9.26827 0 9.51773 0.0921061 9.71286 0.287326C9.90756 0.482117 10 0.730621 10 1.00912C10 1.12635 9.98089 1.24186 9.94427 1.35468C9.90761 1.46758 9.85259 1.5786 9.78333 1.68747C9.78317 1.68773 9.78349 1.68722 9.78333 1.68747L4.87953 9.47698ZM9.54412 1.53622C9.60349 1.44299 9.64714 1.35335 9.67508 1.26729C9.70301 1.18124 9.71698 1.09518 9.71698 1.00912C9.71698 0.797566 9.64888 0.62366 9.51269 0.487403C9.3765 0.351147 9.20189 0.283019 8.98887 0.283019C8.84221 0.283019 8.71998 0.313497 8.6222 0.374454C8.52442 0.431825 8.43014 0.532225 8.33934 0.675652L3.9026 7.89366L1.62923 4.93546C1.4651 4.7239 1.26256 4.61812 1.0216 4.61812C0.808583 4.61812 0.632231 4.68804 0.492546 4.82789C0.352861 4.96773 0.283019 5.14522 0.283019 5.36036C0.283019 5.45718 0.298733 5.5504 0.330162 5.64005C0.365084 5.72969 0.420958 5.82112 0.497784 5.91435L3.21116 9.34586C3.40672 9.59327 3.64418 9.71698 3.92355 9.71698C4.23435 9.71698 4.47356 9.5861 4.64118 9.32435L9.54412 1.53622Z" fill="white"/>
<path d="M9.54412 1.53622C9.60349 1.44299 9.64714 1.35335 9.67508 1.26729C9.70301 1.18124 9.71698 1.09518 9.71698 1.00912C9.71698 0.797566 9.64888 0.62366 9.51269 0.487403C9.3765 0.351147 9.20189 0.283019 8.98887 0.283019C8.84221 0.283019 8.71998 0.313497 8.6222 0.374454C8.52442 0.431825 8.43014 0.532225 8.33934 0.675652L3.9026 7.89366L1.62923 4.93546C1.4651 4.7239 1.26256 4.61812 1.0216 4.61812C0.808583 4.61812 0.632231 4.68804 0.492546 4.82789C0.352861 4.96773 0.283019 5.14522 0.283019 5.36036C0.283019 5.45718 0.298733 5.5504 0.330162 5.64005C0.365084 5.72969 0.420958 5.82112 0.497784 5.91435L3.21116 9.34586C3.40672 9.59327 3.64418 9.71698 3.92355 9.71698C4.23435 9.71698 4.47356 9.5861 4.64118 9.32435L9.54412 1.53622Z" fill="white"/>
</svg>
