<svg width="24" height="24" viewBox="0 0 24 24" fill="none" xmlns="http://www.w3.org/2000/svg">
<path d="M8.64298 3.14559L6.93816 3.93362C4.31272 5.14719 3 5.75397 3 6.75C3 7.74603 4.31272 8.35281 6.93817 9.56638L8.64298 10.3544C10.2952 11.1181 11.1214 11.5 12 11.5C12.8786 11.5 13.7048 11.1181 15.357 10.3544L17.0618 9.56638C19.6873 8.35281 21 7.74603 21 6.75C21 5.75397 19.6873 5.14719 17.0618 3.93362L15.357 3.14559C13.7048 2.38186 12.8786 2 12 2C11.1214 2 10.2952 2.38186 8.64298 3.14559Z" stroke="#11181C" stroke-width="1.5"/>
<path d="M19.788 10.0972C19.9293 10.2959 21 11.5031 21 11.7309C21 12.7127 19.6873 13.3109 17.0618 14.5072L15.357 15.284C13.7048 16.0368 12.8786 16.4133 12 16.4133C11.1214 16.4133 10.2952 16.0368 8.64298 15.284L6.93817 14.5072C4.31272 13.3109 3 12.7127 3 11.7309C3 11.5031 4.07067 10.2959 4.212 10.0972" stroke="#11181C" stroke-width="1.5"/>
<path d="M19.3767 15.2661C19.7922 15.5971 21 16.927 21 17.3176C21 18.2995 19.6873 18.8976 17.0618 20.0939L15.357 20.8707C13.7048 21.6236 12.8786 22 12 22C11.1214 22 10.2952 21.6236 8.64298 20.8707L6.93817 20.0939C4.31272 18.8976 3 18.2995 3 17.3176C3 16.927 4.20778 15.5971 4.62334 15.2661" stroke="#11181C" stroke-width="1.5"/>
</svg>
