<svg width="28" height="28" viewBox="0 0 28 28" fill="none" xmlns="http://www.w3.org/2000/svg">
<rect width="28" height="28" rx="14" fill="#F5D90A"/>
<path d="M9.51543 12.1498C11.0872 9.74881 11.873 8.54831 12.9028 8.18667C13.6115 7.93778 14.3885 7.93778 15.0972 8.18667C16.127 8.54831 16.9128 9.74881 18.4846 12.1498C20.2537 14.8523 21.1383 16.2036 20.9824 17.3186C20.8755 18.0833 20.4765 18.782 19.8633 19.2775C18.9695 20 17.313 20 14 20C10.687 20 9.03052 20 8.13665 19.2775C7.52355 18.782 7.12443 18.0833 7.01756 17.3186C6.86177 16.2036 7.74632 14.8523 9.51543 12.1498Z" stroke="#35290F" stroke-width="1.5" stroke-linejoin="round"/>
<path d="M14 18V14" stroke="#35290F" stroke-width="1.5" stroke-linejoin="round"/>
<path d="M13.9919 12H14.0009" stroke="#35290F" stroke-width="2" stroke-linecap="round" stroke-linejoin="round"/>
</svg>
